<svg viewBox="0 0 330 200" xmlns="http://www.w3.org/2000/svg"><g><g><g><g><g><line x1="70" y1="160.20000000000002" x2="65" y2="160.20000000000002" style="visibility: inherit;" fill="rgb(0, 0, 0)" stroke="rgb(204, 204, 204)" stroke-width="1px"></line><line x1="70" y1="142.40000000000003" x2="65" y2="142.40000000000003" style="visibility: inherit;" fill="rgb(0, 0, 0)" stroke="rgb(204, 204, 204)" stroke-width="1px"></line><line x1="70" y1="124.6" x2="65" y2="124.6" style="visibility: inherit;" fill="rgb(0, 0, 0)" stroke="rgb(204, 204, 204)" stroke-width="1px"></line><line x1="70" y1="106.80000000000001" x2="65" y2="106.80000000000001" style="visibility: inherit;" fill="rgb(0, 0, 0)" stroke="rgb(204, 204, 204)" stroke-width="1px"></line><line x1="70" y1="89.00000000000001" x2="65" y2="89.00000000000001" style="visibility: inherit;" fill="rgb(0, 0, 0)" stroke="rgb(204, 204, 204)" stroke-width="1px"></line><line x1="70" y1="71.2" x2="65" y2="71.2" style="visibility: inherit;" fill="rgb(0, 0, 0)" stroke="rgb(204, 204, 204)" stroke-width="1px"></line><line x1="70" y1="53.39999999999999" x2="65" y2="53.39999999999999" style="visibility: inherit;" fill="rgb(0, 0, 0)" stroke="rgb(204, 204, 204)" stroke-width="1px"></line><line x1="70" y1="35.60000000000002" x2="65" y2="35.60000000000002" style="visibility: inherit;" fill="rgb(0, 0, 0)" stroke="rgb(204, 204, 204)" stroke-width="1px"></line><line x1="70" y1="17.80000000000001" x2="65" y2="17.80000000000001" style="visibility: inherit;" fill="rgb(0, 0, 0)" stroke="rgb(204, 204, 204)" stroke-width="1px"></line><line x1="70" y1="0" x2="65" y2="0" style="visibility: inherit;" fill="rgb(0, 0, 0)" stroke="rgb(204, 204, 204)" stroke-width="1px"></line></g><g transform="translate(60, 0)"><text x="0" y="160.20000000000002" dx="0em" dy="0.3em" style="text-anchor: end; visibility: inherit; font-family: &quot;Helvetica Neue&quot;, sans-serif; font-size: 12px; font-weight: 200;" fill="rgb(50, 49, 63)" stroke="none" stroke-width="1px">0.04</text><text x="0" y="142.40000000000003" dx="0em" dy="0.3em" style="text-anchor: end; visibility: hidden; font-family: &quot;Helvetica Neue&quot;, sans-serif; font-size: 12px; font-weight: 200;" fill="rgb(50, 49, 63)" stroke="none" stroke-width="1px">0.045</text><text x="0" y="124.6" dx="0em" dy="0.3em" style="text-anchor: end; visibility: inherit; font-family: &quot;Helvetica Neue&quot;, sans-serif; font-size: 12px; font-weight: 200;" fill="rgb(50, 49, 63)" stroke="none" stroke-width="1px">0.05</text><text x="0" y="106.80000000000001" dx="0em" dy="0.3em" style="text-anchor: end; visibility: hidden; font-family: &quot;Helvetica Neue&quot;, sans-serif; font-size: 12px; font-weight: 200;" fill="rgb(50, 49, 63)" stroke="none" stroke-width="1px">0.055</text><text x="0" y="89.00000000000001" dx="0em" dy="0.3em" style="text-anchor: end; visibility: inherit; font-family: &quot;Helvetica Neue&quot;, sans-serif; font-size: 12px; font-weight: 200;" fill="rgb(50, 49, 63)" stroke="none" stroke-width="1px">0.06</text><text x="0" y="71.2" dx="0em" dy="0.3em" style="text-anchor: end; visibility: hidden; font-family: &quot;Helvetica Neue&quot;, sans-serif; font-size: 12px; font-weight: 200;" fill="rgb(50, 49, 63)" stroke="none" stroke-width="1px">0.065</text><text x="0" y="53.39999999999999" dx="0em" dy="0.3em" style="text-anchor: end; visibility: inherit; font-family: &quot;Helvetica Neue&quot;, sans-serif; font-size: 12px; font-weight: 200;" fill="rgb(50, 49, 63)" stroke="none" stroke-width="1px">0.07</text><text x="0" y="35.60000000000002" dx="0em" dy="0.3em" style="text-anchor: end; visibility: hidden; font-family: &quot;Helvetica Neue&quot;, sans-serif; font-size: 12px; font-weight: 200;" fill="rgb(50, 49, 63)" stroke="none" stroke-width="1px">0.075</text><text x="0" y="17.80000000000001" dx="0em" dy="0.3em" style="text-anchor: end; visibility: inherit; font-family: &quot;Helvetica Neue&quot;, sans-serif; font-size: 12px; font-weight: 200;" fill="rgb(50, 49, 63)" stroke="none" stroke-width="1px">0.08</text><text x="0" y="0" dx="0em" dy="0.3em" style="text-anchor: end; visibility: hidden; font-family: &quot;Helvetica Neue&quot;, sans-serif; font-size: 12px; font-weight: 200;" fill="rgb(50, 49, 63)" stroke="none" stroke-width="1px">0.085</text></g><line x1="70" y1="0" x2="70" y2="178" fill="rgb(0, 0, 0)" stroke="rgb(204, 204, 204)" stroke-width="1px"></line></g></g><g transform="translate(70, 0)" clip-path="url(#clip_0)"><clipPath id="clip_0"><rect width="260" height="178"></rect></clipPath><g><g><g><line x1="0" y1="0" x2="0" y2="178" fill="rgb(0, 0, 0)" stroke="rgb(60, 60, 60)" stroke-width="1px" opacity="0.25"></line><line x1="21.666666666666664" y1="0" x2="21.666666666666664" y2="178" fill="rgb(0, 0, 0)" stroke="rgb(60, 60, 60)" stroke-width="1px" opacity="0.25"></line><line x1="43.33333333333333" y1="0" x2="43.33333333333333" y2="178" fill="rgb(0, 0, 0)" stroke="rgb(60, 60, 60)" stroke-width="1px" opacity="0.25"></line><line x1="65" y1="0" x2="65" y2="178" fill="rgb(0, 0, 0)" stroke="rgb(60, 60, 60)" stroke-width="1px" opacity="0.25"></line><line x1="86.66666666666666" y1="0" x2="86.66666666666666" y2="178" fill="rgb(0, 0, 0)" stroke="rgb(60, 60, 60)" stroke-width="1px" opacity="0.25"></line><line x1="108.33333333333334" y1="0" x2="108.33333333333334" y2="178" fill="rgb(0, 0, 0)" stroke="rgb(60, 60, 60)" stroke-width="1px" opacity="0.25"></line><line x1="130" y1="0" x2="130" y2="178" fill="rgb(0, 0, 0)" stroke="rgb(60, 60, 60)" stroke-width="1px" opacity="0.25"></line><line x1="151.66666666666669" y1="0" x2="151.66666666666669" y2="178" fill="rgb(0, 0, 0)" stroke="rgb(60, 60, 60)" stroke-width="1px" opacity="0.25"></line><line x1="173.33333333333331" y1="0" x2="173.33333333333331" y2="178" fill="rgb(0, 0, 0)" stroke="rgb(60, 60, 60)" stroke-width="1px" opacity="0.25"></line><line x1="195" y1="0" x2="195" y2="178" fill="rgb(0, 0, 0)" stroke="rgb(60, 60, 60)" stroke-width="1px" opacity="0.25"></line><line x1="216.66666666666669" y1="0" x2="216.66666666666669" y2="178" fill="rgb(0, 0, 0)" stroke="rgb(60, 60, 60)" stroke-width="1px" opacity="0.25"></line><line x1="238.33333333333331" y1="0" x2="238.33333333333331" y2="178" fill="rgb(0, 0, 0)" stroke="rgb(60, 60, 60)" stroke-width="1px" opacity="0.25"></line><line x1="260" y1="0" x2="260" y2="178" fill="rgb(0, 0, 0)" stroke="rgb(60, 60, 60)" stroke-width="1px" opacity="0.25"></line></g><g><line x1="0" y1="160.20000000000002" x2="260" y2="160.20000000000002" fill="rgb(0, 0, 0)" stroke="rgb(60, 60, 60)" stroke-width="1px" opacity="0.25"></line><line x1="0" y1="142.40000000000003" x2="260" y2="142.40000000000003" fill="rgb(0, 0, 0)" stroke="rgb(60, 60, 60)" stroke-width="1px" opacity="0.25"></line><line x1="0" y1="124.6" x2="260" y2="124.6" fill="rgb(0, 0, 0)" stroke="rgb(60, 60, 60)" stroke-width="1px" opacity="0.25"></line><line x1="0" y1="106.80000000000001" x2="260" y2="106.80000000000001" fill="rgb(0, 0, 0)" stroke="rgb(60, 60, 60)" stroke-width="1px" opacity="0.25"></line><line x1="0" y1="89.00000000000001" x2="260" y2="89.00000000000001" fill="rgb(0, 0, 0)" stroke="rgb(60, 60, 60)" stroke-width="1px" opacity="0.25"></line><line x1="0" y1="71.2" x2="260" y2="71.2" fill="rgb(0, 0, 0)" stroke="rgb(60, 60, 60)" stroke-width="1px" opacity="0.25"></line><line x1="0" y1="53.39999999999999" x2="260" y2="53.39999999999999" fill="rgb(0, 0, 0)" stroke="rgb(60, 60, 60)" stroke-width="1px" opacity="0.25"></line><line x1="0" y1="35.60000000000002" x2="260" y2="35.60000000000002" fill="rgb(0, 0, 0)" stroke="rgb(60, 60, 60)" stroke-width="1px" opacity="0.25"></line><line x1="0" y1="17.80000000000001" x2="260" y2="17.80000000000001" fill="rgb(0, 0, 0)" stroke="rgb(60, 60, 60)" stroke-width="1px" opacity="0.25"></line><line x1="0" y1="0" x2="260" y2="0" fill="rgb(0, 0, 0)" stroke="rgb(60, 60, 60)" stroke-width="1px" opacity="0.25"></line></g></g></g><g><g><line x1="0" y1="302.6" x2="260" y2="302.6" fill="rgb(0, 0, 0)" stroke="rgb(153, 153, 153)" stroke-width="1.5px"></line></g></g><g><g><line x1="21.666666666666664" y1="0" x2="21.666666666666664" y2="178" fill="rgb(0, 0, 0)" stroke="rgb(153, 153, 153)" stroke-width="1.5px"></line></g></g><g><g><g><g><g><path stroke="rgb(238, 51, 119)" stroke-width="2px" d="M23.833333333333332,237.15727514528848L24.916666666666668,172.8743409261078L26,168.9465378155344L27.083333333333336,196.85260009260872L28.166666666666668,167.99317337192147L29.25,147.79680325265613L30.333333333333332,124.47091293190056L31.416666666666668,124.5019988064546L32.5,132.93166668049028L33.583333333333336,147.55590493446516L34.666666666666664,134.09123010254896L35.75,148.15508379427973L36.833333333333336,134.76571312581683L37.91666666666667,140.4920019459439L39,136.9288214144965L40.083333333333336,126.21700631591392L41.166666666666664,86.17351499907137L42.25,118.48741449071252L43.33333333333333,80.29882012415567L44.416666666666664,105.9299209224074L45.5,110.06926015165044L46.583333333333336,129.06312516154003L47.666666666666664,96.54319074427323L48.75,126.39172080489048L49.833333333333336,149.6259438532896L50.916666666666664,136.21529449605865L52,102.15354172581482L53.083333333333336,91.37300029431914L54.16666666666667,122.33240927017596L55.25,122.83371578692555L56.333333333333336,107.48482034413719L57.416666666666664,87.66040758418919L58.5,103.69422179735044L59.58333333333333,84.70923558110788L60.666666666666664,109.2626773554553L61.75,120.52067727528745L62.833333333333336,113.55419847287054L63.916666666666664,115.99543199571929L65,117.89710888582869L66.08333333333333,87.9072102741638L67.16666666666667,88.14872309531872L68.25,64.73365698027752L69.33333333333333,85.83199710027353L70.41666666666666,78.66445203944092L71.5,96.68395272308163L72.58333333333333,118.58873594897514L73.66666666666667,96.31431878118805L74.75,94.69784928411974L75.83333333333334,77.70337602816481L76.91666666666667,80.19993669967045L78,90.01236761188257L79.08333333333333,97.656244408657L80.16666666666667,40.66995643946092L81.25,59.21851112631593L82.33333333333333,73.66782907594416L83.41666666666667,92.7914493426763L84.5,115.55634864320669L85.58333333333333,86.08458362448498L86.66666666666666,110.3316970384276L87.75,121.35259477384528L88.83333333333333,114.20267133402075L89.91666666666667,132.23568355960597L91,122.68059769659045L92.08333333333334,115.23718614406448L93.16666666666667,85.83596360263402L94.25,110.1380171977566L95.33333333333333,105.46651629888018L96.41666666666667,109.69501571874146L97.5,128.72421815141172L98.58333333333333,127.81276533962847L99.66666666666667,119.23514515104034L100.75,88.9503749738881L101.83333333333333,112.5641428053933L102.91666666666666,115.22406667441506L104,117.29614736240876L105.08333333333333,118.91029821473037L106.16666666666667,112.30012334655098L107.25,115.01839550649993L108.33333333333334,69.93033049461728L109.41666666666667,89.87992818419377L110.5,113.28826460633043L111.58333333333333,115.78815754408623L112.66666666666667,117.73557414183657L113.75,134.98781279216522L114.83333333333333,140.55970687055554L115.91666666666667,144.90021235681942L117,148.28146613013206L118.08333333333333,143.0478615282849L119.16666666666666,131.10328518405038L120.25,121.79846021252504L121.33333333333333,114.55000156009115L122.41666666666667,85.30064839977318L123.5,70.38300650951888L124.58333333333334,90.23256277510144L125.66666666666667,113.56296693007087L126.75,84.53174842417059L127.83333333333333,101.254432726153L128.91666666666666,98.54620414876197L130,72.83369021792718L131.08333333333334,68.53884444525539L132.16666666666666,73.0607608780118L133.25,84.45093213784911L134.33333333333334,53.985874962896176L135.41666666666669,77.4591972995891L136.5,72.14211446189398L137.58333333333334,44.39730599339808L138.66666666666666,85.72490172062847L139.75,70.7134998471885L140.83333333333331,74.75481743609093L141.91666666666666,101.50580331029755L143,67.27161960633906L144.08333333333334,56.33839308016992L145.16666666666666,63.55660926458218L146.25,45.57679580343179L147.33333333333334,31.570521117197472L148.41666666666666,36.394835715824854L149.5,71.6233775501956L150.58333333333334,43.99320993923598L151.66666666666669,69.67491124608502L152.75,34.607756329643706L153.83333333333334,30.893243587628746L154.91666666666666,35.86723652029025L156,16.139176076941823L157.08333333333331,0.7710169915735321L158.16666666666666,4.534423643272362L159.25,15.333715783636563L160.33333333333334,39.48156400927124L161.41666666666666,66.16033906664077L162.5,86.94310483633154L163.58333333333334,71.66248007433876L164.66666666666666,83.36167139172804L165.75,108.21054254171992L166.83333333333334,96.09741240552702L167.91666666666669,86.66128402943276L169,87.17814131405552L170.08333333333334,95.44837149746739L171.16666666666666,86.15568116205434L172.25,71.04907703207685L173.33333333333331,67.1486307735151L174.41666666666666,56.242584779404766L175.5,55.614373308683554L176.58333333333334,47.25739821430105L177.66666666666666,64.35011262275864L178.75,77.6653371469471L179.83333333333334,80.17029869259918L180.91666666666666,82.12166373666211L182,44.30377651980527L183.08333333333334,30.578839095255347L184.16666666666669,12.019514482840151L185.25,21.164601547659743L186.33333333333334,44.02382401944507L187.41666666666666,69.69875961456599L188.5,66.09673350527416L189.58333333333331,71.15835645573594L190.66666666666666,75.1013607341457L191.75,78.17296106702686L192.83333333333334,49.095335498850204L193.91666666666666,89.38466670531344L195,105.0348560668574L196.08333333333334,125.0939534036456L197.16666666666666,101.38199110827644L198.25,106.51317048716548L199.33333333333334,94.77515957502916L200.41666666666669,101.36644872276582L201.5,90.76586332056182L202.58333333333334,58.905206354353936L203.66666666666666,65.55615680516908L204.75,94.34004667879043L205.83333333333331,116.76269689034142L206.91666666666666,110.62714193270335L208,97.97994333110316L209.08333333333334,119.59817638249305L210.16666666666666,112.83598045708946L211.25,115.4358281898908L212.33333333333334,125.32871086334319L213.41666666666666,148.77046611425348L214.5,167.0315934547126L215.58333333333334,126.1838084875481L216.66666666666669,94.36338399812695L217.75,93.17807718966827L218.83333333333334,100.12232154456967L219.91666666666666,105.5318878970379L221,109.74594008561064L222.08333333333331,105.16108838181809L223.16666666666666,77.9866850357633L224.25,56.817824829186605L225.33333333333334,87.53288606950005L226.41666666666666,79.9895180136678L227.5,74.1132342981745L228.58333333333334,53.800406704604924L229.66666666666666,85.18231735045092L230.75,62.42322240232829L231.83333333333334,52.56149165825026L232.91666666666669,60.61440305690435L234,66.88762103645588L235.08333333333334,87.50965749081742L236.16666666666666,64.23622037167374L237.25,46.106212855860804" style="fill: none;" fill="none"></path></g></g></g></g><g opacity="0.2"><g><g><g><path stroke="rgb(238, 51, 119)" stroke-width="2px" d="M23.833333333333332,195.80000238716605L24.916666666666668,53.39999893903733L26,160.20000318288805L27.083333333333336,267.00000079572203L28.166666666666668,89.00000477433206L29.25,89.00000477433206L30.333333333333332,53.39999893903733L31.416666666666668,124.59999734759332L32.5,160.20000318288805L33.583333333333336,195.80000238716605L34.666666666666664,89.00000477433206L35.75,195.80000238716605L36.833333333333336,89.00000477433206L37.91666666666667,160.20000318288805L39,124.59999734759332L40.083333333333336,89.00000477433206L41.166666666666664,-53.40000530481336L44.416666666666664,195.80000238716605L45.5,124.59999734759332L46.583333333333336,195.80000238716605L49.833333333333336,231.40000159144404L50.916666666666664,89.00000477433206L52,-17.8000127315521L53.083333333333336,53.39999893903733L54.16666666666667,231.40000159144404L55.25,124.59999734759332L56.333333333333336,53.39999893903733L57.416666666666664,17.800006365776085L58.5,160.20000318288805L59.58333333333333,17.800006365776085L60.666666666666664,195.80000238716605L61.75,160.20000318288805L62.833333333333336,89.00000477433206L63.916666666666664,124.59999734759332L65,124.59999734759332L66.08333333333333,-17.8000127315521L67.16666666666667,89.00000477433206L68.25,-17.8000127315521L69.33333333333333,160.20000318288805L70.41666666666666,53.39999893903733L71.5,160.20000318288805L72.58333333333333,195.80000238716605L73.66666666666667,17.800006365776085L74.75,89.00000477433206L75.83333333333334,17.800006365776085L76.91666666666667,89.00000477433206L78,124.59999734759332L79.08333333333333,124.59999734759332L80.16666666666667,-160.19998302459715L81.25,124.59999734759332L82.33333333333333,124.59999734759332L83.41666666666667,160.20000318288805L84.5,195.80000238716605L86.66666666666666,195.80000238716605L87.75,160.20000318288805L88.83333333333333,89.00000477433206L89.91666666666667,195.80000238716605L91,89.00000477433206L92.08333333333334,89.00000477433206L93.16666666666667,-17.8000127315521L94.25,195.80000238716605L95.33333333333333,89.00000477433206L96.41666666666667,124.59999734759332L97.5,195.80000238716605L98.58333333333333,124.59999734759332L99.66666666666667,89.00000477433206L100.75,-17.8000127315521L101.83333333333333,195.80000238716605L102.91666666666666,124.59999734759332L104,124.59999734759332L105.08333333333333,124.59999734759332L106.16666666666667,89.00000477433206L107.25,124.59999734759332L108.33333333333334,-88.99999787807462L109.41666666666667,160.20000318288805L110.5,195.80000238716605L111.58333333333333,124.59999734759332L112.66666666666667,124.59999734759332L113.75,195.80000238716605L114.83333333333333,160.20000318288805L115.91666666666667,160.20000318288805L117,160.20000318288805L118.08333333333333,124.59999734759332L119.16666666666666,89.00000477433206L120.25,89.00000477433206L121.33333333333333,89.00000477433206L122.41666666666667,-17.8000127315521L123.5,17.800006365776085L124.58333333333334,160.20000318288805L125.66666666666667,195.80000238716605L126.75,-17.8000127315521L127.83333333333333,160.20000318288805L128.91666666666666,89.00000477433206L130,-17.8000127315521L131.08333333333334,53.39999893903733L132.16666666666666,89.00000477433206L133.25,124.59999734759332L134.33333333333334,-53.40000530481336L135.41666666666669,160.20000318288805L136.5,53.39999893903733L137.58333333333334,-53.40000530481336L138.66666666666666,231.40000159144404L139.75,17.800006365776085L140.83333333333331,89.00000477433206L141.91666666666666,195.80000238716605L143,-53.40000530481336L144.08333333333334,17.800006365776085L145.16666666666666,89.00000477433206L146.25,-17.8000127315521L147.33333333333334,-17.8000127315521L148.41666666666666,53.39999893903733L149.5,195.80000238716605L150.58333333333334,-53.40000530481336L151.66666666666669,160.20000318288805L152.75,-88.99999787807462L153.83333333333334,17.800006365776085L154.91666666666666,53.39999893903733L156,-53.40000530481336L157.08333333333331,-53.40000530481336L158.16666666666666,17.800006365776085L159.25,53.39999893903733L160.33333333333334,124.59999734759332L161.41666666666666,160.20000318288805L162.5,160.20000318288805L163.58333333333334,17.800006365776085L164.66666666666666,124.59999734759332L165.75,195.80000238716605L166.83333333333334,53.39999893903733L167.91666666666669,53.39999893903733L169,89.00000477433206L170.08333333333334,124.59999734759332L171.16666666666666,53.39999893903733L172.25,17.800006365776085L173.33333333333331,53.39999893903733L174.41666666666666,17.800006365776085L175.5,53.39999893903733L176.58333333333334,17.800006365776085L177.66666666666666,124.59999734759332L178.75,124.59999734759332L179.83333333333334,89.00000477433206L180.91666666666666,89.00000477433206L182,-88.99999787807462L184.16666666666669,-53.40000530481336L185.25,53.39999893903733L186.33333333333334,124.59999734759332L187.41666666666666,160.20000318288805L188.5,53.39999893903733L189.58333333333331,89.00000477433206L190.66666666666666,89.00000477433206L191.75,89.00000477433206L192.83333333333334,-53.40000530481336L193.91666666666666,231.40000159144404L195,160.20000318288805L196.08333333333334,195.80000238716605L197.16666666666666,17.800006365776085L198.25,124.59999734759332L199.33333333333334,53.39999893903733L200.41666666666669,124.59999734759332L201.5,53.39999893903733L202.58333333333334,-53.40000530481336L203.66666666666666,89.00000477433206L204.75,195.80000238716605L205.83333333333331,195.80000238716605L206.91666666666666,89.00000477433206L208,53.39999893903733L209.08333333333334,195.80000238716605L210.16666666666666,89.00000477433206L211.25,124.59999734759332L212.33333333333334,160.20000318288805L213.41666666666666,231.40000159144404L216.66666666666669,-17.8000127315521L217.75,89.00000477433206L218.83333333333334,124.59999734759332L219.91666666666666,124.59999734759332L221,124.59999734759332L222.08333333333331,89.00000477433206L223.16666666666666,-17.8000127315521L225.33333333333334,195.80000238716605L226.41666666666666,53.39999893903733L227.5,53.39999893903733L228.58333333333334,-17.8000127315521L230.75,-17.8000127315521L231.83333333333334,17.800006365776085L232.91666666666669,89.00000477433206L234,89.00000477433206L235.08333333333334,160.20000318288805L236.16666666666666,-17.8000127315521" style="fill: none;" fill="none"></path></g></g></g></g></g></g><g transform="translate(70, 178)" clip-path="url(#clip_1)"><clipPath id="clip_1"><rect width="260" height="22"></rect></clipPath><g><g><line x1="0" y1="0" x2="0" y2="5" style="visibility: inherit;" fill="rgb(0, 0, 0)" stroke="rgb(204, 204, 204)" stroke-width="1px"></line><line x1="21.666666666666664" y1="0" x2="21.666666666666664" y2="5" style="visibility: inherit;" fill="rgb(0, 0, 0)" stroke="rgb(204, 204, 204)" stroke-width="1px"></line><line x1="43.33333333333333" y1="0" x2="43.33333333333333" y2="5" style="visibility: inherit;" fill="rgb(0, 0, 0)" stroke="rgb(204, 204, 204)" stroke-width="1px"></line><line x1="65" y1="0" x2="65" y2="5" style="visibility: inherit;" fill="rgb(0, 0, 0)" stroke="rgb(204, 204, 204)" stroke-width="1px"></line><line x1="86.66666666666666" y1="0" x2="86.66666666666666" y2="5" style="visibility: inherit;" fill="rgb(0, 0, 0)" stroke="rgb(204, 204, 204)" stroke-width="1px"></line><line x1="108.33333333333334" y1="0" x2="108.33333333333334" y2="5" style="visibility: inherit;" fill="rgb(0, 0, 0)" stroke="rgb(204, 204, 204)" stroke-width="1px"></line><line x1="130" y1="0" x2="130" y2="5" style="visibility: inherit;" fill="rgb(0, 0, 0)" stroke="rgb(204, 204, 204)" stroke-width="1px"></line><line x1="151.66666666666669" y1="0" x2="151.66666666666669" y2="5" style="visibility: inherit;" fill="rgb(0, 0, 0)" stroke="rgb(204, 204, 204)" stroke-width="1px"></line><line x1="173.33333333333331" y1="0" x2="173.33333333333331" y2="5" style="visibility: inherit;" fill="rgb(0, 0, 0)" stroke="rgb(204, 204, 204)" stroke-width="1px"></line><line x1="195" y1="0" x2="195" y2="5" style="visibility: inherit;" fill="rgb(0, 0, 0)" stroke="rgb(204, 204, 204)" stroke-width="1px"></line><line x1="216.66666666666669" y1="0" x2="216.66666666666669" y2="5" style="visibility: inherit;" fill="rgb(0, 0, 0)" stroke="rgb(204, 204, 204)" stroke-width="1px"></line><line x1="238.33333333333331" y1="0" x2="238.33333333333331" y2="5" style="visibility: inherit;" fill="rgb(0, 0, 0)" stroke="rgb(204, 204, 204)" stroke-width="1px"></line><line x1="260" y1="0" x2="260" y2="5" style="visibility: inherit;" fill="rgb(0, 0, 0)" stroke="rgb(204, 204, 204)" stroke-width="1px"></line></g><g transform="translate(0, 8)"><text x="0" y="0" dx="0em" dy="0.95em" style="text-anchor: middle; visibility: hidden; font-family: &quot;Helvetica Neue&quot;, sans-serif; font-size: 12px; font-weight: 200;" fill="rgb(50, 49, 63)" stroke="none" stroke-width="1px">-20</text><text x="21.666666666666664" y="0" dx="0em" dy="0.95em" style="text-anchor: middle; visibility: inherit; font-family: &quot;Helvetica Neue&quot;, sans-serif; font-size: 12px; font-weight: 200;" fill="rgb(50, 49, 63)" stroke="none" stroke-width="1px">0</text><text x="43.33333333333333" y="0" dx="0em" dy="0.95em" style="text-anchor: middle; visibility: hidden; font-family: &quot;Helvetica Neue&quot;, sans-serif; font-size: 12px; font-weight: 200;" fill="rgb(50, 49, 63)" stroke="none" stroke-width="1px">20</text><text x="65" y="0" dx="0em" dy="0.95em" style="text-anchor: middle; visibility: inherit; font-family: &quot;Helvetica Neue&quot;, sans-serif; font-size: 12px; font-weight: 200;" fill="rgb(50, 49, 63)" stroke="none" stroke-width="1px">40</text><text x="86.66666666666666" y="0" dx="0em" dy="0.95em" style="text-anchor: middle; visibility: hidden; font-family: &quot;Helvetica Neue&quot;, sans-serif; font-size: 12px; font-weight: 200;" fill="rgb(50, 49, 63)" stroke="none" stroke-width="1px">60</text><text x="108.33333333333334" y="0" dx="0em" dy="0.95em" style="text-anchor: middle; visibility: inherit; font-family: &quot;Helvetica Neue&quot;, sans-serif; font-size: 12px; font-weight: 200;" fill="rgb(50, 49, 63)" stroke="none" stroke-width="1px">80</text><text x="130" y="0" dx="0em" dy="0.95em" style="text-anchor: middle; visibility: hidden; font-family: &quot;Helvetica Neue&quot;, sans-serif; font-size: 12px; font-weight: 200;" fill="rgb(50, 49, 63)" stroke="none" stroke-width="1px">100</text><text x="151.66666666666669" y="0" dx="0em" dy="0.95em" style="text-anchor: middle; visibility: inherit; font-family: &quot;Helvetica Neue&quot;, sans-serif; font-size: 12px; font-weight: 200;" fill="rgb(50, 49, 63)" stroke="none" stroke-width="1px">120</text><text x="173.33333333333331" y="0" dx="0em" dy="0.95em" style="text-anchor: middle; visibility: hidden; font-family: &quot;Helvetica Neue&quot;, sans-serif; font-size: 12px; font-weight: 200;" fill="rgb(50, 49, 63)" stroke="none" stroke-width="1px">140</text><text x="195" y="0" dx="0em" dy="0.95em" style="text-anchor: middle; visibility: inherit; font-family: &quot;Helvetica Neue&quot;, sans-serif; font-size: 12px; font-weight: 200;" fill="rgb(50, 49, 63)" stroke="none" stroke-width="1px">160</text><text x="216.66666666666669" y="0" dx="0em" dy="0.95em" style="text-anchor: middle; visibility: hidden; font-family: &quot;Helvetica Neue&quot;, sans-serif; font-size: 12px; font-weight: 200;" fill="rgb(50, 49, 63)" stroke="none" stroke-width="1px">180</text><text x="238.33333333333331" y="0" dx="0em" dy="0.95em" style="text-anchor: middle; visibility: inherit; font-family: &quot;Helvetica Neue&quot;, sans-serif; font-size: 12px; font-weight: 200;" fill="rgb(50, 49, 63)" stroke="none" stroke-width="1px">200</text><text x="260" y="0" dx="0em" dy="0.95em" style="text-anchor: middle; visibility: hidden; font-family: &quot;Helvetica Neue&quot;, sans-serif; font-size: 12px; font-weight: 200;" fill="rgb(50, 49, 63)" stroke="none" stroke-width="1px">220</text></g><line x1="0" y1="0" x2="260" y2="0" fill="rgb(0, 0, 0)" stroke="rgb(204, 204, 204)" stroke-width="1px"></line></g></g></g></g></svg>