<svg viewBox="0 0 330 200" xmlns="http://www.w3.org/2000/svg"><g><g><g><g><g><line x1="58" y1="178" x2="53" y2="178" style="visibility: inherit;" fill="rgb(0, 0, 0)" stroke="rgb(204, 204, 204)" stroke-width="1px"></line><line x1="58" y1="155.75" x2="53" y2="155.75" style="visibility: inherit;" fill="rgb(0, 0, 0)" stroke="rgb(204, 204, 204)" stroke-width="1px"></line><line x1="58" y1="133.49999999999997" x2="53" y2="133.49999999999997" style="visibility: inherit;" fill="rgb(0, 0, 0)" stroke="rgb(204, 204, 204)" stroke-width="1px"></line><line x1="58" y1="111.25000000000001" x2="53" y2="111.25000000000001" style="visibility: inherit;" fill="rgb(0, 0, 0)" stroke="rgb(204, 204, 204)" stroke-width="1px"></line><line x1="58" y1="89" x2="53" y2="89" style="visibility: inherit;" fill="rgb(0, 0, 0)" stroke="rgb(204, 204, 204)" stroke-width="1px"></line><line x1="58" y1="66.74999999999999" x2="53" y2="66.74999999999999" style="visibility: inherit;" fill="rgb(0, 0, 0)" stroke="rgb(204, 204, 204)" stroke-width="1px"></line><line x1="58" y1="44.50000000000003" x2="53" y2="44.50000000000003" style="visibility: inherit;" fill="rgb(0, 0, 0)" stroke="rgb(204, 204, 204)" stroke-width="1px"></line><line x1="58" y1="22.25000000000003" x2="53" y2="22.25000000000003" style="visibility: inherit;" fill="rgb(0, 0, 0)" stroke="rgb(204, 204, 204)" stroke-width="1px"></line><line x1="58" y1="0" x2="53" y2="0" style="visibility: inherit;" fill="rgb(0, 0, 0)" stroke="rgb(204, 204, 204)" stroke-width="1px"></line></g><g transform="translate(48, 0)"><text x="0" y="178" dx="0em" dy="0.3em" style="text-anchor: end; visibility: hidden; font-family: &quot;Helvetica Neue&quot;, sans-serif; font-size: 12px; font-weight: 200;" fill="rgb(50, 49, 63)" stroke="none" stroke-width="1px">0.24</text><text x="0" y="155.75" dx="0em" dy="0.3em" style="text-anchor: end; visibility: inherit; font-family: &quot;Helvetica Neue&quot;, sans-serif; font-size: 12px; font-weight: 200;" fill="rgb(50, 49, 63)" stroke="none" stroke-width="1px">0.26</text><text x="0" y="133.49999999999997" dx="0em" dy="0.3em" style="text-anchor: end; visibility: hidden; font-family: &quot;Helvetica Neue&quot;, sans-serif; font-size: 12px; font-weight: 200;" fill="rgb(50, 49, 63)" stroke="none" stroke-width="1px">0.28</text><text x="0" y="111.25000000000001" dx="0em" dy="0.3em" style="text-anchor: end; visibility: inherit; font-family: &quot;Helvetica Neue&quot;, sans-serif; font-size: 12px; font-weight: 200;" fill="rgb(50, 49, 63)" stroke="none" stroke-width="1px">0.3</text><text x="0" y="89" dx="0em" dy="0.3em" style="text-anchor: end; visibility: hidden; font-family: &quot;Helvetica Neue&quot;, sans-serif; font-size: 12px; font-weight: 200;" fill="rgb(50, 49, 63)" stroke="none" stroke-width="1px">0.32</text><text x="0" y="66.74999999999999" dx="0em" dy="0.3em" style="text-anchor: end; visibility: inherit; font-family: &quot;Helvetica Neue&quot;, sans-serif; font-size: 12px; font-weight: 200;" fill="rgb(50, 49, 63)" stroke="none" stroke-width="1px">0.34</text><text x="0" y="44.50000000000003" dx="0em" dy="0.3em" style="text-anchor: end; visibility: hidden; font-family: &quot;Helvetica Neue&quot;, sans-serif; font-size: 12px; font-weight: 200;" fill="rgb(50, 49, 63)" stroke="none" stroke-width="1px">0.36</text><text x="0" y="22.25000000000003" dx="0em" dy="0.3em" style="text-anchor: end; visibility: inherit; font-family: &quot;Helvetica Neue&quot;, sans-serif; font-size: 12px; font-weight: 200;" fill="rgb(50, 49, 63)" stroke="none" stroke-width="1px">0.38</text><text x="0" y="0" dx="0em" dy="0.3em" style="text-anchor: end; visibility: hidden; font-family: &quot;Helvetica Neue&quot;, sans-serif; font-size: 12px; font-weight: 200;" fill="rgb(50, 49, 63)" stroke="none" stroke-width="1px">0.4</text></g><line x1="58" y1="0" x2="58" y2="178" fill="rgb(0, 0, 0)" stroke="rgb(204, 204, 204)" stroke-width="1px"></line></g></g><g transform="translate(58, 0)" clip-path="url(#clip_0)"><clipPath id="clip_0"><rect width="272" height="178"></rect></clipPath><g><g><g><line x1="0" y1="0" x2="0" y2="178" fill="rgb(0, 0, 0)" stroke="rgb(60, 60, 60)" stroke-width="1px" opacity="0.25"></line><line x1="22.666666666666664" y1="0" x2="22.666666666666664" y2="178" fill="rgb(0, 0, 0)" stroke="rgb(60, 60, 60)" stroke-width="1px" opacity="0.25"></line><line x1="45.33333333333333" y1="0" x2="45.33333333333333" y2="178" fill="rgb(0, 0, 0)" stroke="rgb(60, 60, 60)" stroke-width="1px" opacity="0.25"></line><line x1="68" y1="0" x2="68" y2="178" fill="rgb(0, 0, 0)" stroke="rgb(60, 60, 60)" stroke-width="1px" opacity="0.25"></line><line x1="90.66666666666666" y1="0" x2="90.66666666666666" y2="178" fill="rgb(0, 0, 0)" stroke="rgb(60, 60, 60)" stroke-width="1px" opacity="0.25"></line><line x1="113.33333333333334" y1="0" x2="113.33333333333334" y2="178" fill="rgb(0, 0, 0)" stroke="rgb(60, 60, 60)" stroke-width="1px" opacity="0.25"></line><line x1="136" y1="0" x2="136" y2="178" fill="rgb(0, 0, 0)" stroke="rgb(60, 60, 60)" stroke-width="1px" opacity="0.25"></line><line x1="158.66666666666669" y1="0" x2="158.66666666666669" y2="178" fill="rgb(0, 0, 0)" stroke="rgb(60, 60, 60)" stroke-width="1px" opacity="0.25"></line><line x1="181.33333333333331" y1="0" x2="181.33333333333331" y2="178" fill="rgb(0, 0, 0)" stroke="rgb(60, 60, 60)" stroke-width="1px" opacity="0.25"></line><line x1="204" y1="0" x2="204" y2="178" fill="rgb(0, 0, 0)" stroke="rgb(60, 60, 60)" stroke-width="1px" opacity="0.25"></line><line x1="226.66666666666669" y1="0" x2="226.66666666666669" y2="178" fill="rgb(0, 0, 0)" stroke="rgb(60, 60, 60)" stroke-width="1px" opacity="0.25"></line><line x1="249.33333333333331" y1="0" x2="249.33333333333331" y2="178" fill="rgb(0, 0, 0)" stroke="rgb(60, 60, 60)" stroke-width="1px" opacity="0.25"></line><line x1="272" y1="0" x2="272" y2="178" fill="rgb(0, 0, 0)" stroke="rgb(60, 60, 60)" stroke-width="1px" opacity="0.25"></line></g><g><line x1="0" y1="178" x2="272" y2="178" fill="rgb(0, 0, 0)" stroke="rgb(60, 60, 60)" stroke-width="1px" opacity="0.25"></line><line x1="0" y1="155.75" x2="272" y2="155.75" fill="rgb(0, 0, 0)" stroke="rgb(60, 60, 60)" stroke-width="1px" opacity="0.25"></line><line x1="0" y1="133.49999999999997" x2="272" y2="133.49999999999997" fill="rgb(0, 0, 0)" stroke="rgb(60, 60, 60)" stroke-width="1px" opacity="0.25"></line><line x1="0" y1="111.25000000000001" x2="272" y2="111.25000000000001" fill="rgb(0, 0, 0)" stroke="rgb(60, 60, 60)" stroke-width="1px" opacity="0.25"></line><line x1="0" y1="89" x2="272" y2="89" fill="rgb(0, 0, 0)" stroke="rgb(60, 60, 60)" stroke-width="1px" opacity="0.25"></line><line x1="0" y1="66.74999999999999" x2="272" y2="66.74999999999999" fill="rgb(0, 0, 0)" stroke="rgb(60, 60, 60)" stroke-width="1px" opacity="0.25"></line><line x1="0" y1="44.50000000000003" x2="272" y2="44.50000000000003" fill="rgb(0, 0, 0)" stroke="rgb(60, 60, 60)" stroke-width="1px" opacity="0.25"></line><line x1="0" y1="22.25000000000003" x2="272" y2="22.25000000000003" fill="rgb(0, 0, 0)" stroke="rgb(60, 60, 60)" stroke-width="1px" opacity="0.25"></line><line x1="0" y1="0" x2="272" y2="0" fill="rgb(0, 0, 0)" stroke="rgb(60, 60, 60)" stroke-width="1px" opacity="0.25"></line></g></g></g><g><g><line x1="0" y1="444.99999999999994" x2="272" y2="444.99999999999994" fill="rgb(0, 0, 0)" stroke="rgb(153, 153, 153)" stroke-width="1.5px"></line></g></g><g><g><line x1="22.666666666666664" y1="0" x2="22.666666666666664" y2="178" fill="rgb(0, 0, 0)" stroke="rgb(153, 153, 153)" stroke-width="1.5px"></line></g></g><g><g><g><g><g><path stroke="rgb(238, 51, 119)" stroke-width="2px" d="M26.06666666666667,185.64500815357346L27.200000000000003,152.24685835452L28.333333333333336,150.0776704388084L29.46666666666667,157.54918833501375L30.6,174.15531501989204L31.733333333333334,155.8620784745358L32.86666666666667,139.76047608225224L34,143.5362183927993L35.13333333333334,97.20795342376492L36.266666666666666,100.43685797544295L37.400000000000006,102.9012444027822L38.53333333333333,104.79092839261472L39.66666666666667,103.74043833692066L40.8,100.43545473783739L41.93333333333334,87.93419847737542L43.06666666666666,85.6916157319411L44.2,81.47697410631504L45.33333333333333,65.84672962723418L46.46666666666667,58.640861299045085L47.599999999999994,60.43873607507645L48.733333333333334,74.16087567003302L49.86666666666666,77.44670774274654L51,84.92855595566105L52.13333333333334,85.8294089476966L53.266666666666666,74.22632671150727L54.400000000000006,82.41441383850383L55.53333333333333,83.87064175938197L56.66666666666667,82.54502616221058L57.8,88.89096877100039L58.93333333333334,74.15943448355871L60.06666666666666,67.60335033909026L61.2,62.49668991245882L62.33333333333333,68.35465281760133L63.46666666666667,77.83544149235772L64.6,70.46774853405981L65.73333333333333,77.02238645275341L66.86666666666666,72.2933486063838L68,63.69208506691815L69.13333333333333,59.45051269076505L70.26666666666668,65.98109274438556L71.4,61.23368754369773L72.53333333333333,55.0768354131161L73.66666666666666,50.28067945394709L74.80000000000001,78.50687599223512L75.93333333333334,73.44995140878574L77.06666666666666,91.63835262342597L78.19999999999999,73.84483804703872L79.33333333333334,72.27687334888527L80.46666666666667,56.303646285175816L81.6,65.9881821507791L82.73333333333332,48.946146085867895L83.86666666666667,57.79805914455133L85,59.77643886314415L86.13333333333333,46.56583572817499L87.26666666666668,55.94379259123096L88.4,65.70784273588555L89.53333333333333,58.5622810992445L90.66666666666666,60.37176653490347L91.80000000000001,59.322732398396525L92.93333333333334,75.71591065251995L94.06666666666666,63.89994421901963L95.19999999999999,74.36430454820382L96.33333333333334,55.4711678107995L97.46666666666667,77.63279326776647L98.6,80.144947819962L99.73333333333332,87.01916164642469L100.86666666666667,62.870679529243006L102,71.1038839310548L103.13333333333333,60.30717658716564L104.26666666666668,61.731039699336094L105.4,57.92297637284264L106.53333333333333,50.03924970899311L107.66666666666666,63.56682266967613L108.80000000000001,76.56343196915242L109.93333333333334,71.93603995338242L111.06666666666666,75.70717689241492L112.19999999999999,61.43451928625622L113.33333333333334,50.31611902286369L114.46666666666667,56.40662850258593L115.6,41.48213946794468L116.73333333333332,54.44221106938747L117.86666666666667,49.78635624787927L119,43.7008226866007L120.13333333333333,34.042939403870236L121.26666666666668,31.436700967235197L122.4,22.03056593065847L123.53333333333333,12.244564082289088L124.66666666666666,29.207517180936634L125.80000000000001,42.421657643883634L126.93333333333334,30.587847182889647L128.06666666666666,33.66242943857577L129.2,36.05752901567823L130.33333333333334,47.75781686221163L131.46666666666667,51.95508845651648L132.6,47.84888773516616L133.73333333333332,52.026032666498025L134.86666666666667,47.904153274779475L136,66.82083510817219L137.13333333333333,79.09830760100887L138.26666666666665,64.07621013817607L139.39999999999998,72.04299211149907L140.53333333333336,58.580119371894L141.66666666666669,53.00978681832396L142.8,65.88087100059691L143.93333333333334,46.40395173342776L145.06666666666666,43.52455222797215L146.2,53.574627944147636L147.33333333333331,54.027761633946156L148.46666666666664,42.08762484738091L149.60000000000002,47.53800887683988L150.73333333333335,56.7011106736079L151.86666666666667,54.004661697648345L153,37.152384686464046L154.13333333333333,36.317581498391576L155.26666666666665,52.877643056340304L156.39999999999998,58.40205571688932L157.53333333333336,35.66070198963658L158.66666666666669,37.61418333283572L159.8,61.263571178461916L160.93333333333334,57.55881843093037L162.06666666666666,54.67281604060338L163.2,52.4246201785387L164.33333333333331,60.507780877627425L165.46666666666664,64.34593307967151L166.60000000000002,67.33585364506374L167.73333333333335,69.66500176550436L168.86666666666667,54.269034909873085L170,47.192829367154815L171.13333333333333,36.763212611558856L172.26666666666665,55.683419676040955L173.39999999999998,85.17400790181769L174.53333333333336,73.72642598315221L175.66666666666669,64.8087596685118L176.8,55.403274954134446L177.93333333333334,43.15914972381594L179.06666666666666,65.58309999703418L180.2,83.05135725987114L181.33333333333331,64.69700583998498L182.46666666666664,50.39896608389358L183.60000000000002,49.09529106226188L184.73333333333335,45.62110556513824L185.86666666666667,42.91471506287894L187,55.55818744780082L188.13333333333333,50.65570184947306L189.26666666666665,54.21254086146668L190.39999999999998,54.524695796537216L191.53333333333336,57.22648714622969L192.66666666666669,51.955307314549174L193.8,50.3076808809425L194.93333333333334,46.5655572338905L196.06666666666666,21.522817033564166L197.2,19.224902986237737L198.33333333333331,5.141700012461143L199.46666666666664,21.215756085706886L200.60000000000002,43.571951042402276L201.73333333333335,60.98742691366796L202.86666666666667,54.88507939338358L204,47.67272801980957L205.13333333333333,59.26467954124979L206.26666666666665,53.54305919026986L207.39999999999998,73.67216547140173L208.53333333333336,79.51824131604008L209.66666666666669,71.77920646810391L210.8,63.29187566628923L211.93333333333334,68.973372902585L213.06666666666666,88.15100983584124L214.2,71.1282651792116L215.33333333333331,82.45379562624244L216.46666666666664,76.52463325829757L217.60000000000002,66.98856313585009L218.73333333333335,57.10134185519095L219.86666666666667,42.02332118446654L221,30.277543081972283L222.13333333333333,45.71383047467452L223.26666666666665,67.57319630195296L224.39999999999998,79.68439697085795L225.53333333333336,84.20176965411646L226.66666666666669,72.969052388193L227.8,78.9705162242205L228.93333333333334,71.35252862157647L230.06666666666666,82.62849684784469L231.2,56.991722285925405L232.33333333333331,44.39655019528115L233.46666666666664,46.878039067578726L234.60000000000002,41.43524360600756L235.73333333333335,56.864301838170476L236.86666666666667,49.21454230429853L238,50.631254920503295L239.13333333333333,46.81762141070834L240.26666666666665,41.38817825130559L241.39999999999998,61.74489056467611L242.53333333333336,60.39239621533741L243.66666666666669,47.04567518629321L244.8,58.77620538394055L245.93333333333334,18.741791338817222L247.06666666666666,31.810227228938317L248.2,41.99053878734259" style="fill: none;" fill="none"></path></g></g></g></g><g opacity="0.2"><g><g><g><path stroke="rgb(238, 51, 119)" stroke-width="2px" d="M24.93333333333333,211.3750072941184L26.06666666666667,89.00000795722009L27.200000000000003,77.87498541176319L28.333333333333336,144.62498806416988L29.46666666666667,178.00000596791506L30.6,222.4999966844916L31.733333333333334,100.12499734759332L32.86666666666667,89.00000795722009L34,155.75001060962677L35.13333333333334,-55.62498673796651L36.266666666666666,111.24998673796654L37.400000000000006,111.24998673796654L38.53333333333333,111.24998673796654L39.66666666666667,100.12499734759332L40.8,89.00000795722009L41.93333333333334,44.49998408555987L43.06666666666666,77.87498541176319L44.2,66.74999602138998L45.33333333333333,11.125015914440183L46.46666666666667,33.37499469518664L47.599999999999994,66.74999602138998L48.733333333333334,122.37500928342342L49.86666666666666,89.00000795722009L51,111.24998673796654L52.13333333333334,89.00000795722009L53.266666666666666,33.37499469518664L54.400000000000006,111.24998673796654L55.53333333333333,89.00000795722009L56.66666666666667,77.87498541176319L57.8,111.24998673796654L58.93333333333334,22.250005304813413L60.06666666666666,44.49998408555987L61.2,44.49998408555987L62.33333333333333,89.00000795722009L63.46666666666667,111.24998673796654L64.6,44.49998408555987L65.73333333333333,100.12499734759332L66.86666666666666,55.625006631016745L68,33.37499469518664L69.13333333333333,44.49998408555987L70.26666666666668,89.00000795722009L71.4,44.49998408555987L72.53333333333333,33.37499469518664L73.66666666666666,33.37499469518664L74.80000000000001,178.00000596791506L75.93333333333334,55.625006631016745L77.06666666666666,155.75001060962677L78.19999999999999,11.125015914440183L79.33333333333334,66.74999602138998L80.46666666666667,-0.000006631016702840498L81.6,100.12499734759332L82.73333333333332,-11.124996021389933L83.86666666666667,89.00000795722009L85,66.74999602138998L86.13333333333333,-0.000006631016702840498L87.26666666666668,89.00000795722009L88.4,100.12499734759332L89.53333333333333,33.37499469518664L90.66666666666666,66.74999602138998L91.80000000000001,55.625006631016745L92.93333333333334,133.49999867379665L94.06666666666666,22.250005304813413L95.19999999999999,111.24998673796654L96.33333333333334,-11.124996021389933L97.46666666666667,155.75001060962677L98.6,89.00000795722009L99.73333333333332,111.24998673796654L100.86666666666667,-22.249985411763163L102,100.12499734759332L103.13333333333333,22.250005304813413L104.26666666666668,66.74999602138998L105.4,44.49998408555987L106.53333333333333,22.250005304813413L107.66666666666666,111.24998673796654L108.80000000000001,122.37500928342342L109.93333333333334,55.625006631016745L111.06666666666666,89.00000795722009L112.19999999999999,11.125015914440183L113.33333333333334,11.125015914440183L114.46666666666667,77.87498541176319L115.6,-11.124996021389933L116.73333333333332,100.12499734759332L117.86666666666667,33.37499469518664L119,22.250005304813413L120.13333333333333,-0.000006631016702840498L121.26666666666668,22.250005304813413L122.4,-11.124996021389933L123.53333333333333,-22.249985411763163L124.66666666666666,89.00000795722009L125.80000000000001,89.00000795722009L126.93333333333334,-11.124996021389933L128.06666666666666,44.49998408555987L129.2,44.49998408555987L130.33333333333334,89.00000795722009L131.46666666666667,66.74999602138998L132.6,33.37499469518664L133.73333333333332,66.74999602138998L134.86666666666667,33.37499469518664L136,133.49999867379665L137.13333333333333,122.37500928342342L138.26666666666665,11.125015914440183L139.39999999999998,100.12499734759332L140.53333333333336,11.125015914440183L141.66666666666669,33.37499469518664L142.8,111.24998673796654L143.93333333333334,-22.249985411763163L145.06666666666666,33.37499469518664L146.2,89.00000795722009L147.33333333333331,55.625006631016745L148.46666666666664,-0.000006631016702840498L149.60000000000002,66.74999602138998L150.73333333333335,89.00000795722009L151.86666666666667,44.49998408555987L153,-22.249985411763163L154.13333333333333,33.37499469518664L155.26666666666665,111.24998673796654L156.39999999999998,77.87498541176319L157.53333333333336,-44.49999734759328L158.66666666666669,44.49998408555987L159.8,144.62498806416988L160.93333333333334,44.49998408555987L162.06666666666666,44.49998408555987L163.2,44.49998408555987L164.33333333333331,89.00000795722009L165.46666666666664,77.87498541176319L166.60000000000002,77.87498541176319L167.73333333333335,77.87498541176319L168.86666666666667,-0.000006631016702840498L170,22.250005304813413L171.13333333333333,-0.000006631016702840498L172.26666666666665,122.37500928342342L173.39999999999998,189.1249953582883L174.53333333333336,33.37499469518664L175.66666666666669,33.37499469518664L176.8,22.250005304813413L177.93333333333334,-0.000006631016702840498L179.06666666666666,144.62498806416988L180.2,144.62498806416988L181.33333333333331,-0.000006631016702840498L182.46666666666664,-0.000006631016702840498L183.60000000000002,44.49998408555987L184.73333333333335,33.37499469518664L185.86666666666667,33.37499469518664L187,100.12499734759332L188.13333333333333,33.37499469518664L189.26666666666665,66.74999602138998L190.39999999999998,55.625006631016745L191.53333333333336,66.74999602138998L192.66666666666669,33.37499469518664L193.8,44.49998408555987L194.93333333333334,33.37499469518664L196.06666666666666,-66.7500092834234L197.2,11.125015914440183L198.33333333333331,-44.49999734759328L199.46666666666664,77.87498541176319L200.60000000000002,122.37500928342342L201.73333333333335,122.37500928342342L202.86666666666667,33.37499469518664L204,22.250005304813413L205.13333333333333,100.12499734759332L206.26666666666665,33.37499469518664L207.39999999999998,144.62498806416988L208.53333333333336,100.12499734759332L209.66666666666669,44.49998408555987L210.8,33.37499469518664L211.93333333333334,89.00000795722009L213.06666666666666,155.75001060962677L214.2,11.125015914440183L215.33333333333331,122.37500928342342L216.46666666666664,55.625006631016745L217.60000000000002,33.37499469518664L218.73333333333335,22.250005304813413L219.86666666666667,-11.124996021389933L221,-11.124996021389933L222.13333333333333,100.12499734759332L223.26666666666665,144.62498806416988L224.39999999999998,122.37500928342342L225.53333333333336,100.12499734759332L226.66666666666669,33.37499469518664L227.8,100.12499734759332L228.93333333333334,44.49998408555987L230.06666666666666,122.37500928342342L231.2,-33.37500795722005L232.33333333333331,-0.000006631016702840498L233.46666666666664,55.625006631016745L234.60000000000002,22.250005304813413L235.73333333333335,111.24998673796654L236.86666666666667,22.250005304813413L238,55.625006631016745L239.13333333333333,33.37499469518664L240.26666666666665,22.250005304813413L241.39999999999998,133.49999867379665L242.53333333333336,55.625006631016745L243.66666666666669,-0.000006631016702840498L244.8,100.12499734759332L245.93333333333334,-122.37498939037317L247.06666666666666,77.87498541176319L248.2,77.87498541176319" style="fill: none;" fill="none"></path></g></g></g></g></g></g><g transform="translate(58, 178)" clip-path="url(#clip_1)"><clipPath id="clip_1"><rect width="272" height="22"></rect></clipPath><g><g><line x1="0" y1="0" x2="0" y2="5" style="visibility: inherit;" fill="rgb(0, 0, 0)" stroke="rgb(204, 204, 204)" stroke-width="1px"></line><line x1="22.666666666666664" y1="0" x2="22.666666666666664" y2="5" style="visibility: inherit;" fill="rgb(0, 0, 0)" stroke="rgb(204, 204, 204)" stroke-width="1px"></line><line x1="45.33333333333333" y1="0" x2="45.33333333333333" y2="5" style="visibility: inherit;" fill="rgb(0, 0, 0)" stroke="rgb(204, 204, 204)" stroke-width="1px"></line><line x1="68" y1="0" x2="68" y2="5" style="visibility: inherit;" fill="rgb(0, 0, 0)" stroke="rgb(204, 204, 204)" stroke-width="1px"></line><line x1="90.66666666666666" y1="0" x2="90.66666666666666" y2="5" style="visibility: inherit;" fill="rgb(0, 0, 0)" stroke="rgb(204, 204, 204)" stroke-width="1px"></line><line x1="113.33333333333334" y1="0" x2="113.33333333333334" y2="5" style="visibility: inherit;" fill="rgb(0, 0, 0)" stroke="rgb(204, 204, 204)" stroke-width="1px"></line><line x1="136" y1="0" x2="136" y2="5" style="visibility: inherit;" fill="rgb(0, 0, 0)" stroke="rgb(204, 204, 204)" stroke-width="1px"></line><line x1="158.66666666666669" y1="0" x2="158.66666666666669" y2="5" style="visibility: inherit;" fill="rgb(0, 0, 0)" stroke="rgb(204, 204, 204)" stroke-width="1px"></line><line x1="181.33333333333331" y1="0" x2="181.33333333333331" y2="5" style="visibility: inherit;" fill="rgb(0, 0, 0)" stroke="rgb(204, 204, 204)" stroke-width="1px"></line><line x1="204" y1="0" x2="204" y2="5" style="visibility: inherit;" fill="rgb(0, 0, 0)" stroke="rgb(204, 204, 204)" stroke-width="1px"></line><line x1="226.66666666666669" y1="0" x2="226.66666666666669" y2="5" style="visibility: inherit;" fill="rgb(0, 0, 0)" stroke="rgb(204, 204, 204)" stroke-width="1px"></line><line x1="249.33333333333331" y1="0" x2="249.33333333333331" y2="5" style="visibility: inherit;" fill="rgb(0, 0, 0)" stroke="rgb(204, 204, 204)" stroke-width="1px"></line><line x1="272" y1="0" x2="272" y2="5" style="visibility: inherit;" fill="rgb(0, 0, 0)" stroke="rgb(204, 204, 204)" stroke-width="1px"></line></g><g transform="translate(0, 8)"><text x="0" y="0" dx="0em" dy="0.95em" style="text-anchor: middle; visibility: hidden; font-family: &quot;Helvetica Neue&quot;, sans-serif; font-size: 12px; font-weight: 200;" fill="rgb(50, 49, 63)" stroke="none" stroke-width="1px">-20</text><text x="22.666666666666664" y="0" dx="0em" dy="0.95em" style="text-anchor: middle; visibility: inherit; font-family: &quot;Helvetica Neue&quot;, sans-serif; font-size: 12px; font-weight: 200;" fill="rgb(50, 49, 63)" stroke="none" stroke-width="1px">0</text><text x="45.33333333333333" y="0" dx="0em" dy="0.95em" style="text-anchor: middle; visibility: hidden; font-family: &quot;Helvetica Neue&quot;, sans-serif; font-size: 12px; font-weight: 200;" fill="rgb(50, 49, 63)" stroke="none" stroke-width="1px">20</text><text x="68" y="0" dx="0em" dy="0.95em" style="text-anchor: middle; visibility: inherit; font-family: &quot;Helvetica Neue&quot;, sans-serif; font-size: 12px; font-weight: 200;" fill="rgb(50, 49, 63)" stroke="none" stroke-width="1px">40</text><text x="90.66666666666666" y="0" dx="0em" dy="0.95em" style="text-anchor: middle; visibility: hidden; font-family: &quot;Helvetica Neue&quot;, sans-serif; font-size: 12px; font-weight: 200;" fill="rgb(50, 49, 63)" stroke="none" stroke-width="1px">60</text><text x="113.33333333333334" y="0" dx="0em" dy="0.95em" style="text-anchor: middle; visibility: inherit; font-family: &quot;Helvetica Neue&quot;, sans-serif; font-size: 12px; font-weight: 200;" fill="rgb(50, 49, 63)" stroke="none" stroke-width="1px">80</text><text x="136" y="0" dx="0em" dy="0.95em" style="text-anchor: middle; visibility: hidden; font-family: &quot;Helvetica Neue&quot;, sans-serif; font-size: 12px; font-weight: 200;" fill="rgb(50, 49, 63)" stroke="none" stroke-width="1px">100</text><text x="158.66666666666669" y="0" dx="0em" dy="0.95em" style="text-anchor: middle; visibility: inherit; font-family: &quot;Helvetica Neue&quot;, sans-serif; font-size: 12px; font-weight: 200;" fill="rgb(50, 49, 63)" stroke="none" stroke-width="1px">120</text><text x="181.33333333333331" y="0" dx="0em" dy="0.95em" style="text-anchor: middle; visibility: hidden; font-family: &quot;Helvetica Neue&quot;, sans-serif; font-size: 12px; font-weight: 200;" fill="rgb(50, 49, 63)" stroke="none" stroke-width="1px">140</text><text x="204" y="0" dx="0em" dy="0.95em" style="text-anchor: middle; visibility: inherit; font-family: &quot;Helvetica Neue&quot;, sans-serif; font-size: 12px; font-weight: 200;" fill="rgb(50, 49, 63)" stroke="none" stroke-width="1px">160</text><text x="226.66666666666669" y="0" dx="0em" dy="0.95em" style="text-anchor: middle; visibility: hidden; font-family: &quot;Helvetica Neue&quot;, sans-serif; font-size: 12px; font-weight: 200;" fill="rgb(50, 49, 63)" stroke="none" stroke-width="1px">180</text><text x="249.33333333333331" y="0" dx="0em" dy="0.95em" style="text-anchor: middle; visibility: inherit; font-family: &quot;Helvetica Neue&quot;, sans-serif; font-size: 12px; font-weight: 200;" fill="rgb(50, 49, 63)" stroke="none" stroke-width="1px">200</text><text x="272" y="0" dx="0em" dy="0.95em" style="text-anchor: middle; visibility: hidden; font-family: &quot;Helvetica Neue&quot;, sans-serif; font-size: 12px; font-weight: 200;" fill="rgb(50, 49, 63)" stroke="none" stroke-width="1px">220</text></g><line x1="0" y1="0" x2="272" y2="0" fill="rgb(0, 0, 0)" stroke="rgb(204, 204, 204)" stroke-width="1px"></line></g></g></g></g></svg>