<svg viewBox="0 0 330 200" xmlns="http://www.w3.org/2000/svg"><g><g><g><g><g><line x1="58" y1="178" x2="53" y2="178" style="visibility: inherit;" fill="rgb(0, 0, 0)" stroke="rgb(204, 204, 204)" stroke-width="1px"></line><line x1="58" y1="163.16666666666666" x2="53" y2="163.16666666666666" style="visibility: inherit;" fill="rgb(0, 0, 0)" stroke="rgb(204, 204, 204)" stroke-width="1px"></line><line x1="58" y1="148.33333333333331" x2="53" y2="148.33333333333331" style="visibility: inherit;" fill="rgb(0, 0, 0)" stroke="rgb(204, 204, 204)" stroke-width="1px"></line><line x1="58" y1="133.49999999999994" x2="53" y2="133.49999999999994" style="visibility: inherit;" fill="rgb(0, 0, 0)" stroke="rgb(204, 204, 204)" stroke-width="1px"></line><line x1="58" y1="118.66666666666677" x2="53" y2="118.66666666666677" style="visibility: inherit;" fill="rgb(0, 0, 0)" stroke="rgb(204, 204, 204)" stroke-width="1px"></line><line x1="58" y1="103.83333333333343" x2="53" y2="103.83333333333343" style="visibility: inherit;" fill="rgb(0, 0, 0)" stroke="rgb(204, 204, 204)" stroke-width="1px"></line><line x1="58" y1="89.00000000000009" x2="53" y2="89.00000000000009" style="visibility: inherit;" fill="rgb(0, 0, 0)" stroke="rgb(204, 204, 204)" stroke-width="1px"></line><line x1="58" y1="74.16666666666674" x2="53" y2="74.16666666666674" style="visibility: inherit;" fill="rgb(0, 0, 0)" stroke="rgb(204, 204, 204)" stroke-width="1px"></line><line x1="58" y1="59.333333333333385" x2="53" y2="59.333333333333385" style="visibility: inherit;" fill="rgb(0, 0, 0)" stroke="rgb(204, 204, 204)" stroke-width="1px"></line><line x1="58" y1="44.50000000000003" x2="53" y2="44.50000000000003" style="visibility: inherit;" fill="rgb(0, 0, 0)" stroke="rgb(204, 204, 204)" stroke-width="1px"></line><line x1="58" y1="29.666666666666686" x2="53" y2="29.666666666666686" style="visibility: inherit;" fill="rgb(0, 0, 0)" stroke="rgb(204, 204, 204)" stroke-width="1px"></line><line x1="58" y1="14.833333333333343" x2="53" y2="14.833333333333343" style="visibility: inherit;" fill="rgb(0, 0, 0)" stroke="rgb(204, 204, 204)" stroke-width="1px"></line><line x1="58" y1="0" x2="53" y2="0" style="visibility: inherit;" fill="rgb(0, 0, 0)" stroke="rgb(204, 204, 204)" stroke-width="1px"></line></g><g transform="translate(48, 0)"><text x="0" y="178" dx="0em" dy="0.3em" style="text-anchor: end; visibility: hidden; font-family: &quot;Helvetica Neue&quot;, sans-serif; font-size: 12px; font-weight: 200;" fill="rgb(50, 49, 63)" stroke="none" stroke-width="1px">0.53</text><text x="0" y="163.16666666666666" dx="0em" dy="0.3em" style="text-anchor: end; visibility: inherit; font-family: &quot;Helvetica Neue&quot;, sans-serif; font-size: 12px; font-weight: 200;" fill="rgb(50, 49, 63)" stroke="none" stroke-width="1px">0.54</text><text x="0" y="148.33333333333331" dx="0em" dy="0.3em" style="text-anchor: end; visibility: hidden; font-family: &quot;Helvetica Neue&quot;, sans-serif; font-size: 12px; font-weight: 200;" fill="rgb(50, 49, 63)" stroke="none" stroke-width="1px">0.55</text><text x="0" y="133.49999999999994" dx="0em" dy="0.3em" style="text-anchor: end; visibility: inherit; font-family: &quot;Helvetica Neue&quot;, sans-serif; font-size: 12px; font-weight: 200;" fill="rgb(50, 49, 63)" stroke="none" stroke-width="1px">0.56</text><text x="0" y="118.66666666666677" dx="0em" dy="0.3em" style="text-anchor: end; visibility: hidden; font-family: &quot;Helvetica Neue&quot;, sans-serif; font-size: 12px; font-weight: 200;" fill="rgb(50, 49, 63)" stroke="none" stroke-width="1px">0.57</text><text x="0" y="103.83333333333343" dx="0em" dy="0.3em" style="text-anchor: end; visibility: inherit; font-family: &quot;Helvetica Neue&quot;, sans-serif; font-size: 12px; font-weight: 200;" fill="rgb(50, 49, 63)" stroke="none" stroke-width="1px">0.58</text><text x="0" y="89.00000000000009" dx="0em" dy="0.3em" style="text-anchor: end; visibility: hidden; font-family: &quot;Helvetica Neue&quot;, sans-serif; font-size: 12px; font-weight: 200;" fill="rgb(50, 49, 63)" stroke="none" stroke-width="1px">0.59</text><text x="0" y="74.16666666666674" dx="0em" dy="0.3em" style="text-anchor: end; visibility: inherit; font-family: &quot;Helvetica Neue&quot;, sans-serif; font-size: 12px; font-weight: 200;" fill="rgb(50, 49, 63)" stroke="none" stroke-width="1px">0.6</text><text x="0" y="59.333333333333385" dx="0em" dy="0.3em" style="text-anchor: end; visibility: hidden; font-family: &quot;Helvetica Neue&quot;, sans-serif; font-size: 12px; font-weight: 200;" fill="rgb(50, 49, 63)" stroke="none" stroke-width="1px">0.61</text><text x="0" y="44.50000000000003" dx="0em" dy="0.3em" style="text-anchor: end; visibility: inherit; font-family: &quot;Helvetica Neue&quot;, sans-serif; font-size: 12px; font-weight: 200;" fill="rgb(50, 49, 63)" stroke="none" stroke-width="1px">0.62</text><text x="0" y="29.666666666666686" dx="0em" dy="0.3em" style="text-anchor: end; visibility: hidden; font-family: &quot;Helvetica Neue&quot;, sans-serif; font-size: 12px; font-weight: 200;" fill="rgb(50, 49, 63)" stroke="none" stroke-width="1px">0.63</text><text x="0" y="14.833333333333343" dx="0em" dy="0.3em" style="text-anchor: end; visibility: inherit; font-family: &quot;Helvetica Neue&quot;, sans-serif; font-size: 12px; font-weight: 200;" fill="rgb(50, 49, 63)" stroke="none" stroke-width="1px">0.64</text><text x="0" y="0" dx="0em" dy="0.3em" style="text-anchor: end; visibility: hidden; font-family: &quot;Helvetica Neue&quot;, sans-serif; font-size: 12px; font-weight: 200;" fill="rgb(50, 49, 63)" stroke="none" stroke-width="1px">0.65</text></g><line x1="58" y1="0" x2="58" y2="178" fill="rgb(0, 0, 0)" stroke="rgb(204, 204, 204)" stroke-width="1px"></line></g></g><g transform="translate(58, 0)" clip-path="url(#clip_0)"><clipPath id="clip_0"><rect width="272" height="178"></rect></clipPath><g><g><g><line x1="0" y1="0" x2="0" y2="178" fill="rgb(0, 0, 0)" stroke="rgb(60, 60, 60)" stroke-width="1px" opacity="0.25"></line><line x1="22.666666666666664" y1="0" x2="22.666666666666664" y2="178" fill="rgb(0, 0, 0)" stroke="rgb(60, 60, 60)" stroke-width="1px" opacity="0.25"></line><line x1="45.33333333333333" y1="0" x2="45.33333333333333" y2="178" fill="rgb(0, 0, 0)" stroke="rgb(60, 60, 60)" stroke-width="1px" opacity="0.25"></line><line x1="68" y1="0" x2="68" y2="178" fill="rgb(0, 0, 0)" stroke="rgb(60, 60, 60)" stroke-width="1px" opacity="0.25"></line><line x1="90.66666666666666" y1="0" x2="90.66666666666666" y2="178" fill="rgb(0, 0, 0)" stroke="rgb(60, 60, 60)" stroke-width="1px" opacity="0.25"></line><line x1="113.33333333333334" y1="0" x2="113.33333333333334" y2="178" fill="rgb(0, 0, 0)" stroke="rgb(60, 60, 60)" stroke-width="1px" opacity="0.25"></line><line x1="136" y1="0" x2="136" y2="178" fill="rgb(0, 0, 0)" stroke="rgb(60, 60, 60)" stroke-width="1px" opacity="0.25"></line><line x1="158.66666666666669" y1="0" x2="158.66666666666669" y2="178" fill="rgb(0, 0, 0)" stroke="rgb(60, 60, 60)" stroke-width="1px" opacity="0.25"></line><line x1="181.33333333333331" y1="0" x2="181.33333333333331" y2="178" fill="rgb(0, 0, 0)" stroke="rgb(60, 60, 60)" stroke-width="1px" opacity="0.25"></line><line x1="204" y1="0" x2="204" y2="178" fill="rgb(0, 0, 0)" stroke="rgb(60, 60, 60)" stroke-width="1px" opacity="0.25"></line><line x1="226.66666666666669" y1="0" x2="226.66666666666669" y2="178" fill="rgb(0, 0, 0)" stroke="rgb(60, 60, 60)" stroke-width="1px" opacity="0.25"></line><line x1="249.33333333333331" y1="0" x2="249.33333333333331" y2="178" fill="rgb(0, 0, 0)" stroke="rgb(60, 60, 60)" stroke-width="1px" opacity="0.25"></line><line x1="272" y1="0" x2="272" y2="178" fill="rgb(0, 0, 0)" stroke="rgb(60, 60, 60)" stroke-width="1px" opacity="0.25"></line></g><g><line x1="0" y1="178" x2="272" y2="178" fill="rgb(0, 0, 0)" stroke="rgb(60, 60, 60)" stroke-width="1px" opacity="0.25"></line><line x1="0" y1="163.16666666666666" x2="272" y2="163.16666666666666" fill="rgb(0, 0, 0)" stroke="rgb(60, 60, 60)" stroke-width="1px" opacity="0.25"></line><line x1="0" y1="148.33333333333331" x2="272" y2="148.33333333333331" fill="rgb(0, 0, 0)" stroke="rgb(60, 60, 60)" stroke-width="1px" opacity="0.25"></line><line x1="0" y1="133.49999999999994" x2="272" y2="133.49999999999994" fill="rgb(0, 0, 0)" stroke="rgb(60, 60, 60)" stroke-width="1px" opacity="0.25"></line><line x1="0" y1="118.66666666666677" x2="272" y2="118.66666666666677" fill="rgb(0, 0, 0)" stroke="rgb(60, 60, 60)" stroke-width="1px" opacity="0.25"></line><line x1="0" y1="103.83333333333343" x2="272" y2="103.83333333333343" fill="rgb(0, 0, 0)" stroke="rgb(60, 60, 60)" stroke-width="1px" opacity="0.25"></line><line x1="0" y1="89.00000000000009" x2="272" y2="89.00000000000009" fill="rgb(0, 0, 0)" stroke="rgb(60, 60, 60)" stroke-width="1px" opacity="0.25"></line><line x1="0" y1="74.16666666666674" x2="272" y2="74.16666666666674" fill="rgb(0, 0, 0)" stroke="rgb(60, 60, 60)" stroke-width="1px" opacity="0.25"></line><line x1="0" y1="59.333333333333385" x2="272" y2="59.333333333333385" fill="rgb(0, 0, 0)" stroke="rgb(60, 60, 60)" stroke-width="1px" opacity="0.25"></line><line x1="0" y1="44.50000000000003" x2="272" y2="44.50000000000003" fill="rgb(0, 0, 0)" stroke="rgb(60, 60, 60)" stroke-width="1px" opacity="0.25"></line><line x1="0" y1="29.666666666666686" x2="272" y2="29.666666666666686" fill="rgb(0, 0, 0)" stroke="rgb(60, 60, 60)" stroke-width="1px" opacity="0.25"></line><line x1="0" y1="14.833333333333343" x2="272" y2="14.833333333333343" fill="rgb(0, 0, 0)" stroke="rgb(60, 60, 60)" stroke-width="1px" opacity="0.25"></line><line x1="0" y1="0" x2="272" y2="0" fill="rgb(0, 0, 0)" stroke="rgb(60, 60, 60)" stroke-width="1px" opacity="0.25"></line></g></g></g><g><g><line x1="0" y1="964.1666666666667" x2="272" y2="964.1666666666667" fill="rgb(0, 0, 0)" stroke="rgb(153, 153, 153)" stroke-width="1.5px"></line></g></g><g><g><line x1="22.666666666666664" y1="0" x2="22.666666666666664" y2="178" fill="rgb(0, 0, 0)" stroke="rgb(153, 153, 153)" stroke-width="1.5px"></line></g></g><g><g><g><g><g><path stroke="rgb(238, 51, 119)" stroke-width="2px" d="M30.6,210.2616928403918L31.733333333333334,161.97043957588707L32.86666666666667,105.10433476273484L34,104.80420842734753L35.13333333333334,87.32594696653034L36.266666666666666,108.17606126533695L37.400000000000006,120.70879125679197L38.53333333333333,126.96142421370615L39.66666666666667,128.43352164946435L40.8,119.59205566929208L41.93333333333334,112.75491571725468L43.06666666666666,100.8452001468132L44.2,111.4116348753809L45.33333333333333,73.47686219827449L46.46666666666667,80.21333355567111L47.599999999999994,101.89360689570182L48.733333333333334,122.04154193431798L49.86666666666666,127.86333472203734L51,138.96034211835928L52.13333333333334,147.598299984032L53.266666666666666,118.23027439692835L54.400000000000006,118.32678848538319L55.53333333333333,111.84196254528989L56.66666666666667,116.63046707280427L57.8,130.19773194218985L58.93333333333334,140.76482670594936L60.06666666666666,135.88013312081011L61.2,141.91141431897756L62.33333333333333,113.8236647431788L63.46666666666667,101.78012828188157L64.6,128.46123656638417L65.73333333333333,123.01815493939483L66.86666666666666,122.05643426481333L68,118.02899052851178L69.13333333333333,114.8916684356677L70.26666666666668,92.77830159296761L71.4,78.8303962472567L72.53333333333333,94.19074354485522L73.66666666666666,79.93077795355319L74.80000000000001,95.04785949049635L75.93333333333334,80.59852756316774L77.06666666666666,52.95161666485191L78.19999999999999,60.91834805061302L79.33333333333334,50.7335345398527L80.46666666666667,75.58130662181165L81.6,71.99049342825846L82.73333333333332,79.02777630031242L83.86666666666667,55.006272922381285L85,75.63156676326014L86.13333333333333,114.64585299550544L87.26666666666668,92.58727954816392L88.4,88.51631466226279L89.53333333333333,68.95421086102782L90.66666666666666,73.384339930091L91.80000000000001,63.72273388076685L92.93333333333334,88.97802278064621L94.06666666666666,72.5920492278137L95.19999999999999,108.99987313319336L96.33333333333334,84.91090731430788L97.46666666666667,75.98009475174574L98.6,82.13566620861525L99.73333333333332,83.65269262362816L100.86666666666667,68.44361852112931L102,66.4302407650767L103.13333333333333,55.02732873522267L104.26666666666668,29.753622894223582L105.4,29.734407130904316L106.53333333333333,69.05743990298542L107.66666666666666,60.3520805311788L108.80000000000001,63.40509626494986L109.93333333333334,98.56507011228638L111.06666666666666,76.78219737440291L112.19999999999999,66.36966662923952L113.33333333333334,64.81463227884092L114.46666666666667,20.9870953629613L115.6,45.852446530899925L116.73333333333332,22.606389944470948L117.86666666666667,73.3392146477851L119,53.85307293746264L120.13333333333333,38.673368548723204L121.26666666666668,36.682888995372736L122.4,41.688632505719426L123.53333333333333,32.47545253611881L124.66666666666666,41.68920304445405L125.80000000000001,39.03222406783556L126.93333333333334,56.631438228345104L128.06666666666666,57.22855235713064L129.2,74.08454150546622L130.33333333333334,64.26819272886335L131.46666666666667,79.56842135466982L132.6,78.37462575283459L133.73333333333332,90.55733268010513L134.86666666666667,80.3786605945052L136,69.17131149948034L137.13333333333333,109.6132885088696L138.26666666666665,105.05776034571299L139.39999999999998,94.95265728646898L140.53333333333336,103.47161924461831L141.66666666666669,106.82972706962923L142.8,116.00202014605125L143.93333333333334,103.47823567096142L145.06666666666666,74.05320678327062L146.2,83.91278376224017L147.33333333333331,94.87155776921941L148.46666666666664,80.46127839869666L149.60000000000002,65.95750722869838L150.73333333333335,41.546395786417946L151.86666666666667,61.8681415360506L153,38.36077991184979L154.13333333333333,6.935871505747826L155.26666666666665,41.46287020213387L156.39999999999998,32.29958370321958L157.53333333333336,8.770546279351635L158.66666666666669,16.666753988464023L159.8,45.76506411580269L160.93333333333334,35.65099276196821L162.06666666666666,60.55378612036158L163.2,89.78757230703589L164.33333333333331,83.05718080439243L165.46666666666664,64.70155166237964L166.60000000000002,76.62784442305468L167.73333333333335,56.41491554155864L168.86666666666667,70.17255488493525L170,64.4989186922129L171.13333333333333,66.63548317880883L172.26666666666665,58.465376292776995L173.39999999999998,52.10086302855839L174.53333333333336,66.81190797730785L175.66666666666669,91.38448569323306L176.8,94.13568649272607L177.93333333333334,79.88803467431856L179.06666666666666,88.45811468935497L180.2,85.2996968605825L181.33333333333331,76.28296229124209L182.46666666666664,75.81525314245256L183.60000000000002,75.45090771554548L184.73333333333335,88.27975632883428L185.86666666666667,117.94243018016192L187,95.15532446646776L188.13333333333333,106.9076605181658L189.26666666666665,112.78456676207533L190.39999999999998,71.46834808220248L191.53333333333336,72.06466867361088L192.66666666666669,46.30387455201543L193.8,42.6270531725051L194.93333333333334,52.875483018715755L196.06666666666666,54.30266324879122L197.2,52.13627310765678L198.33333333333331,43.89232810698641L199.46666666666664,47.304785572554096L200.60000000000002,63.07576363908049L201.73333333333335,58.97051831169199L202.86666666666667,52.49436866129295L204,47.449448083632205L205.13333333333333,30.406781252785322L206.26666666666665,49.91221827398073L207.39999999999998,51.99428001264266L208.53333333333336,50.33804256669691L209.66666666666669,32.656996355092616L210.8,54.94329937904142L211.93333333333334,62.46983881360745L213.06666666666666,61.77666641301185L214.2,80.90568589452364L215.33333333333331,79.41635482940893L216.46666666666664,52.03083806738209L217.60000000000002,96.26085970491522L218.73333333333335,58.59638028467491L219.86666666666667,65.31558883909601L221,67.27166922323084L222.13333333333333,95.02080324417022L223.26666666666665,74.02121354296703L224.39999999999998,54.384350085970425L225.53333333333336,32.530906372243436L226.66666666666669,35.17607450082596L227.8,50.349334173840916L228.93333333333334,35.943956057421104L230.06666666666666,50.9475139064286L231.2,42.96628468922967L232.33333333333331,43.305234209758254L233.46666666666664,53.403786046736L234.60000000000002,77.66137562955817L235.73333333333335,70.3327100522742L236.86666666666667,61.34551602720657L238,83.84798328434475L239.13333333333333,71.87391387498948L240.26666666666665,88.77144166740422L241.39999999999998,98.65645227733214L242.53333333333336,93.2442018416167L243.66666666666669,59.52456734952865L244.8,66.03864656261707L245.93333333333334,84.22576843106611L247.06666666666666,62.33369834379961L248.2,64.94877652739493" style="fill: none;" fill="none"></path></g></g></g></g><g opacity="0.2"><g><g><g><path stroke="rgb(238, 51, 119)" stroke-width="2px" d="M27.200000000000003,281.8333209554355L28.333333333333336,163.1666348377864L29.46666666666667,118.66667727629347L30.6,163.1666348377864L31.733333333333334,14.833354552586911L32.86666666666667,-74.16664898395535L34,103.83335808912916L35.13333333333334,29.666673739751218L36.266666666666666,178.0000424385071L37.400000000000006,163.1666348377864L38.53333333333333,148.3333156506221L39.66666666666667,133.49999646345776L40.8,89.00003890196486L41.93333333333334,89.00003890196486L43.06666666666666,59.33331211407982L44.2,148.3333156506221L45.33333333333333,-59.33332979679105L46.46666666666667,103.83335808912916L47.599999999999994,178.0000424385071L48.733333333333334,192.83336162567142L49.86666666666666,148.3333156506221L51,178.0000424385071L52.13333333333334,178.0000424385071L53.266666666666666,14.833354552586911L54.400000000000006,118.66667727629347L55.53333333333333,89.00003890196486L56.66666666666667,133.49999646345776L57.8,178.0000424385071L58.93333333333334,178.0000424385071L60.06666666666666,118.66667727629347L61.2,163.1666348377864L62.33333333333333,14.833354552586911L63.46666666666667,59.33331211407982L64.6,222.50000000000006L65.73333333333333,103.83335808912916L66.86666666666666,118.66667727629347L68,103.83335808912916L69.13333333333333,103.83335808912916L70.26666666666668,14.833354552586911L71.4,29.666673739751218L72.53333333333333,148.3333156506221L73.66666666666666,29.666673739751218L74.80000000000001,148.3333156506221L75.93333333333334,29.666673739751218L77.06666666666666,-44.50001060962674L78.19999999999999,89.00003890196486L79.33333333333334,14.833354552586911L80.46666666666667,163.1666348377864L81.6,59.33331211407982L82.73333333333332,103.83335808912916L83.86666666666667,-29.666691422462435L85,148.3333156506221L86.13333333333333,252.16668258110687L87.26666666666668,14.833354552586911L88.4,74.16663130124412L89.53333333333333,0.000035365422604627383L90.66666666666666,89.00003890196486L91.80000000000001,29.666673739751218L92.93333333333334,178.0000424385071L94.06666666666666,14.833354552586911L95.19999999999999,237.33331918716436L96.33333333333334,0.000035365422604627383L97.46666666666667,44.499992926915525L98.6,103.83335808912916L99.73333333333332,89.00003890196486L100.86666666666667,14.833354552586911L102,59.33331211407982L103.13333333333333,14.833354552586911L104.26666666666668,-59.33332979679105L105.4,29.666673739751218L106.53333333333333,207.66668081283572L107.66666666666666,29.666673739751218L108.80000000000001,74.16663130124412L109.93333333333334,222.50000000000006L111.06666666666666,0.000035365422604627383L112.19999999999999,29.666673739751218L113.33333333333334,59.33331211407982L114.46666666666667,-133.500014146169L115.6,133.49999646345776L116.73333333333332,-59.33332979679105L120.13333333333333,-14.833372235298128L121.26666666666668,29.666673739751218L122.4,59.33331211407982L123.53333333333333,0.000035365422604627383L124.66666666666666,74.16663130124412L125.80000000000001,29.666673739751218L126.93333333333334,118.66667727629347L128.06666666666666,59.33331211407982L129.2,133.49999646345776L130.33333333333334,29.666673739751218L131.46666666666667,133.49999646345776L132.6,74.16663130124412L133.73333333333332,133.49999646345776L134.86666666666667,44.499992926915525L136,29.666673739751218L137.13333333333333,252.16668258110687L138.26666666666665,89.00003890196486L139.39999999999998,59.33331211407982L140.53333333333336,133.49999646345776L141.66666666666669,118.66667727629347L142.8,148.3333156506221L143.93333333333334,59.33331211407982L145.06666666666666,-29.666691422462435L146.2,118.66667727629347L147.33333333333331,133.49999646345776L148.46666666666664,29.666673739751218L149.60000000000002,14.833354552586911L150.73333333333335,-44.50001060962674L151.86666666666667,133.49999646345776L153,-44.50001060962674L154.13333333333333,-103.8333757718404L155.26666666666665,163.1666348377864L156.39999999999998,0.000035365422604627383L157.53333333333336,-74.16664898395535L158.66666666666669,44.499992926915525L159.8,148.3333156506221L160.93333333333334,0.000035365422604627383L162.06666666666666,148.3333156506221L163.2,192.83336162567142L164.33333333333331,59.33331211407982L165.46666666666664,0.000035365422604627383L166.60000000000002,118.66667727629347L167.73333333333335,-14.833372235298128L168.86666666666667,118.66667727629347L170,44.499992926915525L171.13333333333333,74.16663130124412L172.26666666666665,29.666673739751218L173.39999999999998,29.666673739751218L174.53333333333336,118.66667727629347L175.66666666666669,178.0000424385071L176.8,103.83335808912916L177.93333333333334,29.666673739751218L179.06666666666666,118.66667727629347L180.2,74.16663130124412L181.33333333333331,44.499992926915525L182.46666666666664,74.16663130124412L183.60000000000002,74.16663130124412L184.73333333333335,133.49999646345776L185.86666666666667,222.50000000000006L187,14.833354552586911L188.13333333333333,148.3333156506221L189.26666666666665,133.49999646345776L190.39999999999998,-74.16664898395535L191.53333333333336,74.16663130124412L192.66666666666669,-44.50001060962674L193.8,29.666673739751218L194.93333333333334,89.00003890196486L196.06666666666666,59.33331211407982L197.2,44.499992926915525L198.33333333333331,14.833354552586911L199.46666666666664,59.33331211407982L200.60000000000002,118.66667727629347L201.73333333333335,44.499992926915525L202.86666666666667,29.666673739751218L204,29.666673739751218L205.13333333333333,-29.666691422462435L206.26666666666665,118.66667727629347L207.39999999999998,59.33331211407982L208.53333333333336,44.499992926915525L209.66666666666669,-29.666691422462435L210.8,133.49999646345776L211.93333333333334,89.00003890196486L213.06666666666666,59.33331211407982L214.2,148.3333156506221L215.33333333333331,74.16663130124412L216.46666666666664,-44.50001060962674L218.73333333333335,-74.16664898395535L219.86666666666667,89.00003890196486L221,74.16663130124412L222.13333333333333,192.83336162567142L223.26666666666665,0.000035365422604627383L224.39999999999998,-14.833372235298128L225.53333333333336,-44.50001060962674L226.66666666666669,44.499992926915525L227.8,103.83335808912916L228.93333333333334,-14.833372235298128L230.06666666666666,103.83335808912916L231.2,14.833354552586911L232.33333333333331,44.499992926915525L233.46666666666664,89.00003890196486L234.60000000000002,163.1666348377864L235.73333333333335,44.499992926915525L236.86666666666667,29.666673739751218L238,163.1666348377864L239.13333333333333,29.666673739751218L240.26666666666665,148.3333156506221L241.39999999999998,133.49999646345776L242.53333333333336,74.16663130124412L243.66666666666669,-59.33332979679105L244.8,89.00003890196486L245.93333333333334,148.3333156506221L247.06666666666666,-14.833372235298128L248.2,74.16663130124412" style="fill: none;" fill="none"></path></g></g></g></g></g></g><g transform="translate(58, 178)" clip-path="url(#clip_1)"><clipPath id="clip_1"><rect width="272" height="22"></rect></clipPath><g><g><line x1="0" y1="0" x2="0" y2="5" style="visibility: inherit;" fill="rgb(0, 0, 0)" stroke="rgb(204, 204, 204)" stroke-width="1px"></line><line x1="22.666666666666664" y1="0" x2="22.666666666666664" y2="5" style="visibility: inherit;" fill="rgb(0, 0, 0)" stroke="rgb(204, 204, 204)" stroke-width="1px"></line><line x1="45.33333333333333" y1="0" x2="45.33333333333333" y2="5" style="visibility: inherit;" fill="rgb(0, 0, 0)" stroke="rgb(204, 204, 204)" stroke-width="1px"></line><line x1="68" y1="0" x2="68" y2="5" style="visibility: inherit;" fill="rgb(0, 0, 0)" stroke="rgb(204, 204, 204)" stroke-width="1px"></line><line x1="90.66666666666666" y1="0" x2="90.66666666666666" y2="5" style="visibility: inherit;" fill="rgb(0, 0, 0)" stroke="rgb(204, 204, 204)" stroke-width="1px"></line><line x1="113.33333333333334" y1="0" x2="113.33333333333334" y2="5" style="visibility: inherit;" fill="rgb(0, 0, 0)" stroke="rgb(204, 204, 204)" stroke-width="1px"></line><line x1="136" y1="0" x2="136" y2="5" style="visibility: inherit;" fill="rgb(0, 0, 0)" stroke="rgb(204, 204, 204)" stroke-width="1px"></line><line x1="158.66666666666669" y1="0" x2="158.66666666666669" y2="5" style="visibility: inherit;" fill="rgb(0, 0, 0)" stroke="rgb(204, 204, 204)" stroke-width="1px"></line><line x1="181.33333333333331" y1="0" x2="181.33333333333331" y2="5" style="visibility: inherit;" fill="rgb(0, 0, 0)" stroke="rgb(204, 204, 204)" stroke-width="1px"></line><line x1="204" y1="0" x2="204" y2="5" style="visibility: inherit;" fill="rgb(0, 0, 0)" stroke="rgb(204, 204, 204)" stroke-width="1px"></line><line x1="226.66666666666669" y1="0" x2="226.66666666666669" y2="5" style="visibility: inherit;" fill="rgb(0, 0, 0)" stroke="rgb(204, 204, 204)" stroke-width="1px"></line><line x1="249.33333333333331" y1="0" x2="249.33333333333331" y2="5" style="visibility: inherit;" fill="rgb(0, 0, 0)" stroke="rgb(204, 204, 204)" stroke-width="1px"></line><line x1="272" y1="0" x2="272" y2="5" style="visibility: inherit;" fill="rgb(0, 0, 0)" stroke="rgb(204, 204, 204)" stroke-width="1px"></line></g><g transform="translate(0, 8)"><text x="0" y="0" dx="0em" dy="0.95em" style="text-anchor: middle; visibility: hidden; font-family: &quot;Helvetica Neue&quot;, sans-serif; font-size: 12px; font-weight: 200;" fill="rgb(50, 49, 63)" stroke="none" stroke-width="1px">-20</text><text x="22.666666666666664" y="0" dx="0em" dy="0.95em" style="text-anchor: middle; visibility: inherit; font-family: &quot;Helvetica Neue&quot;, sans-serif; font-size: 12px; font-weight: 200;" fill="rgb(50, 49, 63)" stroke="none" stroke-width="1px">0</text><text x="45.33333333333333" y="0" dx="0em" dy="0.95em" style="text-anchor: middle; visibility: hidden; font-family: &quot;Helvetica Neue&quot;, sans-serif; font-size: 12px; font-weight: 200;" fill="rgb(50, 49, 63)" stroke="none" stroke-width="1px">20</text><text x="68" y="0" dx="0em" dy="0.95em" style="text-anchor: middle; visibility: inherit; font-family: &quot;Helvetica Neue&quot;, sans-serif; font-size: 12px; font-weight: 200;" fill="rgb(50, 49, 63)" stroke="none" stroke-width="1px">40</text><text x="90.66666666666666" y="0" dx="0em" dy="0.95em" style="text-anchor: middle; visibility: hidden; font-family: &quot;Helvetica Neue&quot;, sans-serif; font-size: 12px; font-weight: 200;" fill="rgb(50, 49, 63)" stroke="none" stroke-width="1px">60</text><text x="113.33333333333334" y="0" dx="0em" dy="0.95em" style="text-anchor: middle; visibility: inherit; font-family: &quot;Helvetica Neue&quot;, sans-serif; font-size: 12px; font-weight: 200;" fill="rgb(50, 49, 63)" stroke="none" stroke-width="1px">80</text><text x="136" y="0" dx="0em" dy="0.95em" style="text-anchor: middle; visibility: hidden; font-family: &quot;Helvetica Neue&quot;, sans-serif; font-size: 12px; font-weight: 200;" fill="rgb(50, 49, 63)" stroke="none" stroke-width="1px">100</text><text x="158.66666666666669" y="0" dx="0em" dy="0.95em" style="text-anchor: middle; visibility: inherit; font-family: &quot;Helvetica Neue&quot;, sans-serif; font-size: 12px; font-weight: 200;" fill="rgb(50, 49, 63)" stroke="none" stroke-width="1px">120</text><text x="181.33333333333331" y="0" dx="0em" dy="0.95em" style="text-anchor: middle; visibility: hidden; font-family: &quot;Helvetica Neue&quot;, sans-serif; font-size: 12px; font-weight: 200;" fill="rgb(50, 49, 63)" stroke="none" stroke-width="1px">140</text><text x="204" y="0" dx="0em" dy="0.95em" style="text-anchor: middle; visibility: inherit; font-family: &quot;Helvetica Neue&quot;, sans-serif; font-size: 12px; font-weight: 200;" fill="rgb(50, 49, 63)" stroke="none" stroke-width="1px">160</text><text x="226.66666666666669" y="0" dx="0em" dy="0.95em" style="text-anchor: middle; visibility: hidden; font-family: &quot;Helvetica Neue&quot;, sans-serif; font-size: 12px; font-weight: 200;" fill="rgb(50, 49, 63)" stroke="none" stroke-width="1px">180</text><text x="249.33333333333331" y="0" dx="0em" dy="0.95em" style="text-anchor: middle; visibility: inherit; font-family: &quot;Helvetica Neue&quot;, sans-serif; font-size: 12px; font-weight: 200;" fill="rgb(50, 49, 63)" stroke="none" stroke-width="1px">200</text><text x="272" y="0" dx="0em" dy="0.95em" style="text-anchor: middle; visibility: hidden; font-family: &quot;Helvetica Neue&quot;, sans-serif; font-size: 12px; font-weight: 200;" fill="rgb(50, 49, 63)" stroke="none" stroke-width="1px">220</text></g><line x1="0" y1="0" x2="272" y2="0" fill="rgb(0, 0, 0)" stroke="rgb(204, 204, 204)" stroke-width="1px"></line></g></g></g></g></svg>