<svg viewBox="0 0 330 200" xmlns="http://www.w3.org/2000/svg"><g><g><g><g><g><line x1="58" y1="178" x2="53" y2="178" style="visibility: inherit;" fill="rgb(0, 0, 0)" stroke="rgb(204, 204, 204)" stroke-width="1px"></line><line x1="58" y1="161.8181818181818" x2="53" y2="161.8181818181818" style="visibility: inherit;" fill="rgb(0, 0, 0)" stroke="rgb(204, 204, 204)" stroke-width="1px"></line><line x1="58" y1="145.63636363636363" x2="53" y2="145.63636363636363" style="visibility: inherit;" fill="rgb(0, 0, 0)" stroke="rgb(204, 204, 204)" stroke-width="1px"></line><line x1="58" y1="129.45454545454547" x2="53" y2="129.45454545454547" style="visibility: inherit;" fill="rgb(0, 0, 0)" stroke="rgb(204, 204, 204)" stroke-width="1px"></line><line x1="58" y1="113.27272727272727" x2="53" y2="113.27272727272727" style="visibility: inherit;" fill="rgb(0, 0, 0)" stroke="rgb(204, 204, 204)" stroke-width="1px"></line><line x1="58" y1="97.09090909090908" x2="53" y2="97.09090909090908" style="visibility: inherit;" fill="rgb(0, 0, 0)" stroke="rgb(204, 204, 204)" stroke-width="1px"></line><line x1="58" y1="80.90909090909092" x2="53" y2="80.90909090909092" style="visibility: inherit;" fill="rgb(0, 0, 0)" stroke="rgb(204, 204, 204)" stroke-width="1px"></line><line x1="58" y1="64.72727272727273" x2="53" y2="64.72727272727273" style="visibility: inherit;" fill="rgb(0, 0, 0)" stroke="rgb(204, 204, 204)" stroke-width="1px"></line><line x1="58" y1="48.54545454545453" x2="53" y2="48.54545454545453" style="visibility: inherit;" fill="rgb(0, 0, 0)" stroke="rgb(204, 204, 204)" stroke-width="1px"></line><line x1="58" y1="32.3636363636364" x2="53" y2="32.3636363636364" style="visibility: inherit;" fill="rgb(0, 0, 0)" stroke="rgb(204, 204, 204)" stroke-width="1px"></line><line x1="58" y1="16.181818181818187" x2="53" y2="16.181818181818187" style="visibility: inherit;" fill="rgb(0, 0, 0)" stroke="rgb(204, 204, 204)" stroke-width="1px"></line><line x1="58" y1="0" x2="53" y2="0" style="visibility: inherit;" fill="rgb(0, 0, 0)" stroke="rgb(204, 204, 204)" stroke-width="1px"></line></g><g transform="translate(48, 0)"><text x="0" y="178" dx="0em" dy="0.3em" style="text-anchor: end; visibility: hidden; font-family: &quot;Helvetica Neue&quot;, sans-serif; font-size: 12px; font-weight: 200;" fill="rgb(50, 49, 63)" stroke="none" stroke-width="1px">0.15</text><text x="0" y="161.8181818181818" dx="0em" dy="0.3em" style="text-anchor: end; visibility: inherit; font-family: &quot;Helvetica Neue&quot;, sans-serif; font-size: 12px; font-weight: 200;" fill="rgb(50, 49, 63)" stroke="none" stroke-width="1px">0.16</text><text x="0" y="145.63636363636363" dx="0em" dy="0.3em" style="text-anchor: end; visibility: hidden; font-family: &quot;Helvetica Neue&quot;, sans-serif; font-size: 12px; font-weight: 200;" fill="rgb(50, 49, 63)" stroke="none" stroke-width="1px">0.17</text><text x="0" y="129.45454545454547" dx="0em" dy="0.3em" style="text-anchor: end; visibility: inherit; font-family: &quot;Helvetica Neue&quot;, sans-serif; font-size: 12px; font-weight: 200;" fill="rgb(50, 49, 63)" stroke="none" stroke-width="1px">0.18</text><text x="0" y="113.27272727272727" dx="0em" dy="0.3em" style="text-anchor: end; visibility: hidden; font-family: &quot;Helvetica Neue&quot;, sans-serif; font-size: 12px; font-weight: 200;" fill="rgb(50, 49, 63)" stroke="none" stroke-width="1px">0.19</text><text x="0" y="97.09090909090908" dx="0em" dy="0.3em" style="text-anchor: end; visibility: inherit; font-family: &quot;Helvetica Neue&quot;, sans-serif; font-size: 12px; font-weight: 200;" fill="rgb(50, 49, 63)" stroke="none" stroke-width="1px">0.2</text><text x="0" y="80.90909090909092" dx="0em" dy="0.3em" style="text-anchor: end; visibility: hidden; font-family: &quot;Helvetica Neue&quot;, sans-serif; font-size: 12px; font-weight: 200;" fill="rgb(50, 49, 63)" stroke="none" stroke-width="1px">0.21</text><text x="0" y="64.72727272727273" dx="0em" dy="0.3em" style="text-anchor: end; visibility: inherit; font-family: &quot;Helvetica Neue&quot;, sans-serif; font-size: 12px; font-weight: 200;" fill="rgb(50, 49, 63)" stroke="none" stroke-width="1px">0.22</text><text x="0" y="48.54545454545453" dx="0em" dy="0.3em" style="text-anchor: end; visibility: hidden; font-family: &quot;Helvetica Neue&quot;, sans-serif; font-size: 12px; font-weight: 200;" fill="rgb(50, 49, 63)" stroke="none" stroke-width="1px">0.23</text><text x="0" y="32.3636363636364" dx="0em" dy="0.3em" style="text-anchor: end; visibility: inherit; font-family: &quot;Helvetica Neue&quot;, sans-serif; font-size: 12px; font-weight: 200;" fill="rgb(50, 49, 63)" stroke="none" stroke-width="1px">0.24</text><text x="0" y="16.181818181818187" dx="0em" dy="0.3em" style="text-anchor: end; visibility: hidden; font-family: &quot;Helvetica Neue&quot;, sans-serif; font-size: 12px; font-weight: 200;" fill="rgb(50, 49, 63)" stroke="none" stroke-width="1px">0.25</text><text x="0" y="0" dx="0em" dy="0.3em" style="text-anchor: end; visibility: hidden; font-family: &quot;Helvetica Neue&quot;, sans-serif; font-size: 12px; font-weight: 200;" fill="rgb(50, 49, 63)" stroke="none" stroke-width="1px">0.26</text></g><line x1="58" y1="0" x2="58" y2="178" fill="rgb(0, 0, 0)" stroke="rgb(204, 204, 204)" stroke-width="1px"></line></g></g><g transform="translate(58, 0)" clip-path="url(#clip_0)"><clipPath id="clip_0"><rect width="272" height="178"></rect></clipPath><g><g><g><line x1="0" y1="0" x2="0" y2="178" fill="rgb(0, 0, 0)" stroke="rgb(60, 60, 60)" stroke-width="1px" opacity="0.25"></line><line x1="22.666666666666664" y1="0" x2="22.666666666666664" y2="178" fill="rgb(0, 0, 0)" stroke="rgb(60, 60, 60)" stroke-width="1px" opacity="0.25"></line><line x1="45.33333333333333" y1="0" x2="45.33333333333333" y2="178" fill="rgb(0, 0, 0)" stroke="rgb(60, 60, 60)" stroke-width="1px" opacity="0.25"></line><line x1="68" y1="0" x2="68" y2="178" fill="rgb(0, 0, 0)" stroke="rgb(60, 60, 60)" stroke-width="1px" opacity="0.25"></line><line x1="90.66666666666666" y1="0" x2="90.66666666666666" y2="178" fill="rgb(0, 0, 0)" stroke="rgb(60, 60, 60)" stroke-width="1px" opacity="0.25"></line><line x1="113.33333333333334" y1="0" x2="113.33333333333334" y2="178" fill="rgb(0, 0, 0)" stroke="rgb(60, 60, 60)" stroke-width="1px" opacity="0.25"></line><line x1="136" y1="0" x2="136" y2="178" fill="rgb(0, 0, 0)" stroke="rgb(60, 60, 60)" stroke-width="1px" opacity="0.25"></line><line x1="158.66666666666669" y1="0" x2="158.66666666666669" y2="178" fill="rgb(0, 0, 0)" stroke="rgb(60, 60, 60)" stroke-width="1px" opacity="0.25"></line><line x1="181.33333333333331" y1="0" x2="181.33333333333331" y2="178" fill="rgb(0, 0, 0)" stroke="rgb(60, 60, 60)" stroke-width="1px" opacity="0.25"></line><line x1="204" y1="0" x2="204" y2="178" fill="rgb(0, 0, 0)" stroke="rgb(60, 60, 60)" stroke-width="1px" opacity="0.25"></line><line x1="226.66666666666669" y1="0" x2="226.66666666666669" y2="178" fill="rgb(0, 0, 0)" stroke="rgb(60, 60, 60)" stroke-width="1px" opacity="0.25"></line><line x1="249.33333333333331" y1="0" x2="249.33333333333331" y2="178" fill="rgb(0, 0, 0)" stroke="rgb(60, 60, 60)" stroke-width="1px" opacity="0.25"></line><line x1="272" y1="0" x2="272" y2="178" fill="rgb(0, 0, 0)" stroke="rgb(60, 60, 60)" stroke-width="1px" opacity="0.25"></line></g><g><line x1="0" y1="178" x2="272" y2="178" fill="rgb(0, 0, 0)" stroke="rgb(60, 60, 60)" stroke-width="1px" opacity="0.25"></line><line x1="0" y1="161.8181818181818" x2="272" y2="161.8181818181818" fill="rgb(0, 0, 0)" stroke="rgb(60, 60, 60)" stroke-width="1px" opacity="0.25"></line><line x1="0" y1="145.63636363636363" x2="272" y2="145.63636363636363" fill="rgb(0, 0, 0)" stroke="rgb(60, 60, 60)" stroke-width="1px" opacity="0.25"></line><line x1="0" y1="129.45454545454547" x2="272" y2="129.45454545454547" fill="rgb(0, 0, 0)" stroke="rgb(60, 60, 60)" stroke-width="1px" opacity="0.25"></line><line x1="0" y1="113.27272727272727" x2="272" y2="113.27272727272727" fill="rgb(0, 0, 0)" stroke="rgb(60, 60, 60)" stroke-width="1px" opacity="0.25"></line><line x1="0" y1="97.09090909090908" x2="272" y2="97.09090909090908" fill="rgb(0, 0, 0)" stroke="rgb(60, 60, 60)" stroke-width="1px" opacity="0.25"></line><line x1="0" y1="80.90909090909092" x2="272" y2="80.90909090909092" fill="rgb(0, 0, 0)" stroke="rgb(60, 60, 60)" stroke-width="1px" opacity="0.25"></line><line x1="0" y1="64.72727272727273" x2="272" y2="64.72727272727273" fill="rgb(0, 0, 0)" stroke="rgb(60, 60, 60)" stroke-width="1px" opacity="0.25"></line><line x1="0" y1="48.54545454545453" x2="272" y2="48.54545454545453" fill="rgb(0, 0, 0)" stroke="rgb(60, 60, 60)" stroke-width="1px" opacity="0.25"></line><line x1="0" y1="32.3636363636364" x2="272" y2="32.3636363636364" fill="rgb(0, 0, 0)" stroke="rgb(60, 60, 60)" stroke-width="1px" opacity="0.25"></line><line x1="0" y1="16.181818181818187" x2="272" y2="16.181818181818187" fill="rgb(0, 0, 0)" stroke="rgb(60, 60, 60)" stroke-width="1px" opacity="0.25"></line><line x1="0" y1="0" x2="272" y2="0" fill="rgb(0, 0, 0)" stroke="rgb(60, 60, 60)" stroke-width="1px" opacity="0.25"></line></g></g></g><g><g><line x1="0" y1="420.72727272727263" x2="272" y2="420.72727272727263" fill="rgb(0, 0, 0)" stroke="rgb(153, 153, 153)" stroke-width="1.5px"></line></g></g><g><g><line x1="22.666666666666664" y1="0" x2="22.666666666666664" y2="178" fill="rgb(0, 0, 0)" stroke="rgb(153, 153, 153)" stroke-width="1.5px"></line></g></g><g><g><g><g><g><path stroke="rgb(238, 51, 119)" stroke-width="2px" d="M29.46666666666667,178.3259756102919L30.6,149.28192724172632L31.733333333333334,140.38388704714436L32.86666666666667,114.37064854597381L34,125.57483216062107L35.13333333333334,149.0623077758654L36.266666666666666,133.39077410469855L37.400000000000006,136.18162753561364L38.53333333333333,130.996346564788L39.66666666666667,137.9355913154654L40.8,136.03403518693125L41.93333333333334,145.41318501175326L43.06666666666666,138.24785042406944L44.2,147.0929769877075L45.33333333333333,139.57906089108977L46.46666666666667,126.55949162747552L47.599999999999994,130.78902078964828L48.733333333333334,123.32311696561854L49.86666666666666,153.34594614783322L51,133.7315339180737L52.13333333333334,157.84802559148028L53.266666666666666,162.30570389563525L54.400000000000006,151.46165841748936L55.53333333333333,146.5953716965899L56.66666666666667,107.02825157798335L57.8,122.71831253227819L58.93333333333334,109.89891559682083L60.06666666666666,78.45243694024613L61.2,68.26518513010691L62.33333333333333,99.67285642616719L63.46666666666667,116.98483272774223L64.6,112.58794220860253L65.73333333333333,112.73928947158649L66.86666666666666,91.39910951108523L68,99.80965880753344L69.13333333333333,106.36135855764137L70.26666666666668,107.88880501526243L71.4,101.9261898296683L72.53333333333333,115.16249549966295L73.66666666666666,96.86376198734689L74.80000000000001,93.33775386953918L75.93333333333334,94.16720526695445L77.06666666666666,94.81334587711468L78.19999999999999,98.89288541687223L79.33333333333334,62.732719877563L80.46666666666667,59.59732556515759L81.6,57.15485621943142L82.73333333333332,87.43785669409955L83.86666666666667,78.84262501997732L85,47.11364659052788L86.13333333333333,29.549155089619944L87.26666666666668,37.3235234934391L88.4,54.108305074365134L89.53333333333333,99.36929227049882L90.66666666666666,98.86576840018012L91.80000000000001,98.47352335310593L92.93333333333334,98.16796449050534L94.06666666666666,108.65848126230458L95.19999999999999,106.10204651883272L96.33333333333334,104.11058394323297L97.46666666666667,95.40687212015241L98.6,85.0504969077753L99.73333333333332,76.98288078885689L100.86666666666667,74.27439176432219L102,72.16447884143145L103.13333333333333,74.09704048309159L104.26666666666668,57.72159774894945L105.4,44.96512793685562L106.53333333333333,35.02783800044844L107.66666666666666,48.743775724011016L108.80000000000001,30.81903714655732L109.93333333333334,27.584211744135644L111.06666666666666,25.064282760058205L112.19999999999999,44.55834989099705L113.33333333333334,56.168044427418664L114.46666666666667,47.33108841585931L115.6,44.02328342744178L116.73333333333332,62.90358979217413L117.86666666666667,52.5780782600539L119,73.14395869841587L120.13333333333333,67.70768778652115L121.26666666666668,63.472832746937925L122.4,74.47861029221153L123.53333333333333,97.35683529002318L124.66666666666666,61.536243150228856L125.80000000000001,65.81764485011469L126.93333333333334,58.424310892411285L128.06666666666666,74.12199017375924L129.2,93.50284980708145L130.33333333333334,97.87199357978643L131.46666666666667,101.27555657865707L132.6,100.3507484180578L133.73333333333332,78.17323642777413L134.86666666666667,78.77786261288131L136,61.36795838575401L137.13333333333333,58.53418354492403L138.26666666666665,67.05521882485885L139.39999999999998,73.69310530790555L140.53333333333336,71.71165673389169L141.66666666666669,66.59192455813147L142.8,66.17983692982472L143.93333333333334,83.73972869253262L145.06666666666666,79.53797635051797L146.2,76.26481127609107L147.33333333333331,80.86737782738477L148.46666666666664,77.30041502657157L149.60000000000002,53.064659243008094L150.73333333333335,23.4564596067533L151.86666666666667,39.72967187697196L153,52.40650423547015L154.13333333333333,47.97703235420741L155.26666666666665,65.9835601915004L156.39999999999998,69.28210482481578L157.53333333333336,53.97076306904282L158.66666666666669,24.162314487244828L159.8,29.550986948010177L160.93333333333334,44.47730867580631L162.06666666666666,48.95255115749464L163.2,45.28640290646527L164.33333333333331,49.582835563177895L165.46666666666664,42.201210721897326L166.60000000000002,14.993833208820348L167.73333333333335,36.713469649572204L168.86666666666667,46.4807042926534L170,36.208472054489704L171.13333333333333,46.087311166084135L172.26666666666665,35.90201880889222L173.39999999999998,42.27240035116844L174.53333333333336,57.963473453461134L175.66666666666669,84.49154368867582L176.8,87.27600237678412L177.93333333333334,75.14037140629183L179.06666666666666,87.14380131307131L180.2,92.91829480278345L181.33333333333331,83.11189561381443L182.46666666666664,68.32034850134329L183.60000000000002,53.22155489305919L184.73333333333335,55.764318960734485L185.86666666666667,57.74513216945354L187,70.01673153990524L188.13333333333333,47.39066980690842L189.26666666666665,58.374421622887354L190.39999999999998,45.47367785474199L191.53333333333336,71.18581450960453L192.66666666666669,48.301385440304216L193.8,41.20296107617878L194.93333333333334,53.554196521648905L196.06666666666666,48.871084645141565L197.2,30.918210875887553L198.33333333333331,34.81383023476255L199.46666666666664,62.88179321364045L200.60000000000002,81.1705526375911L201.73333333333335,98.99367996544389L202.86666666666667,73.53989103807214L204,75.16848655429479L205.13333333333333,80.0133408691013L206.26666666666665,98.09221199779037L207.39999999999998,101.44710672617958L208.53333333333336,96.9082075753305L209.66666666666669,64.76295123083565L210.8,46.874153353812346L211.93333333333334,50.819693161661206L213.06666666666666,50.31708493538022L214.2,60.65409900796689L215.33333333333331,43.67335747219755L216.46666666666664,55.47863531414757L217.60000000000002,43.21786032023374L218.73333333333335,51.54762462509866L219.86666666666667,61.61268942625753L221,69.4533749063603L222.13333333333333,61.25654460683175L223.26666666666665,62.02357594776329L224.39999999999998,73.3496392432085L225.53333333333336,57.13937238097222L226.66666666666669,87.42575268980212L227.8,78.83320530780199L228.93333333333334,93.59670265894295L230.06666666666666,83.64037533376272L231.2,61.57966672999251L232.33333333333331,33.66582884679599L233.46666666666664,51.258954251555L234.60000000000002,50.65926932440749L235.73333333333335,39.46357421422621L236.86666666666667,37.894489867659274L238,65.28162706766699L239.13333333333333,58.00675304048963L240.26666666666665,63.06817205417801L241.39999999999998,81.3157417543699L242.53333333333336,88.37823640655506L243.66666666666669,90.30373600401207L244.8,88.22752178276201L245.93333333333334,47.27215111756527L247.06666666666666,51.12973341962473L248.2,32.67769827120992" style="fill: none;" fill="none"></path></g></g></g></g><g opacity="0.2"><g><g><g><path stroke="rgb(238, 51, 119)" stroke-width="2px" d="M24.93333333333333,226.5454588857564L26.06666666666667,177.99999035488474L27.200000000000003,161.81818760525096L28.333333333333336,210.36364407972854L29.46666666666667,80.90910151871769L30.6,64.72727465629578L31.733333333333334,113.27273113077337L32.86666666666667,32.36364504424009L34,161.81818760525096L35.13333333333334,226.5454588857564L36.266666666666666,80.90910151871769L37.400000000000006,145.63636074282905L38.53333333333333,113.27273113077337L39.66666666666667,161.81818760525096L40.8,129.45453388040715L41.93333333333334,177.99999035488474L43.06666666666666,113.27273113077337L44.2,177.99999035488474L45.33333333333333,113.27273113077337L46.46666666666667,80.90910151871769L47.599999999999994,145.63636074282905L48.733333333333334,97.09090426835147L49.86666666666666,258.9090884978121L51,64.72727465629578L52.13333333333334,242.72727369178423L53.266666666666666,177.99999035488474L54.400000000000006,113.27273113077337L55.53333333333333,129.45453388040715L56.66666666666667,-32.3636382926594L57.8,177.99999035488474L58.93333333333334,64.72727465629578L60.06666666666666,-32.3636382926594L61.2,32.36364504424009L62.33333333333333,210.36364407972854L63.46666666666667,177.99999035488474L64.6,97.09090426835147L65.73333333333333,113.27273113077337L66.86666666666666,16.181818181818187L68,129.45453388040715L69.13333333333333,129.45453388040715L70.26666666666668,113.27273113077337L71.4,80.90910151871769L72.53333333333333,161.81818760525096L73.66666666666666,32.36364504424009L74.80000000000001,80.90910151871769L75.93333333333334,97.09090426835147L77.06666666666666,97.09090426835147L78.19999999999999,113.27273113077337L79.33333333333334,-64.72729201750317L80.46666666666667,48.545447793873876L81.6,48.545447793873876L82.73333333333332,194.18181721730664L83.86666666666667,48.545447793873876L85,-64.72729201750317L86.13333333333333,-32.3636382926594L87.26666666666668,64.72727465629578L88.4,113.27273113077337L89.53333333333333,258.9090884978121L90.66666666666666,97.09090426835147L91.80000000000001,97.09090426835147L92.93333333333334,97.09090426835147L94.06666666666666,145.63636074282905L95.19999999999999,97.09090426835147L96.33333333333334,97.09090426835147L97.46666666666667,64.72727465629578L98.6,48.545447793873876L99.73333333333332,48.545447793873876L100.86666666666667,64.72727465629578L102,64.72727465629578L103.13333333333333,80.90910151871769L104.26666666666668,0.000015432184397923265L105.4,0.000015432184397923265L106.53333333333333,0.000015432184397923265L107.66666666666666,97.09090426835147L108.80000000000001,-32.3636382926594L109.93333333333334,16.181818181818187L111.06666666666666,16.181818181818187L112.19999999999999,113.27273113077337L113.33333333333334,97.09090426835147L114.46666666666667,16.181818181818187L115.6,32.36364504424009L116.73333333333332,129.45453388040715L117.86666666666667,16.181818181818187L119,145.63636074282905L120.13333333333333,48.545447793873876L121.26666666666668,48.545447793873876L122.4,113.27273113077337L123.53333333333333,177.99999035488474L124.66666666666666,-64.72729201750317L125.80000000000001,80.90910151871769L126.93333333333334,32.36364504424009L128.06666666666666,129.45453388040715L129.2,161.81818760525096L130.33333333333334,113.27273113077337L131.46666666666667,113.27273113077337L132.6,97.09090426835147L133.73333333333332,0.000015432184397923265L134.86666666666667,80.90910151871769L136,0.000015432184397923265L137.13333333333333,48.545447793873876L138.26666666666665,97.09090426835147L139.39999999999998,97.09090426835147L140.53333333333336,64.72727465629578L141.66666666666669,48.545447793873876L142.8,64.72727465629578L143.93333333333334,145.63636074282905L145.06666666666666,64.72727465629578L146.2,64.72727465629578L147.33333333333331,97.09090426835147L148.46666666666664,64.72727465629578L149.60000000000002,-32.3636382926594L150.73333333333335,-80.90909476713699L151.86666666666667,97.09090426835147L153,97.09090426835147L154.13333333333333,32.36364504424009L155.26666666666665,129.45453388040715L156.39999999999998,80.90910151871769L157.53333333333336,0.000015432184397923265L158.66666666666669,-80.90909476713699L159.8,48.545447793873876L160.93333333333334,97.09090426835147L162.06666666666666,64.72727465629578L163.2,32.36364504424009L164.33333333333331,64.72727465629578L165.46666666666664,16.181818181818187L166.60000000000002,-80.90909476713699L167.73333333333335,113.27273113077337L168.86666666666667,80.90910151871769L170,0.000015432184397923265L171.13333333333333,80.90910151871769L172.26666666666665,0.000015432184397923265L173.39999999999998,64.72727465629578L174.53333333333336,113.27273113077337L175.66666666666669,177.99999035488474L176.8,97.09090426835147L177.93333333333334,32.36364504424009L179.06666666666666,129.45453388040715L180.2,113.27273113077337L181.33333333333331,48.545447793873876L182.46666666666664,16.181818181818187L183.60000000000002,0.000015432184397923265L184.73333333333335,64.72727465629578L185.86666666666667,64.72727465629578L187,113.27273113077337L188.13333333333333,-32.3636382926594L189.26666666666665,97.09090426835147L190.39999999999998,0.000015432184397923265L191.53333333333336,161.81818760525096L192.66666666666669,-32.3636382926594L193.8,16.181818181818187L194.93333333333334,97.09090426835147L196.06666666666666,32.36364504424009L197.2,-32.3636382926594L198.33333333333331,48.545447793873876L199.46666666666664,161.81818760525096L200.60000000000002,145.63636074282905L201.73333333333335,161.81818760525096L202.86666666666667,-16.181835543025613L204,80.90910151871769L205.13333333333333,97.09090426835147L206.26666666666665,161.81818760525096L207.39999999999998,113.27273113077337L208.53333333333336,80.90910151871769L209.66666666666669,-48.54544104229319L210.8,-16.181835543025613L211.93333333333334,64.72727465629578L213.06666666666666,48.545447793873876L214.2,97.09090426835147L215.33333333333331,-16.181835543025613L216.46666666666664,97.09090426835147L217.60000000000002,0.000015432184397923265L218.73333333333335,80.90910151871769L219.86666666666667,97.09090426835147L221,97.09090426835147L222.13333333333333,32.36364504424009L223.26666666666665,64.72727465629578L224.39999999999998,113.27273113077337L225.53333333333336,0.000015432184397923265L226.66666666666669,194.18181721730664L227.8,48.545447793873876L228.93333333333334,145.63636074282905L230.06666666666666,48.545447793873876L231.2,-16.181835543025613L232.33333333333331,-64.72729201750317L233.46666666666664,113.27273113077337L234.60000000000002,48.545447793873876L235.73333333333335,0.000015432184397923265L236.86666666666667,32.36364504424009L238,161.81818760525096L239.13333333333333,32.36364504424009L240.26666666666665,80.90910151871769L241.39999999999998,145.63636074282905L242.53333333333336,113.27273113077337L243.66666666666669,97.09090426835147L244.8,80.90910151871769L245.93333333333334,-97.09089751677078L247.06666666666666,64.72727465629578L248.2,-32.3636382926594" style="fill: none;" fill="none"></path></g></g></g></g></g></g><g transform="translate(58, 178)" clip-path="url(#clip_1)"><clipPath id="clip_1"><rect width="272" height="22"></rect></clipPath><g><g><line x1="0" y1="0" x2="0" y2="5" style="visibility: inherit;" fill="rgb(0, 0, 0)" stroke="rgb(204, 204, 204)" stroke-width="1px"></line><line x1="22.666666666666664" y1="0" x2="22.666666666666664" y2="5" style="visibility: inherit;" fill="rgb(0, 0, 0)" stroke="rgb(204, 204, 204)" stroke-width="1px"></line><line x1="45.33333333333333" y1="0" x2="45.33333333333333" y2="5" style="visibility: inherit;" fill="rgb(0, 0, 0)" stroke="rgb(204, 204, 204)" stroke-width="1px"></line><line x1="68" y1="0" x2="68" y2="5" style="visibility: inherit;" fill="rgb(0, 0, 0)" stroke="rgb(204, 204, 204)" stroke-width="1px"></line><line x1="90.66666666666666" y1="0" x2="90.66666666666666" y2="5" style="visibility: inherit;" fill="rgb(0, 0, 0)" stroke="rgb(204, 204, 204)" stroke-width="1px"></line><line x1="113.33333333333334" y1="0" x2="113.33333333333334" y2="5" style="visibility: inherit;" fill="rgb(0, 0, 0)" stroke="rgb(204, 204, 204)" stroke-width="1px"></line><line x1="136" y1="0" x2="136" y2="5" style="visibility: inherit;" fill="rgb(0, 0, 0)" stroke="rgb(204, 204, 204)" stroke-width="1px"></line><line x1="158.66666666666669" y1="0" x2="158.66666666666669" y2="5" style="visibility: inherit;" fill="rgb(0, 0, 0)" stroke="rgb(204, 204, 204)" stroke-width="1px"></line><line x1="181.33333333333331" y1="0" x2="181.33333333333331" y2="5" style="visibility: inherit;" fill="rgb(0, 0, 0)" stroke="rgb(204, 204, 204)" stroke-width="1px"></line><line x1="204" y1="0" x2="204" y2="5" style="visibility: inherit;" fill="rgb(0, 0, 0)" stroke="rgb(204, 204, 204)" stroke-width="1px"></line><line x1="226.66666666666669" y1="0" x2="226.66666666666669" y2="5" style="visibility: inherit;" fill="rgb(0, 0, 0)" stroke="rgb(204, 204, 204)" stroke-width="1px"></line><line x1="249.33333333333331" y1="0" x2="249.33333333333331" y2="5" style="visibility: inherit;" fill="rgb(0, 0, 0)" stroke="rgb(204, 204, 204)" stroke-width="1px"></line><line x1="272" y1="0" x2="272" y2="5" style="visibility: inherit;" fill="rgb(0, 0, 0)" stroke="rgb(204, 204, 204)" stroke-width="1px"></line></g><g transform="translate(0, 8)"><text x="0" y="0" dx="0em" dy="0.95em" style="text-anchor: middle; visibility: hidden; font-family: &quot;Helvetica Neue&quot;, sans-serif; font-size: 12px; font-weight: 200;" fill="rgb(50, 49, 63)" stroke="none" stroke-width="1px">-20</text><text x="22.666666666666664" y="0" dx="0em" dy="0.95em" style="text-anchor: middle; visibility: inherit; font-family: &quot;Helvetica Neue&quot;, sans-serif; font-size: 12px; font-weight: 200;" fill="rgb(50, 49, 63)" stroke="none" stroke-width="1px">0</text><text x="45.33333333333333" y="0" dx="0em" dy="0.95em" style="text-anchor: middle; visibility: hidden; font-family: &quot;Helvetica Neue&quot;, sans-serif; font-size: 12px; font-weight: 200;" fill="rgb(50, 49, 63)" stroke="none" stroke-width="1px">20</text><text x="68" y="0" dx="0em" dy="0.95em" style="text-anchor: middle; visibility: inherit; font-family: &quot;Helvetica Neue&quot;, sans-serif; font-size: 12px; font-weight: 200;" fill="rgb(50, 49, 63)" stroke="none" stroke-width="1px">40</text><text x="90.66666666666666" y="0" dx="0em" dy="0.95em" style="text-anchor: middle; visibility: hidden; font-family: &quot;Helvetica Neue&quot;, sans-serif; font-size: 12px; font-weight: 200;" fill="rgb(50, 49, 63)" stroke="none" stroke-width="1px">60</text><text x="113.33333333333334" y="0" dx="0em" dy="0.95em" style="text-anchor: middle; visibility: inherit; font-family: &quot;Helvetica Neue&quot;, sans-serif; font-size: 12px; font-weight: 200;" fill="rgb(50, 49, 63)" stroke="none" stroke-width="1px">80</text><text x="136" y="0" dx="0em" dy="0.95em" style="text-anchor: middle; visibility: hidden; font-family: &quot;Helvetica Neue&quot;, sans-serif; font-size: 12px; font-weight: 200;" fill="rgb(50, 49, 63)" stroke="none" stroke-width="1px">100</text><text x="158.66666666666669" y="0" dx="0em" dy="0.95em" style="text-anchor: middle; visibility: inherit; font-family: &quot;Helvetica Neue&quot;, sans-serif; font-size: 12px; font-weight: 200;" fill="rgb(50, 49, 63)" stroke="none" stroke-width="1px">120</text><text x="181.33333333333331" y="0" dx="0em" dy="0.95em" style="text-anchor: middle; visibility: hidden; font-family: &quot;Helvetica Neue&quot;, sans-serif; font-size: 12px; font-weight: 200;" fill="rgb(50, 49, 63)" stroke="none" stroke-width="1px">140</text><text x="204" y="0" dx="0em" dy="0.95em" style="text-anchor: middle; visibility: inherit; font-family: &quot;Helvetica Neue&quot;, sans-serif; font-size: 12px; font-weight: 200;" fill="rgb(50, 49, 63)" stroke="none" stroke-width="1px">160</text><text x="226.66666666666669" y="0" dx="0em" dy="0.95em" style="text-anchor: middle; visibility: hidden; font-family: &quot;Helvetica Neue&quot;, sans-serif; font-size: 12px; font-weight: 200;" fill="rgb(50, 49, 63)" stroke="none" stroke-width="1px">180</text><text x="249.33333333333331" y="0" dx="0em" dy="0.95em" style="text-anchor: middle; visibility: inherit; font-family: &quot;Helvetica Neue&quot;, sans-serif; font-size: 12px; font-weight: 200;" fill="rgb(50, 49, 63)" stroke="none" stroke-width="1px">200</text><text x="272" y="0" dx="0em" dy="0.95em" style="text-anchor: middle; visibility: hidden; font-family: &quot;Helvetica Neue&quot;, sans-serif; font-size: 12px; font-weight: 200;" fill="rgb(50, 49, 63)" stroke="none" stroke-width="1px">220</text></g><line x1="0" y1="0" x2="272" y2="0" fill="rgb(0, 0, 0)" stroke="rgb(204, 204, 204)" stroke-width="1px"></line></g></g></g></g></svg>