<svg viewBox="0 0 330 200" xmlns="http://www.w3.org/2000/svg"><g><g><g><g><g><line x1="70" y1="178" x2="65" y2="178" style="visibility: inherit;" fill="rgb(0, 0, 0)" stroke="rgb(204, 204, 204)" stroke-width="1px"></line><line x1="70" y1="158.2222222222222" x2="65" y2="158.2222222222222" style="visibility: inherit;" fill="rgb(0, 0, 0)" stroke="rgb(204, 204, 204)" stroke-width="1px"></line><line x1="70" y1="138.44444444444443" x2="65" y2="138.44444444444443" style="visibility: inherit;" fill="rgb(0, 0, 0)" stroke="rgb(204, 204, 204)" stroke-width="1px"></line><line x1="70" y1="118.66666666666667" x2="65" y2="118.66666666666667" style="visibility: inherit;" fill="rgb(0, 0, 0)" stroke="rgb(204, 204, 204)" stroke-width="1px"></line><line x1="70" y1="98.88888888888887" x2="65" y2="98.88888888888887" style="visibility: inherit;" fill="rgb(0, 0, 0)" stroke="rgb(204, 204, 204)" stroke-width="1px"></line><line x1="70" y1="79.1111111111111" x2="65" y2="79.1111111111111" style="visibility: inherit;" fill="rgb(0, 0, 0)" stroke="rgb(204, 204, 204)" stroke-width="1px"></line><line x1="70" y1="59.33333333333334" x2="65" y2="59.33333333333334" style="visibility: inherit;" fill="rgb(0, 0, 0)" stroke="rgb(204, 204, 204)" stroke-width="1px"></line><line x1="70" y1="39.55555555555554" x2="65" y2="39.55555555555554" style="visibility: inherit;" fill="rgb(0, 0, 0)" stroke="rgb(204, 204, 204)" stroke-width="1px"></line><line x1="70" y1="19.777777777777743" x2="65" y2="19.777777777777743" style="visibility: inherit;" fill="rgb(0, 0, 0)" stroke="rgb(204, 204, 204)" stroke-width="1px"></line><line x1="70" y1="0" x2="65" y2="0" style="visibility: inherit;" fill="rgb(0, 0, 0)" stroke="rgb(204, 204, 204)" stroke-width="1px"></line></g><g transform="translate(60, 0)"><text x="0" y="178" dx="0em" dy="0.3em" style="text-anchor: end; visibility: hidden; font-family: &quot;Helvetica Neue&quot;, sans-serif; font-size: 12px; font-weight: 200;" fill="rgb(50, 49, 63)" stroke="none" stroke-width="1px">0.03</text><text x="0" y="158.2222222222222" dx="0em" dy="0.3em" style="text-anchor: end; visibility: inherit; font-family: &quot;Helvetica Neue&quot;, sans-serif; font-size: 12px; font-weight: 200;" fill="rgb(50, 49, 63)" stroke="none" stroke-width="1px">0.035</text><text x="0" y="138.44444444444443" dx="0em" dy="0.3em" style="text-anchor: end; visibility: hidden; font-family: &quot;Helvetica Neue&quot;, sans-serif; font-size: 12px; font-weight: 200;" fill="rgb(50, 49, 63)" stroke="none" stroke-width="1px">0.04</text><text x="0" y="118.66666666666667" dx="0em" dy="0.3em" style="text-anchor: end; visibility: inherit; font-family: &quot;Helvetica Neue&quot;, sans-serif; font-size: 12px; font-weight: 200;" fill="rgb(50, 49, 63)" stroke="none" stroke-width="1px">0.045</text><text x="0" y="98.88888888888887" dx="0em" dy="0.3em" style="text-anchor: end; visibility: hidden; font-family: &quot;Helvetica Neue&quot;, sans-serif; font-size: 12px; font-weight: 200;" fill="rgb(50, 49, 63)" stroke="none" stroke-width="1px">0.05</text><text x="0" y="79.1111111111111" dx="0em" dy="0.3em" style="text-anchor: end; visibility: inherit; font-family: &quot;Helvetica Neue&quot;, sans-serif; font-size: 12px; font-weight: 200;" fill="rgb(50, 49, 63)" stroke="none" stroke-width="1px">0.055</text><text x="0" y="59.33333333333334" dx="0em" dy="0.3em" style="text-anchor: end; visibility: hidden; font-family: &quot;Helvetica Neue&quot;, sans-serif; font-size: 12px; font-weight: 200;" fill="rgb(50, 49, 63)" stroke="none" stroke-width="1px">0.06</text><text x="0" y="39.55555555555554" dx="0em" dy="0.3em" style="text-anchor: end; visibility: inherit; font-family: &quot;Helvetica Neue&quot;, sans-serif; font-size: 12px; font-weight: 200;" fill="rgb(50, 49, 63)" stroke="none" stroke-width="1px">0.065</text><text x="0" y="19.777777777777743" dx="0em" dy="0.3em" style="text-anchor: end; visibility: hidden; font-family: &quot;Helvetica Neue&quot;, sans-serif; font-size: 12px; font-weight: 200;" fill="rgb(50, 49, 63)" stroke="none" stroke-width="1px">0.07</text><text x="0" y="0" dx="0em" dy="0.3em" style="text-anchor: end; visibility: hidden; font-family: &quot;Helvetica Neue&quot;, sans-serif; font-size: 12px; font-weight: 200;" fill="rgb(50, 49, 63)" stroke="none" stroke-width="1px">0.075</text></g><line x1="70" y1="0" x2="70" y2="178" fill="rgb(0, 0, 0)" stroke="rgb(204, 204, 204)" stroke-width="1px"></line></g></g><g transform="translate(70, 0)" clip-path="url(#clip_0)"><clipPath id="clip_0"><rect width="260" height="178"></rect></clipPath><g><g><g><line x1="0" y1="0" x2="0" y2="178" fill="rgb(0, 0, 0)" stroke="rgb(60, 60, 60)" stroke-width="1px" opacity="0.25"></line><line x1="21.666666666666664" y1="0" x2="21.666666666666664" y2="178" fill="rgb(0, 0, 0)" stroke="rgb(60, 60, 60)" stroke-width="1px" opacity="0.25"></line><line x1="43.33333333333333" y1="0" x2="43.33333333333333" y2="178" fill="rgb(0, 0, 0)" stroke="rgb(60, 60, 60)" stroke-width="1px" opacity="0.25"></line><line x1="65" y1="0" x2="65" y2="178" fill="rgb(0, 0, 0)" stroke="rgb(60, 60, 60)" stroke-width="1px" opacity="0.25"></line><line x1="86.66666666666666" y1="0" x2="86.66666666666666" y2="178" fill="rgb(0, 0, 0)" stroke="rgb(60, 60, 60)" stroke-width="1px" opacity="0.25"></line><line x1="108.33333333333334" y1="0" x2="108.33333333333334" y2="178" fill="rgb(0, 0, 0)" stroke="rgb(60, 60, 60)" stroke-width="1px" opacity="0.25"></line><line x1="130" y1="0" x2="130" y2="178" fill="rgb(0, 0, 0)" stroke="rgb(60, 60, 60)" stroke-width="1px" opacity="0.25"></line><line x1="151.66666666666669" y1="0" x2="151.66666666666669" y2="178" fill="rgb(0, 0, 0)" stroke="rgb(60, 60, 60)" stroke-width="1px" opacity="0.25"></line><line x1="173.33333333333331" y1="0" x2="173.33333333333331" y2="178" fill="rgb(0, 0, 0)" stroke="rgb(60, 60, 60)" stroke-width="1px" opacity="0.25"></line><line x1="195" y1="0" x2="195" y2="178" fill="rgb(0, 0, 0)" stroke="rgb(60, 60, 60)" stroke-width="1px" opacity="0.25"></line><line x1="216.66666666666669" y1="0" x2="216.66666666666669" y2="178" fill="rgb(0, 0, 0)" stroke="rgb(60, 60, 60)" stroke-width="1px" opacity="0.25"></line><line x1="238.33333333333331" y1="0" x2="238.33333333333331" y2="178" fill="rgb(0, 0, 0)" stroke="rgb(60, 60, 60)" stroke-width="1px" opacity="0.25"></line><line x1="260" y1="0" x2="260" y2="178" fill="rgb(0, 0, 0)" stroke="rgb(60, 60, 60)" stroke-width="1px" opacity="0.25"></line></g><g><line x1="0" y1="178" x2="260" y2="178" fill="rgb(0, 0, 0)" stroke="rgb(60, 60, 60)" stroke-width="1px" opacity="0.25"></line><line x1="0" y1="158.2222222222222" x2="260" y2="158.2222222222222" fill="rgb(0, 0, 0)" stroke="rgb(60, 60, 60)" stroke-width="1px" opacity="0.25"></line><line x1="0" y1="138.44444444444443" x2="260" y2="138.44444444444443" fill="rgb(0, 0, 0)" stroke="rgb(60, 60, 60)" stroke-width="1px" opacity="0.25"></line><line x1="0" y1="118.66666666666667" x2="260" y2="118.66666666666667" fill="rgb(0, 0, 0)" stroke="rgb(60, 60, 60)" stroke-width="1px" opacity="0.25"></line><line x1="0" y1="98.88888888888887" x2="260" y2="98.88888888888887" fill="rgb(0, 0, 0)" stroke="rgb(60, 60, 60)" stroke-width="1px" opacity="0.25"></line><line x1="0" y1="79.1111111111111" x2="260" y2="79.1111111111111" fill="rgb(0, 0, 0)" stroke="rgb(60, 60, 60)" stroke-width="1px" opacity="0.25"></line><line x1="0" y1="59.33333333333334" x2="260" y2="59.33333333333334" fill="rgb(0, 0, 0)" stroke="rgb(60, 60, 60)" stroke-width="1px" opacity="0.25"></line><line x1="0" y1="39.55555555555554" x2="260" y2="39.55555555555554" fill="rgb(0, 0, 0)" stroke="rgb(60, 60, 60)" stroke-width="1px" opacity="0.25"></line><line x1="0" y1="19.777777777777743" x2="260" y2="19.777777777777743" fill="rgb(0, 0, 0)" stroke="rgb(60, 60, 60)" stroke-width="1px" opacity="0.25"></line><line x1="0" y1="0" x2="260" y2="0" fill="rgb(0, 0, 0)" stroke="rgb(60, 60, 60)" stroke-width="1px" opacity="0.25"></line></g></g></g><g><g><line x1="0" y1="296.66666666666663" x2="260" y2="296.66666666666663" fill="rgb(0, 0, 0)" stroke="rgb(153, 153, 153)" stroke-width="1.5px"></line></g></g><g><g><line x1="21.666666666666664" y1="0" x2="21.666666666666664" y2="178" fill="rgb(0, 0, 0)" stroke="rgb(153, 153, 153)" stroke-width="1.5px"></line></g></g><g><g><g><g><g><path stroke="rgb(204, 51, 17)" stroke-width="2px" d="M21.666666666666664,59.333338638146685L22.75,103.80276491293029L23.833333333333332,85.16387561779972L24.916666666666668,62.29016749121055L26,122.66557544790376L27.083333333333336,127.15625008791316L28.166666666666668,119.59240870092385L29.25,114.29909010338048L30.333333333333332,100.71679672598721L31.416666666666668,90.750907506694L32.5,83.33201461344493L33.583333333333336,96.1520987983307L34.666666666666664,78.59015523481828L35.75,83.21637559573743L36.833333333333336,86.76374724674298L37.91666666666667,62.77693645879789L39,97.48018394010032L40.083333333333336,115.4759007192796L41.166666666666664,120.59646705392473L42.25,124.56776647277397L43.33333333333333,110.07449461917055L44.416666666666664,107.59227359006113L45.5,96.89279394902049L46.583333333333336,106.09866907666927L47.666666666666664,69.4670240900348L48.75,84.73414109791273L49.833333333333336,114.12232255447756L50.916666666666664,102.00282612929306L52,127.55826365510963L53.083333333333336,156.20540946782188L54.16666666666667,169.76968136259063L55.25,136.61025524523936L56.333333333333336,145.75980008017572L57.416666666666664,135.39920158977773L58.5,144.8154841583876L59.58333333333333,134.66444162635608L60.666666666666664,118.0146524116731L61.75,148.7572935967636L62.833333333333336,137.73572656553148L63.916666666666664,146.6345397406884L65,162.30864466587505L66.08333333333333,139.5504685861756L67.16666666666667,121.82209847110357L68.25,38.076444108066L69.33333333333333,42.77427961272326L70.41666666666666,72.65947072712919L71.5,87.19806678706942L72.58333333333333,72.2980899760166L73.66666666666667,86.91650592813214L74.75,80.82060294734676L75.83333333333334,93.55551014584093L76.91666666666667,85.99239291862231L78,97.58431777170418L79.08333333333333,89.13083963263924L80.16666666666667,126.25452002340037L81.25,120.20670978988485L82.33333333333333,98.01190097035348L83.41666666666667,80.7221506339022L84.5,58.511659161449344L85.58333333333333,49.95146845605569L86.66666666666666,78.25020136126257L87.75,56.586015450883636L88.83333333333333,92.16028942871637L89.91666666666667,111.1308682212426L91,134.6507266088083L92.08333333333334,152.97269546870217L93.16666666666667,149.76195260029087L94.25,129.7772280727865L95.33333333333333,131.69268373535618L96.41666666666667,124.44304423764686L97.5,110.05379901360925L98.58333333333333,125.06991025072904L99.66666666666667,110.54212774878503L100.75,116.7085405781519L101.83333333333333,130.25395379589708L102.91666666666666,132.06405302114257L104,142.2158979348302L105.08333333333333,150.1241851048306L106.16666666666667,147.5429631934903L107.25,145.53219132729683L108.33333333333334,152.70757764190532L109.41666666666667,149.55542598281815L110.5,120.87456544045554L111.58333333333333,142.2410646632337L112.66666666666667,132.6602331600082L113.75,107.71321024828154L114.83333333333333,123.24659137528207L115.91666666666667,117.8635384729402L117,122.41191947522935L118.08333333333333,134.69688585951246L119.16666666666666,109.29976270949854L120.25,106.99895894358887L121.33333333333333,113.94841202142251L122.41666666666667,119.36203596883135L123.5,106.09569385809115L124.58333333333334,113.24476851952765L125.66666666666667,101.33034251538338L126.75,135.75789257124146L127.83333333333333,136.35162131680605L128.91666666666666,93.1052432122057L130,94.38342825545364L131.08333333333334,51.67024486355827L132.16666666666666,53.36378858775373L133.25,37.19950398403813L134.33333333333334,24.60752627777697L135.41666666666669,67.24904113908974L136.5,56.7578916756885L137.58333333333334,92.2941757839957L138.66666666666666,102.49338593954609L139.75,101.69679144003668L140.83333333333331,127.30157870037766L141.91666666666666,103.53881843594088L143,137.47829531256627L144.08333333333334,128.95003584161668L145.16666666666666,122.30652171374837L146.25,108.38944825403676L147.33333333333334,106.28982398302544L148.41666666666666,60.94532713569879L149.5,60.58907767773971L150.58333333333334,51.56978013932195L151.66666666666669,105.7361920618692L152.75,95.48116145522594L153.83333333333334,96.23426856675226L154.91666666666666,88.07916305253013L156,90.46811181105227L157.08333333333331,109.812659686992L158.16666666666666,107.39850568929796L159.25,79.29254860622554L160.33333333333334,92.3651183680479L161.41666666666666,137.515760542043L162.5,128.9792212553827L163.58333333333334,131.0710363617412L164.66666666666666,158.92589307674598L165.75,154.39949371058322L166.83333333333334,142.13164939367556L167.91666666666669,141.31677788147132L169,166.90732572061572L170.08333333333334,125.64991941062239L171.16666666666666,145.96106538944053L172.25,118.0745585667378L173.33333333333331,78.86741133051868L174.41666666666666,65.80860205483762L175.5,90.60290158690039L176.58333333333334,118.65943850476114L177.66666666666666,96.8065912235725L178.75,106.00855756696103L179.83333333333334,95.69333418369307L180.91666666666666,70.17422000335971L182,85.26194038641529L183.08333333333334,105.75705214719939L184.16666666666669,60.53029787559747L185.25,34.04043225212044L186.33333333333334,30.888385352765425L187.41666666666666,19.691164864067076L188.5,45.935640432906325L189.58333333333331,31.41297657149684L190.66666666666666,46.32515254232726L191.75,57.94173762360421L192.83333333333334,75.73283661258576L193.91666666666666,89.59210272500235L195,65.42136069703962L196.08333333333334,81.55946298679191L197.16666666666666,85.38926545984212L198.25,97.11446079701507L199.33333333333334,80.02305358923833L200.41666666666669,101.67595933219853L201.5,92.31824015881305L202.58333333333334,93.77035287684664L203.66666666666666,77.41799351942713L204.75,82.16306074476496L205.83333333333331,68.37591294853551L206.91666666666666,57.635724815272766L208,75.49445263489557L209.08333333333334,71.92284644161406L210.16666666666666,77.88234117114861L211.25,100.0083443585066L212.33333333333334,125.98627842384236L213.41666666666666,146.2230890607389L214.5,161.9875645468813L215.58333333333334,156.78453578581858L216.66666666666669,135.2478212161831L217.75,144.6960533135885L218.83333333333334,152.0562261174673L219.91666666666666,131.56446798453746L221,133.08494356375272L222.08333333333331,125.5276148292946L223.16666666666666,84.6733421590505L224.25,79.07320138093074L225.33333333333334,92.1942468795431L226.41666666666666,84.9319861581945L227.5,122.98357296818304L228.58333333333334,126.40042634601264L229.66666666666666,129.0621551273419L230.75,122.39386263733059L231.83333333333334,125.94104199827856L232.91666666666669,154.92962746760853L234,133.80284763629749L235.08333333333334,126.08686210180699L236.16666666666666,146.30144374587334L237.25,135.82326847116659" style="fill: none;" fill="none"></path></g></g></g></g><g opacity="0.2"><g><g><g><path stroke="rgb(204, 51, 17)" stroke-width="2px" d="M21.666666666666664,59.3333386381467L22.75,138.4444479809867L23.833333333333332,59.3333386381467L24.916666666666668,19.77777659893033L26,257.1111119952467L27.083333333333336,138.4444479809867L28.166666666666668,98.88888594177034L29.25,98.88888594177034L30.333333333333332,59.3333386381467L31.416666666666668,59.3333386381467L32.5,59.3333386381467L33.583333333333336,138.4444479809867L34.666666666666664,19.77777659893033L35.75,98.88888594177034L36.833333333333336,98.88888594177034L37.91666666666667,-19.777770704693268L40.083333333333336,178.0000026524067L41.166666666666664,138.4444479809867L42.25,138.4444479809867L43.33333333333333,59.3333386381467L44.416666666666664,98.88888594177034L45.5,59.3333386381467L46.583333333333336,138.4444479809867L47.666666666666664,-59.33334747950238L48.75,138.4444479809867L49.833333333333336,217.5555573238267L50.916666666666664,59.3333386381467L52,217.5555573238267L54.16666666666667,217.5555573238267L55.25,19.77777659893033L56.333333333333336,178.0000026524067L57.416666666666664,98.88888594177034L58.5,178.0000026524067L59.58333333333333,98.88888594177034L60.666666666666664,59.3333386381467L61.75,257.1111119952467L62.833333333333336,98.88888594177034L63.916666666666664,178.0000026524067L65,217.5555573238267L66.08333333333333,59.3333386381467L67.16666666666667,59.3333386381467L68.25,-257.111113468806L69.33333333333333,59.3333386381467L70.41666666666666,178.0000026524067L71.5,138.4444479809867L72.58333333333333,19.77777659893033L73.66666666666667,138.4444479809867L74.75,59.3333386381467L75.83333333333334,138.4444479809867L76.91666666666667,59.3333386381467L78,138.4444479809867L79.08333333333333,59.3333386381467L80.16666666666667,257.1111119952467L81.25,98.88888594177034L82.33333333333333,19.77777659893033L83.41666666666667,19.77777659893033L84.5,-19.777770704693268L85.58333333333333,19.77777659893033L86.66666666666666,178.0000026524067L92.08333333333334,217.5555573238267L93.16666666666667,138.4444479809867L94.25,59.3333386381467L95.33333333333333,138.4444479809867L96.41666666666667,98.88888594177034L97.5,59.3333386381467L98.58333333333333,178.0000026524067L99.66666666666667,59.3333386381467L100.75,138.4444479809867L101.83333333333333,178.0000026524067L102.91666666666666,138.4444479809867L104,178.0000026524067L105.08333333333333,178.0000026524067L106.16666666666667,138.4444479809867L107.25,138.4444479809867L108.33333333333334,178.0000026524067L109.41666666666667,138.4444479809867L110.5,19.77777659893033L111.58333333333333,217.5555573238267L112.66666666666667,98.88888594177034L113.75,19.77777659893033L114.83333333333333,178.0000026524067L115.91666666666667,98.88888594177034L117,138.4444479809867L118.08333333333333,178.0000026524067L119.16666666666666,19.77777659893033L120.25,98.88888594177034L121.33333333333333,138.4444479809867L122.41666666666667,138.4444479809867L123.5,59.3333386381467L124.58333333333334,138.4444479809867L125.66666666666667,59.3333386381467L126.75,257.1111119952467L127.83333333333333,138.4444479809867L128.91666666666666,-59.33334747950238L130,98.88888594177034L131.08333333333334,-98.88889478312598L132.16666666666666,59.3333386381467L133.25,-19.777770704693268L135.41666666666669,217.5555573238267L136.5,19.77777659893033L137.58333333333334,217.5555573238267L138.66666666666666,138.4444479809867L139.75,98.88888594177034L140.83333333333331,217.5555573238267L141.91666666666666,19.77777659893033L143,257.1111119952467L144.08333333333334,98.88888594177034L145.16666666666666,98.88888594177034L146.25,59.3333386381467L147.33333333333334,98.88888594177034L148.41666666666666,-98.88889478312598L149.5,59.3333386381467L150.58333333333334,19.77777659893033L151.66666666666669,296.66666666666663L152.75,59.3333386381467L153.83333333333334,98.88888594177034L154.91666666666666,59.3333386381467L156,98.88888594177034L157.08333333333331,178.0000026524067L158.16666666666666,98.88888594177034L159.25,-19.777770704693268L160.33333333333334,138.4444479809867L161.41666666666666,296.66666666666663L162.5,98.88888594177034L163.58333333333334,138.4444479809867L164.66666666666666,257.1111119952467L165.75,138.4444479809867L166.83333333333334,98.88888594177034L167.91666666666669,138.4444479809867L169,257.1111119952467L171.16666666666666,217.5555573238267L172.25,19.77777659893033L173.33333333333331,-59.33334747950238L174.41666666666666,19.77777659893033L175.5,178.0000026524067L176.58333333333334,217.5555573238267L177.66666666666666,19.77777659893033L178.75,138.4444479809867L179.83333333333334,59.3333386381467L180.91666666666666,-19.777770704693268L182,138.4444479809867L183.08333333333334,178.0000026524067L185.25,-59.33334747950238L186.33333333333334,19.77777659893033L187.41666666666666,-19.777770704693268L188.5,138.4444479809867L189.58333333333331,-19.777770704693268L190.66666666666666,98.88888594177034L191.75,98.88888594177034L192.83333333333334,138.4444479809867L193.91666666666666,138.4444479809867L195,-19.777770704693268L196.08333333333334,138.4444479809867L197.16666666666666,98.88888594177034L198.25,138.4444479809867L199.33333333333334,19.77777659893033L200.41666666666669,178.0000026524067L201.5,59.3333386381467L202.58333333333334,98.88888594177034L203.66666666666666,19.77777659893033L204.75,98.88888594177034L205.83333333333331,19.77777659893033L206.91666666666666,19.77777659893033L208,138.4444479809867L209.08333333333334,59.3333386381467L210.16666666666666,98.88888594177034L211.25,178.0000026524067L214.5,217.5555573238267L215.58333333333334,138.4444479809867L216.66666666666669,59.3333386381467L217.75,178.0000026524067L218.83333333333334,178.0000026524067L219.91666666666666,59.3333386381467L221,138.4444479809867L222.08333333333331,98.88888594177034L223.16666666666666,-59.33334747950238L224.25,59.3333386381467L225.33333333333334,138.4444479809867L226.41666666666666,59.3333386381467L227.5,257.1111119952467L228.58333333333334,138.4444479809867L229.66666666666666,138.4444479809867L230.75,98.88888594177034L231.83333333333334,138.4444479809867L232.91666666666669,257.1111119952467L234,59.3333386381467L235.08333333333334,98.88888594177034L236.16666666666666,217.5555573238267L237.25,98.88888594177034" style="fill: none;" fill="none"></path></g></g></g></g></g></g><g transform="translate(70, 178)" clip-path="url(#clip_1)"><clipPath id="clip_1"><rect width="260" height="22"></rect></clipPath><g><g><line x1="0" y1="0" x2="0" y2="5" style="visibility: inherit;" fill="rgb(0, 0, 0)" stroke="rgb(204, 204, 204)" stroke-width="1px"></line><line x1="21.666666666666664" y1="0" x2="21.666666666666664" y2="5" style="visibility: inherit;" fill="rgb(0, 0, 0)" stroke="rgb(204, 204, 204)" stroke-width="1px"></line><line x1="43.33333333333333" y1="0" x2="43.33333333333333" y2="5" style="visibility: inherit;" fill="rgb(0, 0, 0)" stroke="rgb(204, 204, 204)" stroke-width="1px"></line><line x1="65" y1="0" x2="65" y2="5" style="visibility: inherit;" fill="rgb(0, 0, 0)" stroke="rgb(204, 204, 204)" stroke-width="1px"></line><line x1="86.66666666666666" y1="0" x2="86.66666666666666" y2="5" style="visibility: inherit;" fill="rgb(0, 0, 0)" stroke="rgb(204, 204, 204)" stroke-width="1px"></line><line x1="108.33333333333334" y1="0" x2="108.33333333333334" y2="5" style="visibility: inherit;" fill="rgb(0, 0, 0)" stroke="rgb(204, 204, 204)" stroke-width="1px"></line><line x1="130" y1="0" x2="130" y2="5" style="visibility: inherit;" fill="rgb(0, 0, 0)" stroke="rgb(204, 204, 204)" stroke-width="1px"></line><line x1="151.66666666666669" y1="0" x2="151.66666666666669" y2="5" style="visibility: inherit;" fill="rgb(0, 0, 0)" stroke="rgb(204, 204, 204)" stroke-width="1px"></line><line x1="173.33333333333331" y1="0" x2="173.33333333333331" y2="5" style="visibility: inherit;" fill="rgb(0, 0, 0)" stroke="rgb(204, 204, 204)" stroke-width="1px"></line><line x1="195" y1="0" x2="195" y2="5" style="visibility: inherit;" fill="rgb(0, 0, 0)" stroke="rgb(204, 204, 204)" stroke-width="1px"></line><line x1="216.66666666666669" y1="0" x2="216.66666666666669" y2="5" style="visibility: inherit;" fill="rgb(0, 0, 0)" stroke="rgb(204, 204, 204)" stroke-width="1px"></line><line x1="238.33333333333331" y1="0" x2="238.33333333333331" y2="5" style="visibility: inherit;" fill="rgb(0, 0, 0)" stroke="rgb(204, 204, 204)" stroke-width="1px"></line><line x1="260" y1="0" x2="260" y2="5" style="visibility: inherit;" fill="rgb(0, 0, 0)" stroke="rgb(204, 204, 204)" stroke-width="1px"></line></g><g transform="translate(0, 8)"><text x="0" y="0" dx="0em" dy="0.95em" style="text-anchor: middle; visibility: hidden; font-family: &quot;Helvetica Neue&quot;, sans-serif; font-size: 12px; font-weight: 200;" fill="rgb(50, 49, 63)" stroke="none" stroke-width="1px">-20</text><text x="21.666666666666664" y="0" dx="0em" dy="0.95em" style="text-anchor: middle; visibility: inherit; font-family: &quot;Helvetica Neue&quot;, sans-serif; font-size: 12px; font-weight: 200;" fill="rgb(50, 49, 63)" stroke="none" stroke-width="1px">0</text><text x="43.33333333333333" y="0" dx="0em" dy="0.95em" style="text-anchor: middle; visibility: hidden; font-family: &quot;Helvetica Neue&quot;, sans-serif; font-size: 12px; font-weight: 200;" fill="rgb(50, 49, 63)" stroke="none" stroke-width="1px">20</text><text x="65" y="0" dx="0em" dy="0.95em" style="text-anchor: middle; visibility: inherit; font-family: &quot;Helvetica Neue&quot;, sans-serif; font-size: 12px; font-weight: 200;" fill="rgb(50, 49, 63)" stroke="none" stroke-width="1px">40</text><text x="86.66666666666666" y="0" dx="0em" dy="0.95em" style="text-anchor: middle; visibility: hidden; font-family: &quot;Helvetica Neue&quot;, sans-serif; font-size: 12px; font-weight: 200;" fill="rgb(50, 49, 63)" stroke="none" stroke-width="1px">60</text><text x="108.33333333333334" y="0" dx="0em" dy="0.95em" style="text-anchor: middle; visibility: inherit; font-family: &quot;Helvetica Neue&quot;, sans-serif; font-size: 12px; font-weight: 200;" fill="rgb(50, 49, 63)" stroke="none" stroke-width="1px">80</text><text x="130" y="0" dx="0em" dy="0.95em" style="text-anchor: middle; visibility: hidden; font-family: &quot;Helvetica Neue&quot;, sans-serif; font-size: 12px; font-weight: 200;" fill="rgb(50, 49, 63)" stroke="none" stroke-width="1px">100</text><text x="151.66666666666669" y="0" dx="0em" dy="0.95em" style="text-anchor: middle; visibility: inherit; font-family: &quot;Helvetica Neue&quot;, sans-serif; font-size: 12px; font-weight: 200;" fill="rgb(50, 49, 63)" stroke="none" stroke-width="1px">120</text><text x="173.33333333333331" y="0" dx="0em" dy="0.95em" style="text-anchor: middle; visibility: hidden; font-family: &quot;Helvetica Neue&quot;, sans-serif; font-size: 12px; font-weight: 200;" fill="rgb(50, 49, 63)" stroke="none" stroke-width="1px">140</text><text x="195" y="0" dx="0em" dy="0.95em" style="text-anchor: middle; visibility: inherit; font-family: &quot;Helvetica Neue&quot;, sans-serif; font-size: 12px; font-weight: 200;" fill="rgb(50, 49, 63)" stroke="none" stroke-width="1px">160</text><text x="216.66666666666669" y="0" dx="0em" dy="0.95em" style="text-anchor: middle; visibility: hidden; font-family: &quot;Helvetica Neue&quot;, sans-serif; font-size: 12px; font-weight: 200;" fill="rgb(50, 49, 63)" stroke="none" stroke-width="1px">180</text><text x="238.33333333333331" y="0" dx="0em" dy="0.95em" style="text-anchor: middle; visibility: inherit; font-family: &quot;Helvetica Neue&quot;, sans-serif; font-size: 12px; font-weight: 200;" fill="rgb(50, 49, 63)" stroke="none" stroke-width="1px">200</text><text x="260" y="0" dx="0em" dy="0.95em" style="text-anchor: middle; visibility: hidden; font-family: &quot;Helvetica Neue&quot;, sans-serif; font-size: 12px; font-weight: 200;" fill="rgb(50, 49, 63)" stroke="none" stroke-width="1px">220</text></g><line x1="0" y1="0" x2="260" y2="0" fill="rgb(0, 0, 0)" stroke="rgb(204, 204, 204)" stroke-width="1px"></line></g></g></g></g></svg>