<svg viewBox="0 0 330 200" xmlns="http://www.w3.org/2000/svg"><g><g><g><g><g><line x1="58" y1="178" x2="53" y2="178" style="visibility: inherit;" fill="rgb(0, 0, 0)" stroke="rgb(204, 204, 204)" stroke-width="1px"></line><line x1="58" y1="163.16666666666666" x2="53" y2="163.16666666666666" style="visibility: inherit;" fill="rgb(0, 0, 0)" stroke="rgb(204, 204, 204)" stroke-width="1px"></line><line x1="58" y1="148.33333333333334" x2="53" y2="148.33333333333334" style="visibility: inherit;" fill="rgb(0, 0, 0)" stroke="rgb(204, 204, 204)" stroke-width="1px"></line><line x1="58" y1="133.5" x2="53" y2="133.5" style="visibility: inherit;" fill="rgb(0, 0, 0)" stroke="rgb(204, 204, 204)" stroke-width="1px"></line><line x1="58" y1="118.66666666666667" x2="53" y2="118.66666666666667" style="visibility: inherit;" fill="rgb(0, 0, 0)" stroke="rgb(204, 204, 204)" stroke-width="1px"></line><line x1="58" y1="103.83333333333334" x2="53" y2="103.83333333333334" style="visibility: inherit;" fill="rgb(0, 0, 0)" stroke="rgb(204, 204, 204)" stroke-width="1px"></line><line x1="58" y1="89.00000000000001" x2="53" y2="89.00000000000001" style="visibility: inherit;" fill="rgb(0, 0, 0)" stroke="rgb(204, 204, 204)" stroke-width="1px"></line><line x1="58" y1="74.16666666666669" x2="53" y2="74.16666666666669" style="visibility: inherit;" fill="rgb(0, 0, 0)" stroke="rgb(204, 204, 204)" stroke-width="1px"></line><line x1="58" y1="59.33333333333336" x2="53" y2="59.33333333333336" style="visibility: inherit;" fill="rgb(0, 0, 0)" stroke="rgb(204, 204, 204)" stroke-width="1px"></line><line x1="58" y1="44.50000000000003" x2="53" y2="44.50000000000003" style="visibility: inherit;" fill="rgb(0, 0, 0)" stroke="rgb(204, 204, 204)" stroke-width="1px"></line><line x1="58" y1="29.666666666666686" x2="53" y2="29.666666666666686" style="visibility: inherit;" fill="rgb(0, 0, 0)" stroke="rgb(204, 204, 204)" stroke-width="1px"></line><line x1="58" y1="14.833333333333343" x2="53" y2="14.833333333333343" style="visibility: inherit;" fill="rgb(0, 0, 0)" stroke="rgb(204, 204, 204)" stroke-width="1px"></line><line x1="58" y1="0" x2="53" y2="0" style="visibility: inherit;" fill="rgb(0, 0, 0)" stroke="rgb(204, 204, 204)" stroke-width="1px"></line></g><g transform="translate(48, 0)"><text x="0" y="178" dx="0em" dy="0.3em" style="text-anchor: end; visibility: hidden; font-family: &quot;Helvetica Neue&quot;, sans-serif; font-size: 12px; font-weight: 200;" fill="rgb(50, 49, 63)" stroke="none" stroke-width="1px">-0.1</text><text x="0" y="163.16666666666666" dx="0em" dy="0.3em" style="text-anchor: end; visibility: inherit; font-family: &quot;Helvetica Neue&quot;, sans-serif; font-size: 12px; font-weight: 200;" fill="rgb(50, 49, 63)" stroke="none" stroke-width="1px">0</text><text x="0" y="148.33333333333334" dx="0em" dy="0.3em" style="text-anchor: end; visibility: hidden; font-family: &quot;Helvetica Neue&quot;, sans-serif; font-size: 12px; font-weight: 200;" fill="rgb(50, 49, 63)" stroke="none" stroke-width="1px">0.1</text><text x="0" y="133.5" dx="0em" dy="0.3em" style="text-anchor: end; visibility: inherit; font-family: &quot;Helvetica Neue&quot;, sans-serif; font-size: 12px; font-weight: 200;" fill="rgb(50, 49, 63)" stroke="none" stroke-width="1px">0.2</text><text x="0" y="118.66666666666667" dx="0em" dy="0.3em" style="text-anchor: end; visibility: hidden; font-family: &quot;Helvetica Neue&quot;, sans-serif; font-size: 12px; font-weight: 200;" fill="rgb(50, 49, 63)" stroke="none" stroke-width="1px">0.3</text><text x="0" y="103.83333333333334" dx="0em" dy="0.3em" style="text-anchor: end; visibility: inherit; font-family: &quot;Helvetica Neue&quot;, sans-serif; font-size: 12px; font-weight: 200;" fill="rgb(50, 49, 63)" stroke="none" stroke-width="1px">0.4</text><text x="0" y="89.00000000000001" dx="0em" dy="0.3em" style="text-anchor: end; visibility: hidden; font-family: &quot;Helvetica Neue&quot;, sans-serif; font-size: 12px; font-weight: 200;" fill="rgb(50, 49, 63)" stroke="none" stroke-width="1px">0.5</text><text x="0" y="74.16666666666669" dx="0em" dy="0.3em" style="text-anchor: end; visibility: inherit; font-family: &quot;Helvetica Neue&quot;, sans-serif; font-size: 12px; font-weight: 200;" fill="rgb(50, 49, 63)" stroke="none" stroke-width="1px">0.6</text><text x="0" y="59.33333333333336" dx="0em" dy="0.3em" style="text-anchor: end; visibility: hidden; font-family: &quot;Helvetica Neue&quot;, sans-serif; font-size: 12px; font-weight: 200;" fill="rgb(50, 49, 63)" stroke="none" stroke-width="1px">0.7</text><text x="0" y="44.50000000000003" dx="0em" dy="0.3em" style="text-anchor: end; visibility: inherit; font-family: &quot;Helvetica Neue&quot;, sans-serif; font-size: 12px; font-weight: 200;" fill="rgb(50, 49, 63)" stroke="none" stroke-width="1px">0.8</text><text x="0" y="29.666666666666686" dx="0em" dy="0.3em" style="text-anchor: end; visibility: hidden; font-family: &quot;Helvetica Neue&quot;, sans-serif; font-size: 12px; font-weight: 200;" fill="rgb(50, 49, 63)" stroke="none" stroke-width="1px">0.9</text><text x="0" y="14.833333333333343" dx="0em" dy="0.3em" style="text-anchor: end; visibility: inherit; font-family: &quot;Helvetica Neue&quot;, sans-serif; font-size: 12px; font-weight: 200;" fill="rgb(50, 49, 63)" stroke="none" stroke-width="1px">1</text><text x="0" y="0" dx="0em" dy="0.3em" style="text-anchor: end; visibility: hidden; font-family: &quot;Helvetica Neue&quot;, sans-serif; font-size: 12px; font-weight: 200;" fill="rgb(50, 49, 63)" stroke="none" stroke-width="1px">1.1</text></g><line x1="58" y1="0" x2="58" y2="178" fill="rgb(0, 0, 0)" stroke="rgb(204, 204, 204)" stroke-width="1px"></line></g></g><g transform="translate(58, 0)" clip-path="url(#clip_0)"><clipPath id="clip_0"><rect width="272" height="178"></rect></clipPath><g><g><g><line x1="0" y1="0" x2="0" y2="178" fill="rgb(0, 0, 0)" stroke="rgb(60, 60, 60)" stroke-width="1px" opacity="0.25"></line><line x1="22.666666666666664" y1="0" x2="22.666666666666664" y2="178" fill="rgb(0, 0, 0)" stroke="rgb(60, 60, 60)" stroke-width="1px" opacity="0.25"></line><line x1="45.33333333333333" y1="0" x2="45.33333333333333" y2="178" fill="rgb(0, 0, 0)" stroke="rgb(60, 60, 60)" stroke-width="1px" opacity="0.25"></line><line x1="68" y1="0" x2="68" y2="178" fill="rgb(0, 0, 0)" stroke="rgb(60, 60, 60)" stroke-width="1px" opacity="0.25"></line><line x1="90.66666666666666" y1="0" x2="90.66666666666666" y2="178" fill="rgb(0, 0, 0)" stroke="rgb(60, 60, 60)" stroke-width="1px" opacity="0.25"></line><line x1="113.33333333333334" y1="0" x2="113.33333333333334" y2="178" fill="rgb(0, 0, 0)" stroke="rgb(60, 60, 60)" stroke-width="1px" opacity="0.25"></line><line x1="136" y1="0" x2="136" y2="178" fill="rgb(0, 0, 0)" stroke="rgb(60, 60, 60)" stroke-width="1px" opacity="0.25"></line><line x1="158.66666666666669" y1="0" x2="158.66666666666669" y2="178" fill="rgb(0, 0, 0)" stroke="rgb(60, 60, 60)" stroke-width="1px" opacity="0.25"></line><line x1="181.33333333333331" y1="0" x2="181.33333333333331" y2="178" fill="rgb(0, 0, 0)" stroke="rgb(60, 60, 60)" stroke-width="1px" opacity="0.25"></line><line x1="204" y1="0" x2="204" y2="178" fill="rgb(0, 0, 0)" stroke="rgb(60, 60, 60)" stroke-width="1px" opacity="0.25"></line><line x1="226.66666666666669" y1="0" x2="226.66666666666669" y2="178" fill="rgb(0, 0, 0)" stroke="rgb(60, 60, 60)" stroke-width="1px" opacity="0.25"></line><line x1="249.33333333333331" y1="0" x2="249.33333333333331" y2="178" fill="rgb(0, 0, 0)" stroke="rgb(60, 60, 60)" stroke-width="1px" opacity="0.25"></line><line x1="272" y1="0" x2="272" y2="178" fill="rgb(0, 0, 0)" stroke="rgb(60, 60, 60)" stroke-width="1px" opacity="0.25"></line></g><g><line x1="0" y1="178" x2="272" y2="178" fill="rgb(0, 0, 0)" stroke="rgb(60, 60, 60)" stroke-width="1px" opacity="0.25"></line><line x1="0" y1="163.16666666666666" x2="272" y2="163.16666666666666" fill="rgb(0, 0, 0)" stroke="rgb(60, 60, 60)" stroke-width="1px" opacity="0.25"></line><line x1="0" y1="148.33333333333334" x2="272" y2="148.33333333333334" fill="rgb(0, 0, 0)" stroke="rgb(60, 60, 60)" stroke-width="1px" opacity="0.25"></line><line x1="0" y1="133.5" x2="272" y2="133.5" fill="rgb(0, 0, 0)" stroke="rgb(60, 60, 60)" stroke-width="1px" opacity="0.25"></line><line x1="0" y1="118.66666666666667" x2="272" y2="118.66666666666667" fill="rgb(0, 0, 0)" stroke="rgb(60, 60, 60)" stroke-width="1px" opacity="0.25"></line><line x1="0" y1="103.83333333333334" x2="272" y2="103.83333333333334" fill="rgb(0, 0, 0)" stroke="rgb(60, 60, 60)" stroke-width="1px" opacity="0.25"></line><line x1="0" y1="89.00000000000001" x2="272" y2="89.00000000000001" fill="rgb(0, 0, 0)" stroke="rgb(60, 60, 60)" stroke-width="1px" opacity="0.25"></line><line x1="0" y1="74.16666666666669" x2="272" y2="74.16666666666669" fill="rgb(0, 0, 0)" stroke="rgb(60, 60, 60)" stroke-width="1px" opacity="0.25"></line><line x1="0" y1="59.33333333333336" x2="272" y2="59.33333333333336" fill="rgb(0, 0, 0)" stroke="rgb(60, 60, 60)" stroke-width="1px" opacity="0.25"></line><line x1="0" y1="44.50000000000003" x2="272" y2="44.50000000000003" fill="rgb(0, 0, 0)" stroke="rgb(60, 60, 60)" stroke-width="1px" opacity="0.25"></line><line x1="0" y1="29.666666666666686" x2="272" y2="29.666666666666686" fill="rgb(0, 0, 0)" stroke="rgb(60, 60, 60)" stroke-width="1px" opacity="0.25"></line><line x1="0" y1="14.833333333333343" x2="272" y2="14.833333333333343" fill="rgb(0, 0, 0)" stroke="rgb(60, 60, 60)" stroke-width="1px" opacity="0.25"></line><line x1="0" y1="0" x2="272" y2="0" fill="rgb(0, 0, 0)" stroke="rgb(60, 60, 60)" stroke-width="1px" opacity="0.25"></line></g></g></g><g><g><line x1="0" y1="163.16666666666666" x2="272" y2="163.16666666666666" fill="rgb(0, 0, 0)" stroke="rgb(153, 153, 153)" stroke-width="1.5px"></line></g></g><g><g><line x1="22.666666666666664" y1="0" x2="22.666666666666664" y2="178" fill="rgb(0, 0, 0)" stroke="rgb(153, 153, 153)" stroke-width="1.5px"></line></g></g><g><g><g><g><g><path stroke="rgb(255, 112, 67)" stroke-width="2px" d="M22.666666666666664,155.74999988948306L23.799999999999997,155.74999988948306L24.93333333333333,156.37172345633877L26.06666666666667,155.63532151817327L27.200000000000003,156.59023669361565L28.333333333333336,156.77326234139596L29.46666666666667,156.8963691508918L30.6,155.08628474792414L31.733333333333334,154.5172147086094L32.86666666666667,151.9563828785771L34,148.99921073944188L35.13333333333334,146.08392876316054L36.266666666666666,143.190308916264L37.400000000000006,138.6153874004345L38.53333333333333,137.7932954640733L39.66666666666667,134.4889915372001L40.8,136.9278985628373L41.93333333333334,134.83571720572291L43.06666666666666,130.23894298227577L44.2,126.67387505636208L45.33333333333333,125.55400712053401L46.46666666666667,123.36728471968165L47.599999999999994,120.023024460036L48.733333333333334,116.10752084859696L49.86666666666666,113.0611903336177L51,110.36211606437614L52.13333333333334,107.2765342578256L53.266666666666666,103.56182481866097L54.400000000000006,97.38889590044863L55.53333333333333,94.54991855589397L56.66666666666667,93.65081254298303L57.8,90.32714240873281L58.93333333333334,86.7547352553593L60.06666666666666,83.64431656232841L61.2,82.86089726595107L62.33333333333333,79.29994623045515L63.46666666666667,76.19828964731289L64.6,74.11006058248199L65.73333333333333,69.20503172361073L66.86666666666666,64.72846501222712L68,61.56912834000828L69.13333333333333,62.0584807169888L70.26666666666668,58.83362082652073L71.4,60.91099284777894L72.53333333333333,58.267579271987984L73.66666666666666,53.91363381808797L74.80000000000001,53.144481582110714L75.93333333333334,51.23403887851521L77.06666666666666,50.073626626875296L78.19999999999999,48.51403251064124L79.33333333333334,50.249468824154945L80.46666666666667,47.339745434117475L81.6,48.351246831405035L82.73333333333332,45.20540008587605L83.86666666666667,43.41042060833112L85,40.04523062220346L86.13333333333333,40.046285202492584L87.26666666666668,39.063655200802486L88.4,37.97037014248656L89.53333333333333,37.77433416519261L90.66666666666666,36.63817286273516L91.80000000000001,35.09747048455009L92.93333333333334,33.89726344612902L94.06666666666666,35.58483531871937L95.19999999999999,33.94910237445268L96.33333333333334,32.67486646817699L97.46666666666667,32.99350417295889L98.6,32.25827383467208L99.73333333333332,32.996794872499265L100.86666666666667,31.60520262299977L102,32.48805239195241L103.13333333333333,30.881075887262398L104.26666666666668,30.61269222784327L105.4,30.075803047368908L106.53333333333333,30.6410174010272L107.66666666666666,32.72040311438235L108.80000000000001,30.406444406594062L109.93333333333334,29.259503287621186L111.06666666666666,29.677303531130747L112.19999999999999,29.674953565655073L113.33333333333334,29.017488279464743L114.46666666666667,30.144406548159907L115.6,30.038826815820727L116.73333333333332,29.9565802043698L117.86666666666667,29.236875431666647L119,27.69277635133031L120.13333333333333,28.456823246911625L121.26666666666668,26.10166468341157L122.4,26.88953090346186L123.53333333333333,25.53637861031413L124.66666666666666,25.793538390366308L125.80000000000001,26.321682213084102L126.93333333333334,27.71655726708849L128.06666666666666,29.13098128817029L129.2,27.61028481419703L130.33333333333334,27.409111323148636L131.46666666666667,28.235848189703233L132.6,27.89642519266775L133.73333333333332,28.287649340004492L134.86666666666667,27.93677828875545L136,26.680000677714446L137.13333333333333,26.684419980836537L138.26666666666665,25.704413555852994L139.39999999999998,24.940988550793378L140.53333333333336,26.313180550019155L141.66666666666669,27.054301763376458L142.8,28.94290060472946L143.93333333333334,28.775035378017208L145.06666666666666,29.62771938245848L146.2,28.98069285183132L147.33333333333331,27.493210122363166L148.46666666666664,27.317910138217684L149.60000000000002,27.509167804604942L150.73333333333335,27.98597583469666L151.86666666666667,28.02959098216195L153,26.42448541185533L154.13333333333333,24.84628986461064L155.26666666666665,24.27251019531954L156.39999999999998,24.48116854101454L157.53333333333336,25.954980762395962L158.66666666666669,24.808364050657957L159.8,23.91514963221411L160.93333333333334,22.563700938234035L162.06666666666666,24.133457145793557L163.2,24.372846215433754L164.33333333333331,25.214963008756172L165.46666666666664,25.21533928268164L166.60000000000002,25.871265108142268L167.73333333333335,26.05441497213974L168.86666666666667,27.18053973224238L170,27.729974566326007L171.13333333333333,26.846716931992205L172.26666666666665,27.142108296955172L173.39999999999998,28.027852832273595L174.53333333333336,28.06221316327438L175.66666666666669,27.43334715305133L176.8,26.943460531087567L177.93333333333334,26.56183885257778L179.06666666666666,26.59237191905504L180.2,25.63270811573176L181.33333333333331,24.557313658906622L182.46666666666664,25.03084679318519L183.60000000000002,25.071912750751864L184.73333333333335,24.448270423623597L185.86666666666667,24.945902112899716L187,25.66137355288214L188.13333333333333,24.579644034446773L189.26666666666665,27.015142233888525L190.39999999999998,26.945495253096084L191.53333333333336,25.579974838913444L192.66666666666669,23.860599774252904L193.8,25.471557693088528L194.93333333333334,25.41522654177652L196.06666666666666,25.69916092894084L197.2,26.5759804785541L198.33333333333331,26.27557189165421L199.46666666666664,25.385920894386572L200.60000000000002,24.692882767515073L201.73333333333335,26.119906144839746L202.86666666666667,26.248106339727087L204,26.34797429154429L205.13333333333333,26.753587780046303L206.26666666666665,27.069560687589302L207.39999999999998,26.00443816641996L208.53333333333336,25.174707722429105L209.66666666666669,24.856164060596512L210.8,26.247102272150187L211.93333333333334,26.34719212290193L213.06666666666666,25.44171305452852L214.2,25.064161214301947L215.33333333333331,23.458780960680542L216.46666666666664,23.51945711319439L217.60000000000002,23.89454019003901L218.73333333333335,23.858913552864635L219.86666666666667,23.503344048469472L221,23.226355404545643L222.13333333333333,23.010581250928965L223.26666666666665,21.859042169213012L224.39999999999998,22.273260594641187L225.53333333333336,21.284669377964804L226.66666666666669,22.80927325236783L227.8,22.685674254382462L228.93333333333334,24.22847435907309L230.06666666666666,24.11904827054221L231.2,25.01725440968565L232.33333333333331,24.405691575933048L233.46666666666664,25.56836785256101L234.60000000000002,26.146274364078266L235.73333333333335,25.285198120404885L236.86666666666667,24.942236080619665L238,24.675068651626987L239.13333333333333,24.139128870405358L240.26666666666665,24.049448134870005L241.39999999999998,23.979586841887965L242.53333333333336,23.269532186582325L243.66666666666669,23.04421596413553L244.8,21.885243610800927L245.93333333333334,21.63803880956553L247.06666666666666,21.773282623439457L248.2,20.567370184362346" style="fill: none;" fill="none"></path></g><g><path stroke="rgb(204, 51, 17)" stroke-width="2px" d="M22.666666666666664,154.2666668655972L23.799999999999997,154.26666686559716L24.93333333333333,155.51011376769856L26.06666666666667,155.0751246501895L27.200000000000003,154.82458193423673L28.333333333333336,153.821484312121L29.46666666666667,151.55912634035715L30.6,152.630616885981L31.733333333333334,152.66835382099543L32.86666666666667,149.838333650075L34,149.48294530539576L35.13333333333334,149.56057441526357L36.266666666666666,148.2551176572279L37.400000000000006,147.5968198978078L38.53333333333333,144.74183863337117L39.66666666666667,144.21459588898924L40.8,141.81225320069785L41.93333333333334,138.6284466497158L43.06666666666666,137.15442860984945L44.2,134.3609815735622L45.33333333333333,134.8288058824224L46.46666666666667,132.55891120928453L47.599999999999994,132.10982074811463L48.733333333333334,130.7746370618974L49.86666666666666,129.73584072557344L51,129.58404004262258L52.13333333333334,129.13767444031208L53.266666666666666,128.79016273098821L54.400000000000006,125.56711370339448L55.53333333333333,124.69726339623605L56.66666666666667,124.0198406957098L57.8,122.83638857791763L58.93333333333334,119.29141285315251L60.06666666666666,119.15331521123709L61.2,117.73427221357174L62.33333333333333,117.284642286826L63.46666666666667,117.59009892106855L64.6,117.50019685296495L65.73333333333333,115.79098557609854L66.86666666666666,115.11521331770965L68,115.2444560268398L69.13333333333333,115.67295976032429L70.26666666666668,114.03981675291283L71.4,114.73454557349748L72.53333333333333,115.27573471116001L73.66666666666666,116.35295865506995L74.80000000000001,115.22519598280732L75.93333333333334,115.98576534397634L77.06666666666666,113.62788358020377L78.19999999999999,110.47982585846069L79.33333333333334,109.99439942673158L80.46666666666667,109.94406990252732L81.6,110.23268116445242L82.73333333333332,111.44096054112013L83.86666666666667,112.38220951521772L85,113.44325869588451L86.13333333333333,114.59763222518463L87.26666666666668,112.87435477761385L88.4,111.53192199276981L89.53333333333333,110.15835060797005L90.66666666666666,109.41615510032513L91.80000000000001,110.80488531940831L92.93333333333334,108.60853910449617L94.06666666666666,107.55321831295451L95.19999999999999,105.74767333709029L96.33333333333334,104.99678759470473L97.46666666666667,104.08403125011623L98.6,104.0286268127793L99.73333333333332,102.01856661430821L100.86666666666667,98.48583059416401L102,101.63452864498734L103.13333333333333,99.17011413025092L104.26666666666668,96.59470252230618L105.4,97.21098970287211L106.53333333333333,100.64142755312466L107.66666666666666,100.36338849448966L108.80000000000001,100.14679606843747L109.93333333333334,100.63370425623714L111.06666666666666,100.68518937894781L112.19999999999999,97.77494616604156L113.33333333333334,93.21315026964012L114.46666666666667,95.56021053431874L115.6,92.47132027904111L116.73333333333332,90.72070943390781L117.86666666666667,91.97951637389512L119,92.63230964868633L120.13333333333333,90.5183018454675L121.26666666666668,88.87148976706443L122.4,83.65482300098371L123.53333333333333,85.81955715721989L124.66666666666666,82.58863486872339L125.80000000000001,81.7108301304494L126.93333333333334,80.04356922324111L128.06666666666666,81.69512407097379L129.2,82.65386894326356L130.33333333333334,81.10601476647587L131.46666666666667,81.86713644099864L132.6,81.8044155634152L133.73333333333332,77.8217558433912L134.86666666666667,75.37489858354272L136,74.12442948621442L137.13333333333333,76.10066319969319L138.26666666666665,74.68980012220001L139.39999999999998,72.27947041474472L140.53333333333336,71.38527458869467L141.66666666666669,67.41052859195017L142.8,64.96983416856547L143.93333333333334,68.31360073916136L145.06666666666666,66.65677838729512L146.2,63.071397342995695L147.33333333333331,63.556551003794L148.46666666666664,66.22920409169087L149.60000000000002,69.2946499092713L150.73333333333335,67.09319933677598L151.86666666666667,66.68953475694828L153,64.40817997110446L154.13333333333333,62.30318823889594L155.26666666666665,61.31903434151805L156.39999999999998,61.863643871606214L157.53333333333336,62.28789469554488L158.66666666666669,60.323669655198984L159.8,59.44917105684229L160.93333333333334,58.11230394064974L162.06666666666666,60.021235551342045L163.2,60.52484226002274L164.33333333333331,59.60588451600002L165.46666666666664,59.545651095418606L166.60000000000002,57.8596455366644L167.73333333333335,57.20187991446754L168.86666666666667,58.98419692697014L170,56.43882367733407L171.13333333333333,56.75069434806149L172.26666666666665,56.01019058450956L173.39999999999998,53.46643807454505L174.53333333333336,54.10738765551291L175.66666666666669,55.26232204109914L176.8,54.85074855738593L177.93333333333334,55.18576552164596L179.06666666666666,55.118927382768206L180.2,52.44432768635218L181.33333333333331,51.99989824696536L182.46666666666664,49.031154927452775L183.60000000000002,49.34103666778273L184.73333333333335,49.582434543499744L185.86666666666667,51.737383566840876L187,54.07172156409631L188.13333333333333,51.9563707076431L189.26666666666665,51.619779760551L190.39999999999998,50.70194270469355L191.53333333333336,49.986947638180624L192.66666666666669,46.807431741197206L193.8,48.59220536779864L194.93333333333334,48.99909496081216L196.06666666666666,48.98824559973335L197.2,50.618875717634594L198.33333333333331,50.25005480929802L199.46666666666664,47.340208581534L200.60000000000002,49.66287318843325L201.73333333333335,48.84969417703792L202.86666666666667,47.56059501908828L204,47.5398377910941L205.13333333333333,47.19584960251072L206.26666666666665,49.878233897810446L207.39999999999998,49.34527847761868L208.53333333333336,49.58573891336195L209.66666666666669,47.80615751464839L210.8,49.04239639128076L211.93333333333334,46.72726098187445L213.06666666666666,46.56285226812864L214.2,48.40167795827821L215.33333333333331,50.16193952494106L216.46666666666664,48.58283414510481L217.60000000000002,45.38581097605484L218.73333333333335,45.84568102157107L219.86666666666667,44.56483606290695L221,44.87832325625294L222.13333333333333,41.84436428556654L223.26666666666665,40.13654295547451L224.39999999999998,46.673750451963116L225.53333333333336,44.22645113313379L226.66666666666669,44.94253970393555L227.8,42.87783796042032L228.93333333333334,43.2363353803795L230.06666666666666,41.876521146406475L231.2,41.472860520153745L232.33333333333331,41.158408892302845L233.46666666666664,42.55253479832828L234.60000000000002,42.32729150903714L235.73333333333335,39.5292942004491L236.86666666666667,41.28345445337419L238,41.99431062839059L239.13333333333333,41.56461852661937L240.26666666666665,39.26298830118202L241.39999999999998,42.05945121995413L242.53333333333336,42.926628463592664L243.66666666666669,42.61871047427812L244.8,42.05102600656576L245.93333333333334,39.641899728060224L247.06666666666666,40.715539497371L248.2,41.5519048776641" style="fill: none;" fill="none"></path></g><g><path stroke="rgb(0, 119, 187)" stroke-width="2px" d="M22.666666666666664,154.2666668655972L23.799999999999997,155.93427035090156L24.93333333333333,155.85703533757984L26.06666666666667,155.30068429679724L27.200000000000003,154.52055208644776L28.333333333333336,153.18182390406014L29.46666666666667,150.69371422033424L30.6,150.8487248064199L31.733333333333334,146.56177393669896L32.86666666666667,146.27397047020287L34,142.20673034601998L35.13333333333334,141.21654280658026L36.266666666666666,137.3956413079779L37.400000000000006,136.16973620748055L38.53333333333333,132.5437725020243L39.66666666666667,131.75718266926356L40.8,129.81987363551767L41.93333333333334,126.00112994635015L43.06666666666666,122.38184762739252L44.2,118.25467448390313L45.33333333333333,114.39154416357889L46.46666666666667,111.71938087849959L47.599999999999994,109.31322802693539L48.733333333333334,108.75641609222681L49.86666666666666,105.03865882324239L51,100.17548758805013L52.13333333333334,97.70278953652064L53.266666666666666,97.09017679657862L54.400000000000006,93.9887614111267L55.53333333333333,94.85362724565294L56.66666666666667,90.60778306008517L57.8,85.00550067624928L58.93333333333334,86.8722268978197L60.06666666666666,85.70314107972294L61.2,82.4974341964526L62.33333333333333,80.98396359394718L63.46666666666667,79.4771939963538L64.6,77.3199545624556L65.73333333333333,78.59005201620897L66.86666666666666,75.31761654409362L68,74.07976254869432L69.13333333333333,71.80418780699921L70.26666666666668,71.67065925009545L71.4,71.56664164257701L72.53333333333333,73.12471790833872L73.66666666666666,73.35499016263955L74.80000000000001,72.8787333775968L75.93333333333334,77.42501161857115L77.06666666666666,75.06582340107975L78.19999999999999,74.86710823112499L79.33333333333334,74.0566747727111L80.46666666666667,70.47499214718553L81.6,69.97958513427959L82.73333333333332,69.92148022848502L83.86666666666667,66.27022883167595L85,67.68752565312113L86.13333333333333,67.48033312920984L87.26666666666668,67.31893020661053L88.4,69.48791470962047L89.53333333333333,68.22720128673886L90.66666666666666,67.57292211764502L91.80000000000001,67.71887349277017L92.93333333333334,63.57095246702626L94.06666666666666,61.978804185126066L95.19999999999999,62.37760461531458L96.33333333333334,62.68827013645941L97.46666666666667,61.94682945366186L98.6,62.3526962810636L99.73333333333332,62.341050168093616L100.86666666666667,62.987610571073276L102,62.18001567623817L103.13333333333333,65.15688311770325L104.26666666666668,65.50896273452143L105.4,63.16069798949175L106.53333333333333,63.62611621082712L107.66666666666666,61.36614420269329L108.80000000000001,60.916893389353405L109.93333333333334,59.58347598708967L111.06666666666666,60.83946027093468L112.19999999999999,58.86752288024297L113.33333333333334,59.95391644505328L114.46666666666667,56.538600515548424L115.6,55.51715313392974L116.73333333333332,56.36052934943923L117.86666666666667,55.70625205018797L119,54.86875368003605L120.13333333333333,52.905075079277324L121.26666666666668,54.981353252876644L122.4,53.97624116306453L123.53333333333333,55.48797527777991L124.66666666666666,56.33779979895975L125.80000000000001,56.016362084761866L126.93333333333334,56.74941312154411L128.06666666666666,56.99264352511662L129.2,52.92050349893036L130.33333333333334,51.05957183480686L131.46666666666667,50.92117343860738L132.6,49.174277363809864L133.73333333333332,47.81344532155873L134.86666666666667,49.37588994692254L136,49.28176889391227L137.13333333333333,49.53626494765689L138.26666666666665,50.71796643563869L139.39999999999998,49.343795462567385L140.53333333333336,49.25676729060035L141.66666666666669,46.23862125042254L142.8,45.526569209253154L143.93333333333334,43.66061329909542L145.06666666666666,44.173933723244545L146.2,43.590361271546215L147.33333333333331,41.16885825351417L148.46666666666664,40.92159112659044L149.60000000000002,42.368053758839096L150.73333333333335,42.83921348734796L151.86666666666667,44.84533063997807L153,44.113379469682144L154.13333333333333,43.8710058620581L155.26666666666665,44.010013175755375L156.39999999999998,44.77393453513784L157.53333333333336,43.074310887963065L158.66666666666669,41.75030406681398L159.8,42.68580283129654L160.93333333333334,42.758923660755755L162.06666666666666,41.50461741681954L163.2,40.19969649875688L164.33333333333331,40.49443047367106L165.46666666666664,42.363111964250464L166.60000000000002,41.52409841321784L167.73333333333335,39.88705584091488L168.86666666666667,43.856867203490964L170,40.72083366642863L171.13333333333333,42.867296405444904L172.26666666666665,40.93340707685974L173.39999999999998,41.39380736804952L174.53333333333336,38.80211005461973L175.66666666666669,39.73352698772453L176.8,39.803468070540504L177.93333333333334,39.53013582001782L179.06666666666666,37.022491610727116L180.2,38.347204219932166L181.33333333333331,38.06788797241799L182.46666666666664,36.86685155349545L183.60000000000002,35.60342782911846L184.73333333333335,32.65232066967121L185.86666666666667,33.63157368676468L187,33.738779079007884L188.13333333333333,34.150108433601645L189.26666666666665,36.76525043302411L190.39999999999998,38.14681334250153L191.53333333333336,37.58396712486319L192.66666666666669,36.16206085921394L193.8,35.71002858634586L194.93333333333334,34.37444638367262L196.06666666666666,33.9896605558628L197.2,33.68991239599896L198.33333333333331,33.456408579465034L199.46666666666664,32.29105809033652L200.60000000000002,31.711068367281314L201.73333333333335,31.58707272705766L202.86666666666667,31.81829647735978L204,31.014968762796514L205.13333333333333,31.044811135163997L206.26666666666665,32.05150740534725L207.39999999999998,34.47480752394125L208.53333333333336,32.100941805974486L209.66666666666669,32.546416843872294L210.8,32.893441898394684L211.93333333333334,33.163774415867636L213.06666666666666,31.735279722857825L214.2,30.294666002966835L215.33333333333331,29.500244269208082L216.46666666666664,27.897940676501037L217.60000000000002,27.633195239891194L218.73333333333335,27.09914219073582L219.86666666666667,28.322198589565062L221,27.963692154168086L222.13333333333333,28.34005030300611L223.26666666666665,29.94449871709628L224.39999999999998,29.88309861552716L225.53333333333336,30.163084290441162L226.66666666666669,31.03682583927187L227.8,31.061837797738292L228.93333333333334,30.75350575934729L230.06666666666666,31.168947809513384L231.2,31.492577166592753L232.33333333333331,31.416868081721276L233.46666666666664,31.68570705864269L234.60000000000002,28.944781527458332L235.73333333333335,28.776500616823284L236.86666666666667,29.628860803487186L238,30.29284938889836L239.13333333333333,28.843196418776046L240.26666666666665,29.025184125135723L241.39999999999998,28.183501532341296L242.53333333333336,29.49473087071206L243.66666666666669,29.20491115521793L244.8,29.634776258860285L245.93333333333334,30.625273882670342L247.06666666666666,31.724687885654703L248.2,30.61423131582194" style="fill: none;" fill="none"></path></g><g><path stroke="rgb(51, 187, 238)" stroke-width="2px" d="M22.666666666666664,157.23333346595368L23.799999999999997,155.56572998064928L24.93333333333333,154.39951786025958L26.06666666666667,154.3530432284673L27.200000000000003,154.32627501748578L28.333333333333336,154.73146779432227L29.46666666666667,154.2101818222154L30.6,153.08688128249545L31.733333333333334,152.2787958776689L32.86666666666667,151.32865669995547L34,149.22025841265815L35.13333333333334,144.5283149978033L36.266666666666666,143.69783195241254L37.400000000000006,143.40204710266002L38.53333333333333,140.15355365156398L39.66666666666667,136.98577719213773L40.8,136.20422349157784L41.93333333333334,135.93136163603276L43.06666666666666,133.40516870731176L44.2,132.43611335674657L45.33333333333333,131.0247026804871L46.46666666666667,129.2698140723745L47.599999999999994,126.59012256007793L48.733333333333334,120.5623886503742L49.86666666666666,118.8287992258048L51,119.12122745188508L52.13333333333334,120.33346571850922L53.266666666666666,118.98041000334581L54.400000000000006,117.59881746575873L55.53333333333333,116.52294572404404L56.66666666666667,116.01303623439222L57.8,112.992483734066L58.93333333333334,109.65616587734728L60.06666666666666,107.05751993632772L61.2,106.34486055726211L62.33333333333333,103.16688423787504L63.46666666666667,102.98633542069997L64.6,100.55080489337507L65.73333333333333,104.88248233057548L66.86666666666666,103.01145164147577L68,100.5704672968295L69.13333333333333,98.34114832774533L70.26666666666668,96.27670978498837L71.4,98.27457447015584L72.53333333333333,97.53615018927573L73.66666666666666,98.92784173353013L74.80000000000001,99.68414486653651L75.93333333333334,101.58457718227885L77.06666666666666,100.44246381504658L78.19999999999999,98.89712351793244L79.33333333333334,98.0211230377694L80.46666666666667,97.3387196764296L81.6,96.80712807249692L82.73333333333332,95.40956717986639L83.86666666666667,93.00960117225239L85,93.76256367244808L86.13333333333333,91.07095160804279L87.26666666666668,90.9410875902262L88.4,93.79027484019669L89.53333333333333,91.42035599425351L90.66666666666666,89.90200789000001L91.80000000000001,90.03048052456404L92.93333333333334,87.83584392820592L94.06666666666666,89.73220636112318L95.19999999999999,90.2260224843622L96.33333333333334,92.24978808799789L97.46666666666667,91.85940125347587L98.6,92.21092363034462L99.73333333333332,90.84567675516398L100.86666666666667,89.12651477823985L102,89.42637137225654L103.13333333333333,89.33214329752607L104.26666666666668,89.91437332085133L105.4,89.71229681504086L106.53333333333333,88.57143014844132L107.66666666666666,87.02706035269192L108.80000000000001,87.46308001668743L109.93333333333334,86.81929026865865L111.06666666666666,84.02305966349111L112.19999999999999,87.08986356246899L113.33333333333334,87.83982007042874L114.46666666666667,83.83460331939922L115.6,81.37017218108227L116.73333333333332,80.43383134210742L117.86666666666667,81.67132190817586L119,79.68497596325632L120.13333333333333,76.17071239365319L121.26666666666668,76.38345216848631L122.4,79.4995255939797L123.53333333333333,77.00969757289131L124.66666666666666,74.41448688253223L125.80000000000001,71.40936869266781L126.93333333333334,73.00218177952468L128.06666666666666,73.58735046602045L129.2,75.02664593494384L130.33333333333334,74.8365897350714L131.46666666666667,75.99980332549808L132.6,72.97214655601917L133.73333333333332,73.89176938092552L134.86666666666667,71.65780446727275L136,67.29501301329039L137.13333333333333,68.48583133508467L138.26666666666665,70.06911346977506L139.39999999999998,70.31903923664092L140.53333333333336,70.18591505499121L141.66666666666669,73.36037876573927L142.8,69.60476745394391L143.93333333333334,65.69569717994808L145.06666666666666,64.28961516063204L146.2,61.55519354346248L147.33333333333331,62.70324655193416L148.46666666666664,63.597579845533176L149.60000000000002,61.67173074107528L150.73333333333335,59.843677934666516L151.86666666666667,57.763992090401516L153,56.143916817719344L154.13333333333333,53.89842716425133L155.26666666666665,53.78827444832143L156.39999999999998,53.04683277453931L157.53333333333336,54.1083334347845L158.66666666666669,55.91869151122452L159.8,53.722976650492186L160.93333333333334,54.63504951415169L162.06666666666666,54.362103258893825L163.2,53.16602906393895L164.33333333333331,53.217736328178106L165.46666666666664,52.60238357894775L166.60000000000002,50.81175641721238L167.73333333333335,50.07249252023276L168.86666666666667,48.84097128247342L170,49.848516316416436L171.13333333333333,51.61684491390669L172.26666666666665,51.355289167230325L173.39999999999998,49.512453516448176L174.53333333333336,52.33850105484038L175.66666666666669,52.245275655054016L176.8,55.77863687089925L177.93333333333334,56.56422517988511L179.06666666666666,55.20929839442749L180.2,54.15381042855603L181.33333333333331,53.003768949105805L182.46666666666664,50.46880291249285L183.60000000000002,47.18279699988642L184.73333333333335,47.5733494881722L185.86666666666667,49.188855292692125L187,49.136068898267865L188.13333333333333,43.849880770611264L189.26666666666665,43.6657403754819L190.39999999999998,45.16137873179741L191.53333333333336,48.949013797597445L192.66666666666669,49.60486508166176L193.8,46.83760578370533L194.93333333333334,46.32099451471856L196.06666666666666,41.32912147179002L197.2,41.374252527663856L198.33333333333331,41.409409620189535L199.46666666666664,41.43679699526709L200.60000000000002,41.45813176045249L201.73333333333335,41.802567896568235L202.86666666666667,41.087434584493394L204,39.87471107237488L205.13333333333333,39.58563411844679L206.26666666666665,40.01607587940947L207.39999999999998,38.384489933041834L208.53333333333336,39.080384558979006L209.66666666666669,39.29467011854774L210.8,37.4946984912942L211.93333333333334,36.74815330173638L213.06666666666666,37.80567832319204L214.2,36.9904065907848L215.33333333333331,37.010942619312175L216.46666666666664,37.68257484754727L217.60000000000002,37.222325337293825L218.73333333333335,37.191607322842714L219.86666666666667,38.478945359670234L221,37.51488161220129L222.13333333333333,37.74732696897158L223.26666666666665,35.96150182373805L224.39999999999998,36.86506046779502L225.53333333333336,34.94639791134557L226.66666666666669,34.43521079592006L227.8,34.69262874107622L228.93333333333334,35.2209736743892L230.06666666666666,34.3212889612947L231.2,34.27606727786673L232.33333333333331,32.601755862355105L233.46666666666664,32.93655099379282L234.60000000000002,33.19735640118276L235.73333333333335,31.10580738134564L236.86666666666667,32.426839835159086L238,34.439375132728344L239.13333333333333,34.36805640541354L240.26666666666665,34.31249911683534L241.39999999999998,33.94140363499656L242.53333333333336,33.98013660868048L243.66666666666669,32.699042225095354L244.8,32.028888008258434L245.93333333333334,33.80155430553643L247.06666666666666,35.18246135111596L248.2,34.291287861464866" style="fill: none;" fill="none"></path></g></g></g></g><g opacity="0.2"><g><g><g><path stroke="rgb(255, 112, 67)" stroke-width="2px" d="M22.666666666666664,155.74999988948306L23.799999999999997,155.74999988948306L24.93333333333333,157.23333346595368L26.06666666666667,154.2666668655972L27.200000000000003,158.7166667661319L28.333333333333336,157.23333346595368L29.46666666666667,157.23333346595368L30.6,149.81666613618535L31.733333333333334,152.78333328912657L32.86666666666667,143.88333404064178L34,139.43333386381468L35.13333333333334,136.466665605704L36.266666666666666,133.49999955793223L37.400000000000006,123.11666507522267L38.53333333333333,134.98333368698758L39.66666666666667,123.11666507522267L40.8,145.3666670645277L41.93333333333334,127.5666674623887L43.06666666666666,114.21666472156843L44.2,114.21666472156843L45.33333333333333,121.63333315650624L46.46666666666667,115.70000106096268L47.599999999999994,108.2833326260249L48.733333333333334,102.35000053048135L49.86666666666666,102.35000053048135L51,100.86666861176492L52.13333333333334,96.4166684349378L53.266666666666666,90.48333191871644L54.400000000000006,75.6500038901965L55.53333333333333,84.55000424385072L56.66666666666667,90.48333191871644L57.8,78.61666772762936L58.93333333333334,74.16666313012443L60.06666666666666,72.683331211408L61.2,80.0999996463458L62.33333333333333,66.75000353654228L63.46666666666667,65.2666627764702L64.6,66.75000353654228L65.73333333333333,51.916666666666686L66.86666666666666,48.950002829233824L68,50.433334747950255L69.13333333333333,63.78333085775377L70.26666666666668,47.466670910517394L71.4,68.23333545525871L72.53333333333333,48.950002829233824L73.66666666666666,38.56667055686319L74.80000000000001,50.433334747950255L75.93333333333334,44.49999823172891L77.06666666666666,45.98333015044534L78.19999999999999,43.01666631301248L79.33333333333334,56.36666242281598L80.46666666666667,37.083329796791105L81.6,51.916666666666686L82.73333333333332,34.116665959358244L83.86666666666667,37.083329796791105L85,28.18332944313687L86.13333333333333,40.05000247557962L87.26666666666668,35.599997878074674L88.4,34.116665959358244L89.53333333333333,37.083329796791105L90.66666666666666,32.63333404064181L91.80000000000001,29.66667020320895L92.93333333333334,29.66667020320895L94.06666666666666,41.53333439429605L95.19999999999999,28.18332944313687L96.33333333333334,28.18332944313687L97.46666666666667,34.116665959358244L98.6,29.66667020320895L99.73333333333332,35.599997878074674L100.86666666666667,26.69999752442044L102,35.599997878074674L103.13333333333333,25.21666560570401L104.26666666666668,29.66667020320895L105.4,28.18332944313687L106.53333333333333,32.63333404064181L107.66666666666666,40.05000247557962L108.80000000000001,22.250001768271147L109.93333333333334,25.21666560570401L111.06666666666666,31.150002121925382L112.19999999999999,29.66667020320895L113.33333333333334,26.69999752442044L114.46666666666667,34.116665959358244L115.6,29.66667020320895L116.73333333333332,29.66667020320895L117.86666666666667,26.69999752442044L119,22.250001768271147L120.13333333333333,31.150002121925382L121.26666666666668,17.799997170766204L122.4,29.66667020320895L123.53333333333333,20.766669849554717L124.66666666666666,26.69999752442044L125.80000000000001,28.18332944313687L126.93333333333334,32.63333404064181L128.06666666666666,34.116665959358244L129.2,22.250001768271147L130.33333333333334,26.69999752442044L131.46666666666667,31.150002121925382L132.6,26.69999752442044L133.73333333333332,29.66667020320895L134.86666666666667,26.69999752442044L136,22.250001768271147L137.13333333333333,26.69999752442044L138.26666666666665,22.250001768271147L139.39999999999998,22.250001768271147L140.53333333333336,31.150002121925382L141.66666666666669,29.66667020320895L142.8,35.599997878074674L143.93333333333334,28.18332944313687L145.06666666666666,32.63333404064181L146.2,26.69999752442044L147.33333333333331,22.250001768271147L148.46666666666664,26.69999752442044L149.60000000000002,28.18332944313687L150.73333333333335,29.66667020320895L151.86666666666667,28.18332944313687L153,20.766669849554717L154.13333333333333,19.283329089482635L155.26666666666665,22.250001768271147L156.39999999999998,25.21666560570401L157.53333333333336,31.150002121925382L158.66666666666669,20.766669849554717L159.8,20.766669849554717L160.93333333333334,17.799997170766204L162.06666666666666,29.66667020320895L163.2,25.21666560570401L164.33333333333331,28.18332944313687L165.46666666666664,25.21666560570401L166.60000000000002,28.18332944313687L167.73333333333335,26.69999752442044L168.86666666666667,31.150002121925382L170,29.66667020320895L171.13333333333333,23.733333686987578L172.26666666666665,28.18332944313687L173.39999999999998,31.150002121925382L174.53333333333336,28.18332944313687L175.66666666666669,25.21666560570401L176.8,25.21666560570401L177.93333333333334,25.21666560570401L179.06666666666666,26.69999752442044L180.2,22.250001768271147L181.33333333333331,20.766669849554717L182.46666666666664,26.69999752442044L183.60000000000002,25.21666560570401L184.73333333333335,22.250001768271147L185.86666666666667,26.69999752442044L187,28.18332944313687L188.13333333333333,20.766669849554717L189.26666666666665,35.599997878074674L190.39999999999998,26.69999752442044L191.53333333333336,20.766669849554717L192.66666666666669,17.799997170766204L193.8,31.150002121925382L194.93333333333334,25.21666560570401L196.06666666666666,26.69999752442044L197.2,29.66667020320895L198.33333333333331,25.21666560570401L199.46666666666664,22.250001768271147L200.60000000000002,22.250001768271147L201.73333333333335,31.150002121925382L202.86666666666667,26.69999752442044L204,26.69999752442044L205.13333333333333,28.18332944313687L206.26666666666665,28.18332944313687L207.39999999999998,22.250001768271147L208.53333333333336,22.250001768271147L209.66666666666669,23.733333686987578L210.8,31.150002121925382L211.93333333333334,26.69999752442044L213.06666666666666,22.250001768271147L214.2,23.733333686987578L215.33333333333331,17.799997170766204L216.46666666666664,23.733333686987578L217.60000000000002,25.21666560570401L218.73333333333335,23.733333686987578L219.86666666666667,22.250001768271147L221,22.250001768271147L222.13333333333333,22.250001768271147L223.26666666666665,17.799997170766204L224.39999999999998,23.733333686987578L225.53333333333336,17.799997170766204L226.66666666666669,28.18332944313687L227.8,22.250001768271147L228.93333333333334,29.66667020320895L230.06666666666666,23.733333686987578L231.2,28.18332944313687L232.33333333333331,22.250001768271147L233.46666666666664,29.66667020320895L234.60000000000002,28.18332944313687L235.73333333333335,22.250001768271147L236.86666666666667,23.733333686987578L238,23.733333686987578L239.13333333333333,22.250001768271147L240.26666666666665,23.733333686987578L241.39999999999998,23.733333686987578L242.53333333333336,20.766669849554717L243.66666666666669,22.250001768271147L244.8,17.799997170766204L245.93333333333334,20.766669849554717L247.06666666666666,22.250001768271147L248.2,16.316665252049773" style="fill: none;" fill="none"></path></g><g><path stroke="rgb(204, 51, 17)" stroke-width="2px" d="M22.666666666666664,154.2666668655972L23.799999999999997,154.2666668655972L24.93333333333333,157.23333346595368L26.06666666666667,154.2666668655972L27.200000000000003,154.2666668655972L28.333333333333336,151.30000026524067L29.46666666666667,145.3666670645277L30.6,155.74999988948306L31.733333333333334,152.78333328912657L32.86666666666667,140.9166657825311L34,148.33333311229944L35.13333333333334,149.81666613618535L36.266666666666666,143.88333404064178L37.400000000000006,145.3666670645277L38.53333333333333,134.98333368698758L39.66666666666667,142.39999991158646L40.8,133.49999955793223L41.93333333333334,127.5666674623887L43.06666666666666,132.0166676392158L44.2,124.60000141461691L45.33333333333333,136.466665605704L46.46666666666667,124.60000141461691L47.599999999999994,130.53333351016045L48.733333333333334,126.08333333333334L49.86666666666666,126.08333333333334L51,129.04999938110512L52.13333333333334,127.5666674623887L53.266666666666666,127.5666674623887L54.400000000000006,114.21666472156843L55.53333333333333,121.63333315650624L56.66666666666667,121.63333315650624L57.8,118.66666489839554L58.93333333333334,106.80000070730847L60.06666666666666,118.66666489839554L61.2,112.733332802852L62.33333333333333,115.70000106096268L63.46666666666667,118.66666489839554L64.6,117.18333297967911L65.73333333333333,109.76666454474133L66.86666666666666,112.733332802852L68,115.70000106096268L69.13333333333333,117.18333297967911L70.26666666666668,108.2833326260249L71.4,117.18333297967911L72.53333333333333,117.18333297967911L73.66666666666666,120.15000123778981L74.80000000000001,111.25000088413557L75.93333333333334,118.66666489839554L77.06666666666666,105.31666878859204L78.19999999999999,99.38333227237067L79.33333333333334,108.2833326260249L80.46666666666667,109.76666454474133L81.6,111.25000088413557L82.73333333333332,115.70000106096268L83.86666666666667,115.70000106096268L85,117.18333297967911L86.13333333333333,118.66666489839554L87.26666666666668,106.80000070730847L88.4,106.80000070730847L89.53333333333333,105.31666878859204L90.66666666666666,106.80000070730847L91.80000000000001,115.70000106096268L92.93333333333334,100.86666861176492L94.06666666666666,103.83333244919778L95.19999999999999,99.38333227237067L96.33333333333334,102.35000053048135L97.46666666666667,100.86666861176492L98.6,103.83333244919778L99.73333333333332,94.93333209554356L100.86666666666667,86.03333616256715L102,112.733332802852L103.13333333333333,90.48333191871644L104.26666666666668,87.51666808128358L105.4,99.38333227237067L106.53333333333333,112.733332802852L107.66666666666666,99.38333227237067L108.80000000000001,99.38333227237067L109.93333333333334,102.35000053048135L111.06666666666666,100.86666861176492L112.19999999999999,87.51666808128358L113.33333333333334,77.13333580891293L114.46666666666667,103.83333244919778L115.6,81.58333156506222L116.73333333333332,84.55000424385072L117.86666666666667,96.4166684349378L119,94.93333209554356L120.13333333333333,83.06666348377865L121.26666666666668,83.06666348377865L122.4,65.2666627764702L123.53333333333333,93.45000017682713L124.66666666666666,71.19999929269157L125.80000000000001,78.61666772762936L126.93333333333334,74.16666313012443L128.06666666666666,87.51666808128358L129.2,86.03333616256715L130.33333333333334,75.6500038901965L131.46666666666667,84.55000424385072L132.6,81.58333156506222L133.73333333333332,63.78333085775377L134.86666666666667,66.75000353654228L136,69.71666737397514L137.13333333333333,83.06666348377865L138.26666666666665,69.71666737397514L139.39999999999998,63.78333085775377L140.53333333333336,68.23333545525871L141.66666666666669,53.399998585383116L142.8,56.36666242281598L143.93333333333334,80.0999996463458L145.06666666666666,60.81666702032091L146.2,50.433334747950255L147.33333333333331,65.2666627764702L148.46666666666664,75.6500038901965L149.60000000000002,80.0999996463458L150.73333333333335,59.333335101604476L151.86666666666667,65.2666627764702L153,56.36666242281598L154.13333333333333,54.88333050409955L155.26666666666665,57.850003182888045L156.39999999999998,63.78333085775377L157.53333333333336,63.78333085775377L158.66666666666669,53.399998585383116L159.8,56.36666242281598L160.93333333333334,53.399998585383116L162.06666666666666,66.75000353654228L163.2,62.29999893903734L164.33333333333331,56.36666242281598L165.46666666666664,59.333335101604476L166.60000000000002,51.916666666666686L167.73333333333335,54.88333050409955L168.86666666666667,65.2666627764702L170,47.466670910517394L171.13333333333333,57.850003182888045L172.26666666666665,53.399998585383116L173.39999999999998,44.49999823172891L174.53333333333336,56.36666242281598L175.66666666666669,59.333335101604476L176.8,53.399998585383116L177.93333333333334,56.36666242281598L179.06666666666666,54.88333050409955L180.2,43.01666631301248L181.33333333333331,50.433334747950255L182.46666666666664,38.56667055686319L183.60000000000002,50.433334747950255L184.73333333333335,50.433334747950255L185.86666666666667,59.333335101604476L187,62.29999893903734L188.13333333333333,44.49999823172891L189.26666666666665,50.433334747950255L190.39999999999998,47.466670910517394L191.53333333333336,47.466670910517394L192.66666666666669,35.599997878074674L193.8,54.88333050409955L194.93333333333334,50.433334747950255L196.06666666666666,48.950002829233824L197.2,56.36666242281598L198.33333333333331,48.950002829233824L199.46666666666664,37.083329796791105L200.60000000000002,57.850003182888045L201.73333333333335,45.98333015044534L202.86666666666667,43.01666631301248L204,47.466670910517394L205.13333333333333,45.98333015044534L206.26666666666665,59.333335101604476L207.39999999999998,47.466670910517394L208.53333333333336,50.433334747950255L209.66666666666669,41.53333439429605L210.8,53.399998585383116L211.93333333333334,38.56667055686319L213.06666666666666,45.98333015044534L214.2,54.88333050409955L215.33333333333331,56.36666242281598L216.46666666666664,43.01666631301248L217.60000000000002,34.116665959358244L218.73333333333335,47.466670910517394L219.86666666666667,40.05000247557962L221,45.98333015044534L222.13333333333333,31.150002121925382L223.26666666666665,34.116665959358244L224.39999999999998,69.71666737397514L225.53333333333336,35.599997878074674L226.66666666666669,47.466670910517394L227.8,35.599997878074674L228.93333333333334,44.49999823172891L230.06666666666666,37.083329796791105L231.2,40.05000247557962L232.33333333333331,40.05000247557962L233.46666666666664,47.466670910517394L234.60000000000002,41.53333439429605L235.73333333333335,29.66667020320895L236.86666666666667,47.466670910517394L238,44.49999823172891L239.13333333333333,40.05000247557962L240.26666666666665,31.150002121925382L241.39999999999998,51.916666666666686L242.53333333333336,45.98333015044534L243.66666666666669,41.53333439429605L244.8,40.05000247557962L245.93333333333334,31.150002121925382L247.06666666666666,44.49999823172891L248.2,44.49999823172891" style="fill: none;" fill="none"></path></g><g><path stroke="rgb(0, 119, 187)" stroke-width="2px" d="M22.666666666666664,154.2666668655972L23.799999999999997,157.23333346595368L24.93333333333333,155.74999988948306L26.06666666666667,154.2666668655972L27.200000000000003,152.78333328912657L28.333333333333336,149.81666613618535L29.46666666666667,143.88333404064178L30.6,151.30000026524067L31.733333333333334,133.49999955793223L32.86666666666667,145.3666670645277L34,129.04999938110512L35.13333333333334,137.94999973475933L36.266666666666666,124.60000141461691L37.400000000000006,132.0166676392158L38.53333333333333,120.15000123778981L39.66666666666667,129.04999938110512L40.8,123.11666507522267L41.93333333333334,112.733332802852L43.06666666666666,109.76666454474133L44.2,103.83333244919778L45.33333333333333,100.86666861176492L46.46666666666667,102.35000053048135L47.599999999999994,100.86666861176492L48.733333333333334,106.80000070730847L49.86666666666666,91.9666682581107L51,83.06666348377865L52.13333333333334,89.00000000000001L53.266666666666666,94.93333209554356L54.400000000000006,83.06666348377865L55.53333333333333,97.90000035365424L56.66666666666667,75.6500038901965L57.8,65.2666627764702L58.93333333333334,93.45000017682713L60.06666666666666,81.58333156506222L61.2,71.19999929269157L62.33333333333333,75.6500038901965L63.46666666666667,74.16666313012443L64.6,69.71666737397514L65.73333333333333,83.06666348377865L66.86666666666666,63.78333085775377L68,69.71666737397514L69.13333333333333,63.78333085775377L70.26666666666668,71.19999929269157L71.4,71.19999929269157L72.53333333333333,78.61666772762936L73.66666666666666,74.16666313012443L74.80000000000001,71.19999929269157L75.93333333333334,93.45000017682713L77.06666666666666,66.75000353654228L78.19999999999999,74.16666313012443L79.33333333333334,71.19999929269157L80.46666666666667,57.850003182888045L81.6,68.23333545525871L82.73333333333332,69.71666737397514L83.86666666666667,53.399998585383116L85,72.683331211408L86.13333333333333,66.75000353654228L87.26666666666668,66.75000353654228L88.4,77.13333580891293L89.53333333333333,63.78333085775377L90.66666666666666,65.2666627764702L91.80000000000001,68.23333545525871L92.93333333333334,48.950002829233824L94.06666666666666,56.36666242281598L95.19999999999999,63.78333085775377L96.33333333333334,63.78333085775377L97.46666666666667,59.333335101604476L98.6,63.78333085775377L99.73333333333332,62.29999893903734L100.86666666666667,65.2666627764702L102,59.333335101604476L103.13333333333333,75.6500038901965L104.26666666666668,66.75000353654228L105.4,54.88333050409955L106.53333333333333,65.2666627764702L107.66666666666666,53.399998585383116L108.80000000000001,59.333335101604476L109.93333333333334,54.88333050409955L111.06666666666666,65.2666627764702L112.19999999999999,51.916666666666686L113.33333333333334,63.78333085775377L114.46666666666667,44.49999823172891L115.6,51.916666666666686L116.73333333333332,59.333335101604476L117.86666666666667,53.399998585383116L119,51.916666666666686L120.13333333333333,45.98333015044534L121.26666666666668,62.29999893903734L122.4,50.433334747950255L123.53333333333333,60.81666702032091L124.66666666666666,59.333335101604476L125.80000000000001,54.88333050409955L126.93333333333334,59.333335101604476L128.06666666666666,57.850003182888045L129.2,38.56667055686319L130.33333333333334,44.49999823172891L131.46666666666667,50.433334747950255L132.6,43.01666631301248L133.73333333333332,43.01666631301248L134.86666666666667,54.88333050409955L136,48.950002829233824L137.13333333333333,50.433334747950255L138.26666666666665,54.88333050409955L139.39999999999998,44.49999823172891L140.53333333333336,48.950002829233824L141.66666666666669,35.599997878074674L142.8,43.01666631301248L143.93333333333334,37.083329796791105L145.06666666666666,45.98333015044534L146.2,41.53333439429605L147.33333333333331,32.63333404064181L148.46666666666664,40.05000247557962L149.60000000000002,47.466670910517394L150.73333333333335,44.49999823172891L151.86666666666667,51.916666666666686L153,41.53333439429605L154.13333333333333,43.01666631301248L155.26666666666665,44.49999823172891L156.39999999999998,47.466670910517394L157.53333333333336,37.083329796791105L158.66666666666669,37.083329796791105L159.8,45.98333015044534L160.93333333333334,43.01666631301248L162.06666666666666,37.083329796791105L163.2,35.599997878074674L164.33333333333331,41.53333439429605L165.46666666666664,48.950002829233824L166.60000000000002,38.56667055686319L167.73333333333335,34.116665959358244L168.86666666666667,57.850003182888045L170,29.66667020320895L171.13333333333333,50.433334747950255L172.26666666666665,34.116665959358244L173.39999999999998,43.01666631301248L174.53333333333336,29.66667020320895L175.66666666666669,43.01666631301248L176.8,40.05000247557962L177.93333333333334,38.56667055686319L179.06666666666666,28.18332944313687L180.2,43.01666631301248L181.33333333333331,37.083329796791105L182.46666666666664,32.63333404064181L183.60000000000002,31.150002121925382L184.73333333333335,22.250001768271147L185.86666666666667,37.083329796791105L187,34.116665959358244L188.13333333333333,35.599997878074674L189.26666666666665,45.98333015044534L190.39999999999998,43.01666631301248L191.53333333333336,35.599997878074674L192.66666666666669,31.150002121925382L193.8,34.116665959358244L194.93333333333334,29.66667020320895L196.06666666666666,32.63333404064181L197.2,32.63333404064181L198.33333333333331,32.63333404064181L199.46666666666664,28.18332944313687L200.60000000000002,29.66667020320895L201.73333333333335,31.150002121925382L202.86666666666667,32.63333404064181L204,28.18332944313687L205.13333333333333,31.150002121925382L206.26666666666665,35.599997878074674L207.39999999999998,43.01666631301248L208.53333333333336,23.733333686987578L209.66666666666669,34.116665959358244L210.8,34.116665959358244L211.93333333333334,34.116665959358244L213.06666666666666,26.69999752442044L214.2,25.21666560570401L215.33333333333331,26.69999752442044L216.46666666666664,22.250001768271147L217.60000000000002,26.69999752442044L218.73333333333335,25.21666560570401L219.86666666666667,32.63333404064181L221,26.69999752442044L222.13333333333333,29.66667020320895L223.26666666666665,35.599997878074674L224.39999999999998,29.66667020320895L225.53333333333336,31.150002121925382L226.66666666666669,34.116665959358244L227.8,31.150002121925382L228.93333333333334,29.66667020320895L230.06666666666666,32.63333404064181L231.2,32.63333404064181L232.33333333333331,31.150002121925382L233.46666666666664,32.63333404064181L234.60000000000002,19.283329089482635L235.73333333333335,28.18332944313687L236.86666666666667,32.63333404064181L238,32.63333404064181L239.13333333333333,23.733333686987578L240.26666666666665,29.66667020320895L241.39999999999998,25.21666560570401L242.53333333333336,34.116665959358244L243.66666666666669,28.18332944313687L244.8,31.150002121925382L245.93333333333334,34.116665959358244L247.06666666666666,35.599997878074674L248.2,26.69999752442044" style="fill: none;" fill="none"></path></g><g><path stroke="rgb(51, 187, 238)" stroke-width="2px" d="M22.666666666666664,157.23333346595368L23.799999999999997,154.2666668655972L24.93333333333333,152.78333328912657L26.06666666666667,154.2666668655972L27.200000000000003,154.2666668655972L28.333333333333336,155.74999988948306L29.46666666666667,152.78333328912657L30.6,149.81666613618535L31.733333333333334,149.81666613618535L32.86666666666667,148.33333311229944L34,142.39999991158646L35.13333333333334,129.04999938110512L36.266666666666666,140.9166657825311L37.400000000000006,142.39999991158646L38.53333333333333,129.04999938110512L39.66666666666667,126.08333333333334L40.8,133.49999955793223L41.93333333333334,134.98333368698758L43.06666666666666,124.60000141461691L44.2,129.04999938110512L45.33333333333333,126.08333333333334L46.46666666666667,123.11666507522267L47.599999999999994,117.18333297967911L48.733333333333334,99.38333227237067L49.86666666666666,112.733332802852L51,120.15000123778981L52.13333333333334,124.60000141461691L53.266666666666666,114.21666472156843L54.400000000000006,112.733332802852L55.53333333333333,112.733332802852L56.66666666666667,114.21666472156843L57.8,102.35000053048135L58.93333333333334,97.90000035365424L60.06666666666666,97.90000035365424L61.2,103.83333244919778L62.33333333333333,91.9666682581107L63.46666666666667,102.35000053048135L64.6,91.9666682581107L65.73333333333333,120.15000123778981L66.86666666666666,96.4166684349378L68,91.9666682581107L69.13333333333333,90.48333191871644L70.26666666666668,89.00000000000001L71.4,105.31666878859204L72.53333333333333,94.93333209554356L73.66666666666666,103.83333244919778L74.80000000000001,102.35000053048135L75.93333333333334,108.2833326260249L77.06666666666666,96.4166684349378L78.19999999999999,93.45000017682713L79.33333333333334,94.93333209554356L80.46666666666667,94.93333209554356L81.6,94.93333209554356L82.73333333333332,90.48333191871644L83.86666666666667,84.55000424385072L85,96.4166684349378L86.13333333333333,81.58333156506222L87.26666666666668,90.48333191871644L88.4,103.83333244919778L89.53333333333333,83.06666348377865L90.66666666666666,84.55000424385072L91.80000000000001,90.48333191871644L92.93333333333334,80.0999996463458L94.06666666666666,96.4166684349378L95.19999999999999,91.9666682581107L96.33333333333334,99.38333227237067L97.46666666666667,90.48333191871644L98.6,93.45000017682713L99.73333333333332,86.03333616256715L100.86666666666667,83.06666348377865L102,90.48333191871644L103.13333333333333,89.00000000000001L104.26666666666668,91.9666682581107L105.4,89.00000000000001L106.53333333333333,84.55000424385072L107.66666666666666,81.58333156506222L108.80000000000001,89.00000000000001L109.93333333333334,84.55000424385072L111.06666666666666,74.16666313012443L112.19999999999999,97.90000035365424L113.33333333333334,90.48333191871644L114.46666666666667,69.71666737397514L115.6,72.683331211408L116.73333333333332,77.13333580891293L117.86666666666667,86.03333616256715L119,72.683331211408L120.13333333333333,63.78333085775377L121.26666666666668,77.13333580891293L122.4,90.48333191871644L123.53333333333333,68.23333545525871L124.66666666666666,65.2666627764702L125.80000000000001,60.81666702032091L126.93333333333334,78.61666772762936L128.06666666666666,75.6500038901965L129.2,80.0999996463458L130.33333333333334,74.16666313012443L131.46666666666667,80.0999996463458L132.6,62.29999893903734L133.73333333333332,77.13333580891293L134.86666666666667,63.78333085775377L136,51.916666666666686L137.13333333333333,72.683331211408L138.26666666666665,75.6500038901965L139.39999999999998,71.19999929269157L140.53333333333336,69.71666737397514L141.66666666666669,84.55000424385072L142.8,56.36666242281598L143.93333333333334,51.916666666666686L145.06666666666666,59.333335101604476L146.2,51.916666666666686L147.33333333333331,66.75000353654228L148.46666666666664,66.75000353654228L149.60000000000002,54.88333050409955L150.73333333333335,53.399998585383116L151.86666666666667,50.433334747950255L153,50.433334747950255L154.13333333333333,45.98333015044534L155.26666666666665,53.399998585383116L156.39999999999998,50.433334747950255L157.53333333333336,57.850003182888045L158.66666666666669,62.29999893903734L159.8,45.98333015044534L160.93333333333334,57.850003182888045L162.06666666666666,53.399998585383116L163.2,48.950002829233824L164.33333333333331,53.399998585383116L165.46666666666664,50.433334747950255L166.60000000000002,44.49999823172891L167.73333333333335,47.466670910517394L168.86666666666667,44.49999823172891L170,53.399998585383116L171.13333333333333,57.850003182888045L172.26666666666665,50.433334747950255L173.39999999999998,43.01666631301248L174.53333333333336,62.29999893903734L175.66666666666669,51.916666666666686L176.8,68.23333545525871L177.93333333333334,59.333335101604476L179.06666666666666,50.433334747950255L180.2,50.433334747950255L181.33333333333331,48.950002829233824L182.46666666666664,41.53333439429605L183.60000000000002,35.599997878074674L184.73333333333335,48.950002829233824L185.86666666666667,54.88333050409955L187,48.950002829233824L188.13333333333333,25.21666560570401L189.26666666666665,43.01666631301248L190.39999999999998,50.433334747950255L191.53333333333336,62.29999893903734L192.66666666666669,51.916666666666686L193.8,37.083329796791105L194.93333333333334,44.49999823172891L196.06666666666666,23.733333686987578L197.2,41.53333439429605L198.33333333333331,41.53333439429605L199.46666666666664,41.53333439429605L200.60000000000002,41.53333439429605L201.73333333333335,43.01666631301248L202.86666666666667,38.56667055686319L204,35.599997878074674L205.13333333333333,38.56667055686319L206.26666666666665,41.53333439429605L207.39999999999998,32.63333404064181L208.53333333333336,41.53333439429605L209.66666666666669,40.05000247557962L210.8,31.150002121925382L211.93333333333334,34.116665959358244L213.06666666666666,41.53333439429605L214.2,34.116665959358244L215.33333333333331,37.083329796791105L216.46666666666664,40.05000247557962L217.60000000000002,35.599997878074674L218.73333333333335,37.083329796791105L219.86666666666667,43.01666631301248L221,34.116665959358244L222.13333333333333,38.56667055686319L223.26666666666665,29.66667020320895L224.39999999999998,40.05000247557962L225.53333333333336,28.18332944313687L226.66666666666669,32.63333404064181L227.8,35.599997878074674L228.93333333333334,37.083329796791105L230.06666666666666,31.150002121925382L231.2,34.116665959358244L232.33333333333331,26.69999752442044L233.46666666666664,34.116665959358244L234.60000000000002,34.116665959358244L235.73333333333335,23.733333686987578L236.86666666666667,37.083329796791105L238,41.53333439429605L239.13333333333333,34.116665959358244L240.26666666666665,34.116665959358244L241.39999999999998,32.63333404064181L242.53333333333336,34.116665959358244L243.66666666666669,28.18332944313687L244.8,29.66667020320895L245.93333333333334,40.05000247557962L247.06666666666666,40.05000247557962L248.2,31.150002121925382" style="fill: none;" fill="none"></path></g></g></g></g></g></g><g transform="translate(58, 178)" clip-path="url(#clip_1)"><clipPath id="clip_1"><rect width="272" height="22"></rect></clipPath><g><g><line x1="0" y1="0" x2="0" y2="5" style="visibility: inherit;" fill="rgb(0, 0, 0)" stroke="rgb(204, 204, 204)" stroke-width="1px"></line><line x1="22.666666666666664" y1="0" x2="22.666666666666664" y2="5" style="visibility: inherit;" fill="rgb(0, 0, 0)" stroke="rgb(204, 204, 204)" stroke-width="1px"></line><line x1="45.33333333333333" y1="0" x2="45.33333333333333" y2="5" style="visibility: inherit;" fill="rgb(0, 0, 0)" stroke="rgb(204, 204, 204)" stroke-width="1px"></line><line x1="68" y1="0" x2="68" y2="5" style="visibility: inherit;" fill="rgb(0, 0, 0)" stroke="rgb(204, 204, 204)" stroke-width="1px"></line><line x1="90.66666666666666" y1="0" x2="90.66666666666666" y2="5" style="visibility: inherit;" fill="rgb(0, 0, 0)" stroke="rgb(204, 204, 204)" stroke-width="1px"></line><line x1="113.33333333333334" y1="0" x2="113.33333333333334" y2="5" style="visibility: inherit;" fill="rgb(0, 0, 0)" stroke="rgb(204, 204, 204)" stroke-width="1px"></line><line x1="136" y1="0" x2="136" y2="5" style="visibility: inherit;" fill="rgb(0, 0, 0)" stroke="rgb(204, 204, 204)" stroke-width="1px"></line><line x1="158.66666666666669" y1="0" x2="158.66666666666669" y2="5" style="visibility: inherit;" fill="rgb(0, 0, 0)" stroke="rgb(204, 204, 204)" stroke-width="1px"></line><line x1="181.33333333333331" y1="0" x2="181.33333333333331" y2="5" style="visibility: inherit;" fill="rgb(0, 0, 0)" stroke="rgb(204, 204, 204)" stroke-width="1px"></line><line x1="204" y1="0" x2="204" y2="5" style="visibility: inherit;" fill="rgb(0, 0, 0)" stroke="rgb(204, 204, 204)" stroke-width="1px"></line><line x1="226.66666666666669" y1="0" x2="226.66666666666669" y2="5" style="visibility: inherit;" fill="rgb(0, 0, 0)" stroke="rgb(204, 204, 204)" stroke-width="1px"></line><line x1="249.33333333333331" y1="0" x2="249.33333333333331" y2="5" style="visibility: inherit;" fill="rgb(0, 0, 0)" stroke="rgb(204, 204, 204)" stroke-width="1px"></line><line x1="272" y1="0" x2="272" y2="5" style="visibility: inherit;" fill="rgb(0, 0, 0)" stroke="rgb(204, 204, 204)" stroke-width="1px"></line></g><g transform="translate(0, 8)"><text x="0" y="0" dx="0em" dy="0.95em" style="text-anchor: middle; visibility: hidden; font-family: &quot;Helvetica Neue&quot;, sans-serif; font-size: 12px; font-weight: 200;" fill="rgb(50, 49, 63)" stroke="none" stroke-width="1px">-20</text><text x="22.666666666666664" y="0" dx="0em" dy="0.95em" style="text-anchor: middle; visibility: inherit; font-family: &quot;Helvetica Neue&quot;, sans-serif; font-size: 12px; font-weight: 200;" fill="rgb(50, 49, 63)" stroke="none" stroke-width="1px">0</text><text x="45.33333333333333" y="0" dx="0em" dy="0.95em" style="text-anchor: middle; visibility: hidden; font-family: &quot;Helvetica Neue&quot;, sans-serif; font-size: 12px; font-weight: 200;" fill="rgb(50, 49, 63)" stroke="none" stroke-width="1px">20</text><text x="68" y="0" dx="0em" dy="0.95em" style="text-anchor: middle; visibility: inherit; font-family: &quot;Helvetica Neue&quot;, sans-serif; font-size: 12px; font-weight: 200;" fill="rgb(50, 49, 63)" stroke="none" stroke-width="1px">40</text><text x="90.66666666666666" y="0" dx="0em" dy="0.95em" style="text-anchor: middle; visibility: hidden; font-family: &quot;Helvetica Neue&quot;, sans-serif; font-size: 12px; font-weight: 200;" fill="rgb(50, 49, 63)" stroke="none" stroke-width="1px">60</text><text x="113.33333333333334" y="0" dx="0em" dy="0.95em" style="text-anchor: middle; visibility: inherit; font-family: &quot;Helvetica Neue&quot;, sans-serif; font-size: 12px; font-weight: 200;" fill="rgb(50, 49, 63)" stroke="none" stroke-width="1px">80</text><text x="136" y="0" dx="0em" dy="0.95em" style="text-anchor: middle; visibility: hidden; font-family: &quot;Helvetica Neue&quot;, sans-serif; font-size: 12px; font-weight: 200;" fill="rgb(50, 49, 63)" stroke="none" stroke-width="1px">100</text><text x="158.66666666666669" y="0" dx="0em" dy="0.95em" style="text-anchor: middle; visibility: inherit; font-family: &quot;Helvetica Neue&quot;, sans-serif; font-size: 12px; font-weight: 200;" fill="rgb(50, 49, 63)" stroke="none" stroke-width="1px">120</text><text x="181.33333333333331" y="0" dx="0em" dy="0.95em" style="text-anchor: middle; visibility: hidden; font-family: &quot;Helvetica Neue&quot;, sans-serif; font-size: 12px; font-weight: 200;" fill="rgb(50, 49, 63)" stroke="none" stroke-width="1px">140</text><text x="204" y="0" dx="0em" dy="0.95em" style="text-anchor: middle; visibility: inherit; font-family: &quot;Helvetica Neue&quot;, sans-serif; font-size: 12px; font-weight: 200;" fill="rgb(50, 49, 63)" stroke="none" stroke-width="1px">160</text><text x="226.66666666666669" y="0" dx="0em" dy="0.95em" style="text-anchor: middle; visibility: hidden; font-family: &quot;Helvetica Neue&quot;, sans-serif; font-size: 12px; font-weight: 200;" fill="rgb(50, 49, 63)" stroke="none" stroke-width="1px">180</text><text x="249.33333333333331" y="0" dx="0em" dy="0.95em" style="text-anchor: middle; visibility: inherit; font-family: &quot;Helvetica Neue&quot;, sans-serif; font-size: 12px; font-weight: 200;" fill="rgb(50, 49, 63)" stroke="none" stroke-width="1px">200</text><text x="272" y="0" dx="0em" dy="0.95em" style="text-anchor: middle; visibility: hidden; font-family: &quot;Helvetica Neue&quot;, sans-serif; font-size: 12px; font-weight: 200;" fill="rgb(50, 49, 63)" stroke="none" stroke-width="1px">220</text></g><line x1="0" y1="0" x2="272" y2="0" fill="rgb(0, 0, 0)" stroke="rgb(204, 204, 204)" stroke-width="1px"></line></g></g></g></g></svg>