<svg viewBox="0 0 330 200" xmlns="http://www.w3.org/2000/svg"><g><g><g><g><g><line x1="58" y1="178" x2="53" y2="178" style="visibility: inherit;" fill="rgb(0, 0, 0)" stroke="rgb(204, 204, 204)" stroke-width="1px"></line><line x1="58" y1="163.16666666666666" x2="53" y2="163.16666666666666" style="visibility: inherit;" fill="rgb(0, 0, 0)" stroke="rgb(204, 204, 204)" stroke-width="1px"></line><line x1="58" y1="148.33333333333334" x2="53" y2="148.33333333333334" style="visibility: inherit;" fill="rgb(0, 0, 0)" stroke="rgb(204, 204, 204)" stroke-width="1px"></line><line x1="58" y1="133.5" x2="53" y2="133.5" style="visibility: inherit;" fill="rgb(0, 0, 0)" stroke="rgb(204, 204, 204)" stroke-width="1px"></line><line x1="58" y1="118.66666666666667" x2="53" y2="118.66666666666667" style="visibility: inherit;" fill="rgb(0, 0, 0)" stroke="rgb(204, 204, 204)" stroke-width="1px"></line><line x1="58" y1="103.83333333333334" x2="53" y2="103.83333333333334" style="visibility: inherit;" fill="rgb(0, 0, 0)" stroke="rgb(204, 204, 204)" stroke-width="1px"></line><line x1="58" y1="89.00000000000001" x2="53" y2="89.00000000000001" style="visibility: inherit;" fill="rgb(0, 0, 0)" stroke="rgb(204, 204, 204)" stroke-width="1px"></line><line x1="58" y1="74.16666666666669" x2="53" y2="74.16666666666669" style="visibility: inherit;" fill="rgb(0, 0, 0)" stroke="rgb(204, 204, 204)" stroke-width="1px"></line><line x1="58" y1="59.33333333333336" x2="53" y2="59.33333333333336" style="visibility: inherit;" fill="rgb(0, 0, 0)" stroke="rgb(204, 204, 204)" stroke-width="1px"></line><line x1="58" y1="44.50000000000003" x2="53" y2="44.50000000000003" style="visibility: inherit;" fill="rgb(0, 0, 0)" stroke="rgb(204, 204, 204)" stroke-width="1px"></line><line x1="58" y1="29.666666666666686" x2="53" y2="29.666666666666686" style="visibility: inherit;" fill="rgb(0, 0, 0)" stroke="rgb(204, 204, 204)" stroke-width="1px"></line><line x1="58" y1="14.833333333333343" x2="53" y2="14.833333333333343" style="visibility: inherit;" fill="rgb(0, 0, 0)" stroke="rgb(204, 204, 204)" stroke-width="1px"></line><line x1="58" y1="0" x2="53" y2="0" style="visibility: inherit;" fill="rgb(0, 0, 0)" stroke="rgb(204, 204, 204)" stroke-width="1px"></line></g><g transform="translate(48, 0)"><text x="0" y="178" dx="0em" dy="0.3em" style="text-anchor: end; visibility: hidden; font-family: &quot;Helvetica Neue&quot;, sans-serif; font-size: 12px; font-weight: 200;" fill="rgb(50, 49, 63)" stroke="none" stroke-width="1px">-0.1</text><text x="0" y="163.16666666666666" dx="0em" dy="0.3em" style="text-anchor: end; visibility: inherit; font-family: &quot;Helvetica Neue&quot;, sans-serif; font-size: 12px; font-weight: 200;" fill="rgb(50, 49, 63)" stroke="none" stroke-width="1px">0</text><text x="0" y="148.33333333333334" dx="0em" dy="0.3em" style="text-anchor: end; visibility: hidden; font-family: &quot;Helvetica Neue&quot;, sans-serif; font-size: 12px; font-weight: 200;" fill="rgb(50, 49, 63)" stroke="none" stroke-width="1px">0.1</text><text x="0" y="133.5" dx="0em" dy="0.3em" style="text-anchor: end; visibility: inherit; font-family: &quot;Helvetica Neue&quot;, sans-serif; font-size: 12px; font-weight: 200;" fill="rgb(50, 49, 63)" stroke="none" stroke-width="1px">0.2</text><text x="0" y="118.66666666666667" dx="0em" dy="0.3em" style="text-anchor: end; visibility: hidden; font-family: &quot;Helvetica Neue&quot;, sans-serif; font-size: 12px; font-weight: 200;" fill="rgb(50, 49, 63)" stroke="none" stroke-width="1px">0.3</text><text x="0" y="103.83333333333334" dx="0em" dy="0.3em" style="text-anchor: end; visibility: inherit; font-family: &quot;Helvetica Neue&quot;, sans-serif; font-size: 12px; font-weight: 200;" fill="rgb(50, 49, 63)" stroke="none" stroke-width="1px">0.4</text><text x="0" y="89.00000000000001" dx="0em" dy="0.3em" style="text-anchor: end; visibility: hidden; font-family: &quot;Helvetica Neue&quot;, sans-serif; font-size: 12px; font-weight: 200;" fill="rgb(50, 49, 63)" stroke="none" stroke-width="1px">0.5</text><text x="0" y="74.16666666666669" dx="0em" dy="0.3em" style="text-anchor: end; visibility: inherit; font-family: &quot;Helvetica Neue&quot;, sans-serif; font-size: 12px; font-weight: 200;" fill="rgb(50, 49, 63)" stroke="none" stroke-width="1px">0.6</text><text x="0" y="59.33333333333336" dx="0em" dy="0.3em" style="text-anchor: end; visibility: hidden; font-family: &quot;Helvetica Neue&quot;, sans-serif; font-size: 12px; font-weight: 200;" fill="rgb(50, 49, 63)" stroke="none" stroke-width="1px">0.7</text><text x="0" y="44.50000000000003" dx="0em" dy="0.3em" style="text-anchor: end; visibility: inherit; font-family: &quot;Helvetica Neue&quot;, sans-serif; font-size: 12px; font-weight: 200;" fill="rgb(50, 49, 63)" stroke="none" stroke-width="1px">0.8</text><text x="0" y="29.666666666666686" dx="0em" dy="0.3em" style="text-anchor: end; visibility: hidden; font-family: &quot;Helvetica Neue&quot;, sans-serif; font-size: 12px; font-weight: 200;" fill="rgb(50, 49, 63)" stroke="none" stroke-width="1px">0.9</text><text x="0" y="14.833333333333343" dx="0em" dy="0.3em" style="text-anchor: end; visibility: inherit; font-family: &quot;Helvetica Neue&quot;, sans-serif; font-size: 12px; font-weight: 200;" fill="rgb(50, 49, 63)" stroke="none" stroke-width="1px">1</text><text x="0" y="0" dx="0em" dy="0.3em" style="text-anchor: end; visibility: hidden; font-family: &quot;Helvetica Neue&quot;, sans-serif; font-size: 12px; font-weight: 200;" fill="rgb(50, 49, 63)" stroke="none" stroke-width="1px">1.1</text></g><line x1="58" y1="0" x2="58" y2="178" fill="rgb(0, 0, 0)" stroke="rgb(204, 204, 204)" stroke-width="1px"></line></g></g><g transform="translate(58, 0)" clip-path="url(#clip_0)"><clipPath id="clip_0"><rect width="272" height="178"></rect></clipPath><g><g><g><line x1="0" y1="0" x2="0" y2="178" fill="rgb(0, 0, 0)" stroke="rgb(60, 60, 60)" stroke-width="1px" opacity="0.25"></line><line x1="22.666666666666664" y1="0" x2="22.666666666666664" y2="178" fill="rgb(0, 0, 0)" stroke="rgb(60, 60, 60)" stroke-width="1px" opacity="0.25"></line><line x1="45.33333333333333" y1="0" x2="45.33333333333333" y2="178" fill="rgb(0, 0, 0)" stroke="rgb(60, 60, 60)" stroke-width="1px" opacity="0.25"></line><line x1="68" y1="0" x2="68" y2="178" fill="rgb(0, 0, 0)" stroke="rgb(60, 60, 60)" stroke-width="1px" opacity="0.25"></line><line x1="90.66666666666666" y1="0" x2="90.66666666666666" y2="178" fill="rgb(0, 0, 0)" stroke="rgb(60, 60, 60)" stroke-width="1px" opacity="0.25"></line><line x1="113.33333333333334" y1="0" x2="113.33333333333334" y2="178" fill="rgb(0, 0, 0)" stroke="rgb(60, 60, 60)" stroke-width="1px" opacity="0.25"></line><line x1="136" y1="0" x2="136" y2="178" fill="rgb(0, 0, 0)" stroke="rgb(60, 60, 60)" stroke-width="1px" opacity="0.25"></line><line x1="158.66666666666669" y1="0" x2="158.66666666666669" y2="178" fill="rgb(0, 0, 0)" stroke="rgb(60, 60, 60)" stroke-width="1px" opacity="0.25"></line><line x1="181.33333333333331" y1="0" x2="181.33333333333331" y2="178" fill="rgb(0, 0, 0)" stroke="rgb(60, 60, 60)" stroke-width="1px" opacity="0.25"></line><line x1="204" y1="0" x2="204" y2="178" fill="rgb(0, 0, 0)" stroke="rgb(60, 60, 60)" stroke-width="1px" opacity="0.25"></line><line x1="226.66666666666669" y1="0" x2="226.66666666666669" y2="178" fill="rgb(0, 0, 0)" stroke="rgb(60, 60, 60)" stroke-width="1px" opacity="0.25"></line><line x1="249.33333333333331" y1="0" x2="249.33333333333331" y2="178" fill="rgb(0, 0, 0)" stroke="rgb(60, 60, 60)" stroke-width="1px" opacity="0.25"></line><line x1="272" y1="0" x2="272" y2="178" fill="rgb(0, 0, 0)" stroke="rgb(60, 60, 60)" stroke-width="1px" opacity="0.25"></line></g><g><line x1="0" y1="178" x2="272" y2="178" fill="rgb(0, 0, 0)" stroke="rgb(60, 60, 60)" stroke-width="1px" opacity="0.25"></line><line x1="0" y1="163.16666666666666" x2="272" y2="163.16666666666666" fill="rgb(0, 0, 0)" stroke="rgb(60, 60, 60)" stroke-width="1px" opacity="0.25"></line><line x1="0" y1="148.33333333333334" x2="272" y2="148.33333333333334" fill="rgb(0, 0, 0)" stroke="rgb(60, 60, 60)" stroke-width="1px" opacity="0.25"></line><line x1="0" y1="133.5" x2="272" y2="133.5" fill="rgb(0, 0, 0)" stroke="rgb(60, 60, 60)" stroke-width="1px" opacity="0.25"></line><line x1="0" y1="118.66666666666667" x2="272" y2="118.66666666666667" fill="rgb(0, 0, 0)" stroke="rgb(60, 60, 60)" stroke-width="1px" opacity="0.25"></line><line x1="0" y1="103.83333333333334" x2="272" y2="103.83333333333334" fill="rgb(0, 0, 0)" stroke="rgb(60, 60, 60)" stroke-width="1px" opacity="0.25"></line><line x1="0" y1="89.00000000000001" x2="272" y2="89.00000000000001" fill="rgb(0, 0, 0)" stroke="rgb(60, 60, 60)" stroke-width="1px" opacity="0.25"></line><line x1="0" y1="74.16666666666669" x2="272" y2="74.16666666666669" fill="rgb(0, 0, 0)" stroke="rgb(60, 60, 60)" stroke-width="1px" opacity="0.25"></line><line x1="0" y1="59.33333333333336" x2="272" y2="59.33333333333336" fill="rgb(0, 0, 0)" stroke="rgb(60, 60, 60)" stroke-width="1px" opacity="0.25"></line><line x1="0" y1="44.50000000000003" x2="272" y2="44.50000000000003" fill="rgb(0, 0, 0)" stroke="rgb(60, 60, 60)" stroke-width="1px" opacity="0.25"></line><line x1="0" y1="29.666666666666686" x2="272" y2="29.666666666666686" fill="rgb(0, 0, 0)" stroke="rgb(60, 60, 60)" stroke-width="1px" opacity="0.25"></line><line x1="0" y1="14.833333333333343" x2="272" y2="14.833333333333343" fill="rgb(0, 0, 0)" stroke="rgb(60, 60, 60)" stroke-width="1px" opacity="0.25"></line><line x1="0" y1="0" x2="272" y2="0" fill="rgb(0, 0, 0)" stroke="rgb(60, 60, 60)" stroke-width="1px" opacity="0.25"></line></g></g></g><g><g><line x1="0" y1="163.16666666666666" x2="272" y2="163.16666666666666" fill="rgb(0, 0, 0)" stroke="rgb(153, 153, 153)" stroke-width="1.5px"></line></g></g><g><g><line x1="22.666666666666664" y1="0" x2="22.666666666666664" y2="178" fill="rgb(0, 0, 0)" stroke="rgb(153, 153, 153)" stroke-width="1.5px"></line></g></g><g><g><g><g><g><path stroke="rgb(255, 112, 67)" stroke-width="2px" d="M22.666666666666664,155.74999988948306L23.799999999999997,155.74999988948306L24.93333333333333,156.37172345633877L26.06666666666667,155.63532151817327L27.200000000000003,156.59023669361565L28.333333333333336,156.77326234139596L29.46666666666667,156.8963691508918L30.6,155.08628474792414L31.733333333333334,154.5172147086094L32.86666666666667,151.9563828785771L34,148.99921073944188L35.13333333333334,146.08392876316054L36.266666666666666,143.190308916264L37.400000000000006,138.6153874004345L38.53333333333333,137.7932954640733L39.66666666666667,134.4889915372001L40.8,136.9278985628373L41.93333333333334,134.83571720572291L43.06666666666666,130.23894298227577L44.2,126.67387505636208L45.33333333333333,125.55400712053401L46.46666666666667,123.36728471968165L47.599999999999994,120.023024460036L48.733333333333334,116.10752084859696L49.86666666666666,113.0611903336177L51,110.36211606437614L52.13333333333334,107.2765342578256L53.266666666666666,103.56182481866097L54.400000000000006,97.38889590044863L55.53333333333333,94.54991855589397L56.66666666666667,93.65081254298303L57.8,90.32714240873281L58.93333333333334,86.7547352553593L60.06666666666666,83.64431656232841L61.2,82.86089726595107L62.33333333333333,79.29994623045515L63.46666666666667,76.19828964731289L64.6,74.11006058248199L65.73333333333333,69.20503172361073L66.86666666666666,64.72846501222712L68,61.56912834000828L69.13333333333333,62.0584807169888L70.26666666666668,58.83362082652073L71.4,60.91099284777894L72.53333333333333,58.267579271987984L73.66666666666666,53.91363381808797L74.80000000000001,53.144481582110714L75.93333333333334,51.23403887851521L77.06666666666666,50.073626626875296L78.19999999999999,48.51403251064124L79.33333333333334,50.249468824154945L80.46666666666667,47.339745434117475L81.6,48.351246831405035L82.73333333333332,45.20540008587605L83.86666666666667,43.41042060833112L85,40.04523062220346L86.13333333333333,40.046285202492584L87.26666666666668,39.063655200802486L88.4,37.97037014248656L89.53333333333333,37.77433416519261L90.66666666666666,36.63817286273516L91.80000000000001,35.09747048455009L92.93333333333334,33.89726344612902L94.06666666666666,35.58483531871937L95.19999999999999,33.94910237445268L96.33333333333334,32.67486646817699L97.46666666666667,32.99350417295889L98.6,32.25827383467208L99.73333333333332,32.996794872499265L100.86666666666667,31.60520262299977L102,32.48805239195241L103.13333333333333,30.881075887262398L104.26666666666668,30.61269222784327L105.4,30.075803047368908L106.53333333333333,30.6410174010272L107.66666666666666,32.72040311438235L108.80000000000001,30.406444406594062L109.93333333333334,29.259503287621186L111.06666666666666,29.677303531130747L112.19999999999999,29.674953565655073L113.33333333333334,29.017488279464743L114.46666666666667,30.144406548159907L115.6,30.038826815820727L116.73333333333332,29.9565802043698L117.86666666666667,29.236875431666647L119,27.69277635133031L120.13333333333333,28.456823246911625L121.26666666666668,26.10166468341157L122.4,26.88953090346186L123.53333333333333,25.53637861031413L124.66666666666666,25.793538390366308L125.80000000000001,26.321682213084102L126.93333333333334,27.71655726708849L128.06666666666666,29.13098128817029L129.2,27.61028481419703L130.33333333333334,27.409111323148636L131.46666666666667,28.235848189703233L132.6,27.89642519266775L133.73333333333332,28.287649340004492L134.86666666666667,27.93677828875545L136,26.680000677714446L137.13333333333333,26.684419980836537L138.26666666666665,25.704413555852994L139.39999999999998,24.940988550793378L140.53333333333336,26.313180550019155L141.66666666666669,27.054301763376458L142.8,28.94290060472946L143.93333333333334,28.775035378017208L145.06666666666666,29.62771938245848L146.2,28.98069285183132L147.33333333333331,27.493210122363166L148.46666666666664,27.317910138217684L149.60000000000002,27.509167804604942L150.73333333333335,27.98597583469666L151.86666666666667,28.02959098216195L153,26.42448541185533L154.13333333333333,24.84628986461064L155.26666666666665,24.27251019531954L156.39999999999998,24.48116854101454L157.53333333333336,25.954980762395962L158.66666666666669,24.808364050657957L159.8,23.91514963221411L160.93333333333334,22.563700938234035L162.06666666666666,24.133457145793557L163.2,24.372846215433754L164.33333333333331,25.214963008756172L165.46666666666664,25.21533928268164L166.60000000000002,25.871265108142268L167.73333333333335,26.05441497213974L168.86666666666667,27.18053973224238L170,27.729974566326007L171.13333333333333,26.846716931992205L172.26666666666665,27.142108296955172L173.39999999999998,28.027852832273595L174.53333333333336,28.06221316327438L175.66666666666669,27.43334715305133L176.8,26.943460531087567L177.93333333333334,26.56183885257778L179.06666666666666,26.59237191905504L180.2,25.63270811573176L181.33333333333331,24.557313658906622L182.46666666666664,25.03084679318519L183.60000000000002,25.071912750751864L184.73333333333335,24.448270423623597L185.86666666666667,24.945902112899716L187,25.66137355288214L188.13333333333333,24.579644034446773L189.26666666666665,27.015142233888525L190.39999999999998,26.945495253096084L191.53333333333336,25.579974838913444L192.66666666666669,23.860599774252904L193.8,25.471557693088528L194.93333333333334,25.41522654177652L196.06666666666666,25.69916092894084L197.2,26.5759804785541L198.33333333333331,26.27557189165421L199.46666666666664,25.385920894386572L200.60000000000002,24.692882767515073L201.73333333333335,26.119906144839746L202.86666666666667,26.248106339727087L204,26.34797429154429L205.13333333333333,26.753587780046303L206.26666666666665,27.069560687589302L207.39999999999998,26.00443816641996L208.53333333333336,25.174707722429105L209.66666666666669,24.856164060596512L210.8,26.247102272150187L211.93333333333334,26.34719212290193L213.06666666666666,25.44171305452852L214.2,25.064161214301947L215.33333333333331,23.458780960680542L216.46666666666664,23.51945711319439L217.60000000000002,23.89454019003901L218.73333333333335,23.858913552864635L219.86666666666667,23.503344048469472L221,23.226355404545643L222.13333333333333,23.010581250928965L223.26666666666665,21.859042169213012L224.39999999999998,22.273260594641187L225.53333333333336,21.284669377964804L226.66666666666669,22.80927325236783L227.8,22.685674254382462L228.93333333333334,24.22847435907309L230.06666666666666,24.11904827054221L231.2,25.01725440968565L232.33333333333331,24.405691575933048L233.46666666666664,25.56836785256101L234.60000000000002,26.146274364078266L235.73333333333335,25.285198120404885L236.86666666666667,24.942236080619665L238,24.675068651626987L239.13333333333333,24.139128870405358L240.26666666666665,24.049448134870005L241.39999999999998,23.979586841887965L242.53333333333336,23.269532186582325L243.66666666666669,23.04421596413553L244.8,21.885243610800927L245.93333333333334,21.63803880956553L247.06666666666666,21.773282623439457L248.2,20.567370184362346" style="fill: none;" fill="none"></path></g><g><path stroke="rgb(255, 112, 67)" stroke-width="2px" d="M22.666666666666664,152.78333328912657L23.799999999999997,151.94953170178204L24.93333333333333,149.81211700676738L26.06666666666667,143.58681956705618L27.200000000000003,140.46089347842675L28.333333333333336,137.63550518194396L29.46666666666667,132.55978257625236L30.6,125.97371826141227L31.733333333333334,123.8015730871152L32.86666666666667,119.35007200479151L34,114.28488746431552L35.13333333333334,108.74824305976043L36.266666666666666,101.47853249584236L37.400000000000006,94.91590804399964L38.53333333333333,93.57688040759092L39.66666666666667,88.20498007800971L40.8,86.0551639434323L41.93333333333334,79.75147259296483L43.06666666666666,75.86087265801685L44.2,70.86317255311316L45.33333333333333,68.63111900870851L46.46666666666667,64.59281192341638L47.599999999999994,64.08447277603318L48.733333333333334,60.40275630928899L49.86666666666666,57.86677078282125L51,56.22149133755862L52.13333333333334,51.98696515882483L53.266666666666666,50.33082440894377L54.400000000000006,48.057136025154534L55.53333333333333,44.9745740916328L56.66666666666667,42.901892849569776L57.8,41.28762808504487L58.93333333333334,40.358233292914235L60.06666666666666,38.65068009061832L61.2,36.009156900346824L62.33333333333333,34.9351499252856L63.46666666666667,35.73779386180149L64.6,36.363022868014184L65.73333333333333,37.177893340091515L66.86666666666666,36.501331057212184L68,34.66298701605328L69.13333333333333,35.52572509189113L70.26666666666668,36.1977886117117L71.4,35.08220895452638L72.53333333333333,31.918433183776955L73.66666666666666,29.781687939352395L74.80000000000001,30.08408778828371L75.93333333333334,29.008380794919248L77.06666666666666,28.82604356266671L78.19999999999999,29.339640342894L79.33333333333334,29.41191415453946L80.46666666666667,28.156944996587782L81.6,26.52369127476223L82.73333333333332,25.579204580967257L83.86666666666667,24.51563325365842L85,24.342744903588653L86.13333333333333,26.174966306840133L87.26666666666668,25.30754869979816L88.4,25.61528001275019L89.53333333333333,24.871553289694305L90.66666666666666,24.94782312998845L91.80000000000001,25.00723732832148L92.93333333333334,23.414437019606623L94.06666666666666,22.501462062611807L95.19999999999999,21.462438228924754L96.33333333333334,20.653038698884785L97.46666666666667,20.022516487074085L98.6,19.531339697478842L99.73333333333332,20.459980399634475L100.86666666666667,20.19994045344339L102,19.99736933797402L103.13333333333333,19.511750081487662L104.26666666666668,20.11690371157991L105.4,20.260502029424117L106.53333333333333,20.37236511849335L107.66666666666666,20.131688154707035L108.80000000000001,19.94420080045805L109.93333333333334,19.47033179665337L111.06666666666666,18.773371488413773L112.19999999999999,18.558255763761082L113.33333333333334,18.390680614434615L114.46666666666667,17.932323218762406L115.6,18.886530179152828L116.73333333333332,18.31859002982307L117.86666666666667,18.859615670310234L119,19.281074644121418L120.13333333333333,19.28157287654642L121.26666666666668,18.62632829134577L122.4,19.427160129924232L123.53333333333333,20.051008132106915L124.66666666666666,18.89790200142241L125.80000000000001,17.999632325680352L126.93333333333334,17.62769660237754L128.06666666666666,17.665775027993874L129.2,18.351072783592855L130.33333333333334,17.90146871910443L131.46666666666667,17.551227152874816L132.6,17.278388972786047L133.73333333333332,17.06584803049944L134.86666666666667,17.228094990500722L136,18.337936388400294L137.13333333333333,18.219051821302145L138.26666666666665,18.126440743533095L139.39999999999998,18.054296713951203L140.53333333333336,17.998096514907076L141.66666666666669,17.954316559851804L142.8,17.592395620826665L143.93333333333334,17.638275563363408L145.06666666666666,17.346199684562663L146.2,18.429939945063524L147.33333333333331,18.29072259194365L148.46666666666664,17.85445591982679L149.60000000000002,17.514604182247894L150.73333333333335,16.922043324637514L151.86666666666667,16.788254770595586L153,17.011849841033353L154.13333333333333,16.530397692831542L155.26666666666665,17.138795531491525L156.39999999999998,16.957104739734888L157.53333333333336,16.487751258920127L158.66666666666669,16.449941251401754L159.8,17.076119963617657L160.93333333333334,17.2360968263975L162.06666666666666,16.70508609443027L163.2,16.619245088264194L164.33333333333331,16.224558590424493L165.46666666666664,16.24491416264368L166.60000000000002,16.588587507438774L167.73333333333335,16.856309043034116L168.86666666666667,16.409231411190262L170,17.04440699809288L171.13333333333333,17.867027088265957L172.26666666666665,17.196580768425832L173.39999999999998,17.65775214737937L174.53333333333336,17.033555589475213L175.66666666666669,16.875122824904196L176.8,17.40733640937603L177.93333333333334,17.166298083606932L179.06666666666666,16.97852922783281L180.2,16.50444093514841L181.33333333333331,16.135126155147276L182.46666666666664,15.8474299415264L183.60000000000002,15.62331459111573L184.73333333333335,16.104361441218487L185.86666666666667,16.47909693744853L187,16.443199534975406L188.13333333333333,16.415235458448848L189.26666666666665,16.393451442834646L190.39999999999998,16.04866534063487L191.53333333333336,16.435709675093904L192.66666666666669,16.081584503564812L193.8,17.11698836502859L194.93333333333334,16.612300603023925L196.06666666666666,16.54696519045865L197.2,17.151701612142944L198.33333333333331,16.967158576562355L199.46666666666664,16.823399551845085L200.60000000000002,17.039227625626637L201.73333333333335,16.551724987029814L202.86666666666667,16.171960431562894L204,16.203940196890528L205.13333333333333,16.556668788117037L206.26666666666665,16.175811652609838L207.39999999999998,16.53475665212241L208.53333333333336,16.486558452706333L209.66666666666669,17.104644763433924L210.8,16.602684937381696L211.93333333333334,16.539474586923347L213.06666666666666,16.490233723916276L214.2,16.124058737597466L215.33333333333331,15.838808423255102L216.46666666666664,15.616598428382389L217.60000000000002,15.771313196412876L218.73333333333335,15.564019646672307L219.86666666666667,15.730354325460723L221,15.532112686200577L222.13333333333333,15.70549880325325L223.26666666666665,15.512750234400954L224.39999999999998,15.690415453301341L225.53333333333336,15.501000304788391L226.66666666666669,15.68126225813316L227.8,15.82168631978871L228.93333333333334,15.603260309782087L230.06666666666666,15.433106447986916L231.2,15.62837294368481L232.33333333333331,15.45266918979712L233.46666666666664,15.64361231955499L234.60000000000002,15.46454066359999L235.73333333333335,15.980676551683729L236.86666666666667,16.05493005446462L238,15.784957179094647L239.13333333333333,15.9024646632177L240.26666666666665,15.666186639313281L241.39999999999998,15.482126058691705L242.53333333333336,15.666559220423864L243.66666666666669,16.138049007449524L244.8,15.849706843469818L245.93333333333334,16.28072100580232L247.06666666666666,16.288664684222994L248.2,16.294852809712722" style="fill: none;" fill="none"></path></g><g><path stroke="rgb(187, 187, 187)" stroke-width="2px" d="M22.666666666666664,157.23333346595368L23.799999999999997,153.06432428676968L24.93333333333333,155.43344380452555L26.06666666666667,155.0252757756884L27.200000000000003,154.7901813275892L28.333333333333336,154.6411888623027L29.46666666666667,155.73171390317214L30.6,155.35714186437053L31.733333333333334,154.3546032652601L32.86666666666667,153.97621288322605L34,154.04480020755545L35.13333333333334,152.37116800544064L36.266666666666666,151.1015994309353L37.400000000000006,150.47069249430928L38.53333333333333,151.3298868145133L39.66666666666667,151.6571164827901L40.8,149.58155846619627L41.93333333333334,148.63955445858127L43.06666666666666,147.57921129125975L44.2,148.4071126180494L45.33333333333333,149.04983163168072L46.46666666666667,147.5741540345369L47.599999999999994,146.09812353192058L48.733333333333334,145.60743126068016L49.86666666666666,146.86793797019112L51,146.86396768941628L52.13333333333334,146.8608772059352L53.266666666666666,146.5303531995963L54.400000000000006,145.61689157631724L55.53333333333333,144.9055620628102L56.66666666666667,145.99138749734902L57.8,145.525350060467L58.93333333333334,144.178659664459L60.06666666666666,143.45761102459264L61.2,141.58449624775207L62.33333333333333,140.1254575965739L63.46666666666667,139.6446347570317L64.6,137.30304335474816L65.73333333333333,134.82334143750379L66.86666666666666,133.21954292792068L68,133.93718268114145L69.13333333333333,132.5292596298835L70.26666666666668,131.43250298036855L71.4,129.26684986985677L72.53333333333333,131.84149306337855L73.66666666666666,132.20802675563823L74.80000000000001,132.4935550248128L75.93333333333334,130.42124945598766L77.06666666666666,126.5122009344884L78.19999999999999,126.08960324545242L79.33333333333334,123.79349441114073L80.46666666666667,125.28300226387933L81.6,123.49297215799253L82.73333333333332,125.04889417959264L83.86666666666667,125.27750548011645L85,124.14432608669784L86.13333333333333,122.60594559916846L87.26666666666668,122.39099813931169L88.4,121.56792016485984L89.53333333333333,119.61547575136262L90.66666666666666,122.02832289992502L91.80000000000001,121.94103015017436L92.93333333333334,122.85647928808183L94.06666666666666,123.2417977221236L95.19999999999999,122.23069327797846L96.33333333333334,117.83705987578429L97.46666666666667,119.98730326870178L98.6,120.35107588923074L99.73333333333332,118.66755461189473L100.86666666666667,117.35609155857057L102,118.62917833110299L103.13333333333333,117.65401280826808L104.26666666666668,118.20562625785844L105.4,117.97969944125396L106.53333333333333,119.44278618809666L107.66666666666666,119.5990807149717L108.80000000000001,119.06520046309618L109.93333333333334,117.99367406050382L111.06666666666666,120.10930560803384L112.19999999999999,120.44611569695479L113.33333333333334,116.44687423861009L114.46666666666667,115.62618158025981L115.6,115.31467835417924L116.73333333333332,115.07201734118425L117.86666666666667,116.5220681372455L119,115.02912394260022L120.13333333333333,115.50520413996901L121.26666666666668,118.17078753498424L122.4,117.95256007821331L123.53333333333333,115.48784445681662L124.66666666666666,115.53473106633922L125.80000000000001,117.53815581351907L126.93333333333334,113.85375714162987L128.06666666666666,112.95050967765991L129.2,112.90251358832498L130.33333333333334,110.89822455650032L131.46666666666667,109.66470073175542L132.6,110.34286841948368L133.73333333333332,111.85461108731452L134.86666666666667,108.11500843007985L136,105.85749164516474L137.13333333333333,104.09888606972572L138.26666666666665,102.40111597242617L139.39999999999998,101.07855306663429L140.53333333333336,103.98207574238661L141.66666666666669,104.93265351367369L142.8,104.36188720438676L143.93333333333334,106.53979303568812L145.06666666666666,109.54764904835712L146.2,109.26823511902137L147.33333333333331,110.03402170714863L148.46666666666664,109.31930306618345L149.60000000000002,109.4181699529448L150.73333333333335,106.544838117464L151.86666666666667,108.56812912797788L153,105.88265631481532L154.13333333333333,106.74102213362914L155.26666666666665,106.09842271336971L156.39999999999998,106.90910415810292L157.53333333333336,107.86844233455624L158.66666666666669,111.23829956024377L159.8,110.58525186778137L160.93333333333334,109.0930776762743L162.06666666666666,111.53665778336932L163.2,108.52295649140221L164.33333333333331,107.81436690908114L165.46666666666664,110.86835844976214L166.60000000000002,110.62488409675254L167.73333333333335,110.76303490676419L168.86666666666667,110.54283705675712L170,109.0600365384865L171.13333333333333,108.23275226575981L172.26666666666665,109.88301424949967L173.39999999999998,108.21821821759661L174.53333333333336,110.19950858001684L175.66666666666669,110.10385004822096L176.8,108.71806565883682L177.93333333333334,109.60543969766418L179.06666666666666,108.65762132675923L180.2,109.88616991701208L181.33333333333331,107.89286012855244L182.46666666666664,106.99570451141506L183.60000000000002,105.31337024658625L184.73333333333335,106.62536561748465L185.86666666666667,105.35269357922058L187,103.05001469132797L188.13333333333333,104.53439430893232L189.26666666666665,100.4456604585856L190.39999999999998,102.83341969263215L191.53333333333336,103.71003409687563L192.66666666666669,104.39291671778129L193.8,102.30234851626675L194.93333333333334,102.96851329645062L196.06666666666666,105.12653840736533L197.2,104.18510718253765L198.33333333333331,104.76299865151199L199.46666666666664,102.59064234264297L200.60000000000002,102.86527685619157L201.73333333333335,104.39048353536106L202.86666666666667,102.95608675220386L204,102.49432534316685L205.13333333333333,102.46242955956335L206.26666666666665,102.43758274413624L207.39999999999998,101.4347770358397L208.53333333333336,101.96485778219184L209.66666666666669,101.72215797552748L210.8,102.18872753420862L211.93333333333334,99.60183510318485L213.06666666666666,100.86481334765983L214.2,104.14338983229977L215.33333333333331,106.04176722879181L216.46666666666664,103.58680306434394L217.60000000000002,100.36311958712393L218.73333333333335,102.11348666872105L219.86666666666667,102.16575623217008L221,103.18992426117566L222.13333333333333,100.70958468449831L223.26666666666665,99.10521650830299L224.39999999999998,98.18323005308315L225.53333333333336,96.15373621135178L226.66666666666669,97.52311062587941L227.8,96.29513686260252L228.93333333333334,99.60016181136133L230.06666666666666,103.15822628552323L231.2,102.97960839365895L232.33333333333331,101.20138133177545L233.46666666666664,98.83269241148942L234.60000000000002,97.9709337816654L235.73333333333335,95.66054106188102L236.86666666666667,96.48327791939923L238,98.43545730149084L239.13333333333333,96.6780375918977L240.26666666666665,100.22625783351859L241.39999999999998,101.35123865458982L242.53333333333336,101.24414867512552L243.66666666666669,101.48854193515916L244.8,100.69547424564658L245.93333333333334,102.7002073017465L247.06666666666666,100.65591152713932L248.2,98.40777143367787" style="fill: none;" fill="none"></path></g><g><path stroke="rgb(0, 153, 136)" stroke-width="2px" d="M22.666666666666664,155.74999988948306L23.799999999999997,155.74999988948306L24.93333333333333,155.74999988948306L26.06666666666667,156.26890742169059L27.200000000000003,156.10809691936709L28.333333333333336,155.58402504880235L29.46666666666667,154.43769659053987L30.6,154.39396901652728L31.733333333333334,155.46212777815296L32.86666666666667,154.817025354324L34,154.68706460854386L35.13333333333334,154.5892729828363L36.266666666666666,154.85617709196816L37.400000000000006,155.05988545603353L38.53333333333333,155.2160884077699L39.66666666666667,155.3362935065484L40.8,154.09872598224982L41.93333333333334,154.4677762115554L43.06666666666666,154.75363283643767L44.2,153.98517566030313L45.33333333333333,154.37727042033032L46.46666666666667,154.35272616195596L47.599999999999994,154.33364597110153L48.733333333333334,152.34698888104506L49.86666666666666,150.14442509562778L51,147.44537215444313L52.13333333333334,146.00082493467823L53.266666666666666,145.20431105769669L54.400000000000006,144.58411456769144L55.53333333333333,142.1331591239656L56.66666666666667,142.84807477474158L57.8,139.46974114039278L58.93333333333334,139.13378977563656L60.06666666666666,139.85577039892715L61.2,139.4345277312508L62.33333333333333,138.12283363166256L63.46666666666667,137.10108816599333L64.6,138.92791917970453L65.73333333333333,136.08909856057412L66.86666666666666,137.15603985379434L68,135.3645408986673L69.13333333333333,135.9359432057675L70.26666666666668,135.39758798667327L71.4,136.28950289060555L72.53333333333333,135.67301454241112L73.66666666666666,135.52059351104987L74.80000000000001,134.41840025013215L75.93333333333334,134.5432513162644L77.06666666666666,135.6239647958319L78.19999999999999,135.15456670645813L79.33333333333334,134.7889062914363L80.46666666666667,134.83187484427657L81.6,136.83225089608712L82.73333333333332,137.73490784070725L83.86666666666667,137.45462600327403L85,139.2031885527662L86.13333333333333,138.27060001462007L87.26666666666668,138.1997473165024L88.4,136.833286162934L89.53333333333333,136.4244465387508L90.66666666666666,137.08941079849998L91.80000000000001,137.60741789358133L92.93333333333334,137.6831284915994L94.06666666666666,137.74210704308445L95.19999999999999,138.77150145875447L96.33333333333334,138.5899495651486L97.46666666666667,136.48162046046363L98.6,134.1835989085621L99.73333333333332,135.67160673653956L100.86666666666667,136.17513160201804L102,136.89519431621446L103.13333333333333,137.7839395240576L104.26666666666668,139.45972233075275L105.4,138.4704404311676L106.53333333333333,139.01105623778352L107.66666666666666,140.41564623851806L108.80000000000001,140.8541884022178L109.93333333333334,139.55672950565395L111.06666666666666,140.185092267062L112.19999999999999,140.67458685753166L113.33333333333334,138.76118670714814L114.46666666666667,137.92628118862677L115.6,137.2758897901177L116.73333333333332,136.7692348909334L117.86666666666667,137.03018392157642L119,136.25001317684428L120.13333333333333,136.95352704892238L121.26666666666668,138.15719755191455L122.4,136.47232359831244L123.53333333333333,137.12670686710175L124.66666666666666,138.94773807097846L125.80000000000001,140.03850478038865L126.93333333333334,140.232578361878L128.06666666666666,139.72812848525263L129.2,139.6629788739116L130.33333333333334,139.94004368072723L131.46666666666667,137.5333438904382L132.6,138.2810580286083L133.73333333333332,139.19134418476312L134.86666666666667,138.91700706130837L136,137.0642152064841L137.13333333333333,136.93215674471057L138.26666666666665,137.4849168880363L139.39999999999998,138.89896707876952L140.53333333333336,138.6892452957424L141.66666666666669,138.52587202676463L142.8,138.0707874077091L143.93333333333334,135.09374370322996L145.06666666666666,133.43025985400155L146.2,135.08475556420854L147.33333333333331,134.078891290263L148.46666666666664,134.27877305993925L149.60000000000002,135.41793099759636L150.73333333333335,137.2887850701102L151.86666666666667,139.07399699087705L153,136.20306032255917L154.13333333333333,136.26131709013418L155.26666666666665,137.29014915115405L156.39999999999998,139.73069280656748L157.53333333333336,139.33715963769785L158.66666666666669,137.71933090603318L159.8,136.45904232406647L160.93333333333334,137.77199395090844L162.06666666666666,137.1557000325819L163.2,137.33124026676313L164.33333333333331,137.79580295171152L165.46666666666664,138.15769728328632L166.60000000000002,139.0952461641407L167.73333333333335,138.51432986072615L168.86666666666667,137.4061628638087L170,136.54290077321L171.13333333333333,135.87041960463358L172.26666666666665,137.31345685247018L173.39999999999998,137.12631598693486L174.53333333333336,137.6361669377253L175.66666666666669,136.72207394679103L176.8,134.04309591718055L177.93333333333334,136.87342173902306L179.06666666666666,136.78352863355954L180.2,137.69695194348225L181.33333333333331,138.0806923478757L182.46666666666664,138.05180928037697L183.60000000000002,139.34057625239552L184.73333333333335,140.0167088810767L185.86666666666667,138.904332963183L187,137.054342084065L188.13333333333333,137.5800992673897L189.26666666666665,138.64529730975718L190.39999999999998,138.16381970316144L191.53333333333336,136.47748225450823L192.66666666666669,137.7863586567225L193.8,137.4947064924474L194.93333333333334,137.92314314151957L196.06666666666666,138.91252848770435L197.2,137.7163595942247L198.33333333333331,136.78454402620406L199.46666666666664,137.36992658031602L200.60000000000002,136.51467270836918L201.73333333333335,134.86497990304383L202.86666666666667,134.23550289273783L204,136.03985673390338L205.13333333333333,135.47854829801375L206.26666666666665,135.369105868977L207.39999999999998,135.28385021675732L208.53333333333336,136.20088610275698L209.66666666666669,136.91525705795073L210.8,136.48830199296788L211.93333333333334,137.79478723298257L213.06666666666666,136.1900059602389L214.2,137.23459778096546L215.33333333333331,139.68741828919028L216.46666666666664,139.63126563118226L217.60000000000002,138.93188902555156L218.73333333333335,135.76454186353502L219.86666666666667,136.2475280530756L221,136.95159113724893L222.13333333333333,138.48350631889875L223.26666666666665,139.67686824540397L224.39999999999998,138.96741346203027L225.53333333333336,138.08693183174583L226.66666666666669,136.7454034451967L227.8,138.65070270506885L228.93333333333334,138.1680305061092L230.06666666666666,136.80857931252575L231.2,137.0608332258394L232.33333333333331,137.58515586683194L233.46666666666664,137.33796951912265L234.60000000000002,137.8010450392996L235.73333333333335,137.17833083043863L236.86666666666667,135.38196958013594L238,137.9164043224653L239.13333333333333,137.26819571202472L240.26666666666665,138.0745075976066L241.39999999999998,137.71917451739614L242.53333333333336,136.78673685135462L243.66666666666669,138.35508483018708L244.8,140.23246110225512L245.93333333333334,142.67838725727495L247.06666666666666,141.30559677227777L248.2,139.90837663042862" style="fill: none;" fill="none"></path></g><g><path stroke="rgb(238, 51, 119)" stroke-width="2px" d="M22.666666666666664,155.74999988948306L23.799999999999997,154.08239640417867L24.93333333333333,153.53790785064467L26.06666666666667,155.3495684584543L27.200000000000003,155.93335107542012L28.333333333333336,156.3033266830808L29.46666666666667,157.34600683023814L30.6,156.93795196346082L31.733333333333334,155.54478782085408L32.86666666666667,154.52256579076453L34,154.46213824064893L35.13333333333334,154.7617166433377L36.266666666666666,154.98896808195937L37.400000000000006,155.8385362545242L38.53333333333333,156.15423960883584L39.66666666666667,156.06322887567256L40.8,155.99299913098753L41.93333333333334,156.27020672733462L43.06666666666666,155.82354117860677L44.2,155.14707385863295L45.33333333333333,154.95147196074817L46.46666666666667,154.14116649671925L47.599999999999994,154.49786065395364L48.733333333333334,155.103911645401L49.86666666666666,156.56079433184513L51,156.38133715698095L52.13333333333334,156.89805420657095L53.266666666666666,157.6284550678896L54.400000000000006,156.88496793876172L55.53333333333333,156.3060007173881L56.66666666666667,156.18307116192685L57.8,156.41525766111886L58.93333333333334,155.2844878493243L60.06666666666666,155.3873871298096L61.2,155.46753736461503L62.33333333333333,155.52996935860065L63.46666666666667,155.57860082441843L64.6,155.61648288103237L65.73333333333333,155.64599187736187L66.86666666666666,155.6689787023724L68,155.68688502452082L69.13333333333333,155.70083379792547L70.26666666666668,155.7116997397612L71.4,155.72016421582083L72.53333333333333,155.72675798646014L73.66666666666666,155.73189449967737L74.80000000000001,155.73589582277393L75.93333333333334,155.73901284090485L77.06666666666666,155.74144099040615L78.19999999999999,155.74333251424193L79.33333333333334,155.7448060085029L80.46666666666667,155.74595385882878L81.6,155.74684803319892L82.73333333333332,155.74754459440595L83.86666666666667,155.74808721520554L85,155.74850991657743L86.13333333333333,155.74883920080595L87.26666666666668,155.74909571313492L88.4,155.74929553618753L89.53333333333333,155.7494511983142L90.66666666666666,155.74957245909187L91.80000000000001,155.74966692122612L92.93333333333334,155.7497405072217L94.06666666666666,155.74979783070802L95.19999999999999,155.7498424857013L96.33333333333334,155.74987727193948L97.46666666666667,155.74990437041808L98.6,155.74992548013233L99.73333333333332,155.74994192459937L100.86666666666667,155.749954734839L102,155.74996471401553L103.13333333333333,155.74997248779397L104.26666666666668,155.74997854356735L105.4,155.74998326101476L106.53333333333333,155.74998693590626L107.66666666666666,155.74998979864677L108.80000000000001,155.74999202872158L109.93333333333334,155.74999376594988L111.06666666666666,155.7499951192507L112.19999999999999,155.42217957450364L113.33333333333334,155.49462786423283L114.46666666666667,155.55106508188518L115.6,155.59502967440804L116.73333333333332,155.62927809196614L117.86666666666667,155.6559576092335L119,155.6767409531784L120.13333333333333,155.69293117810767L121.26666666666668,155.70554336332523L122.4,155.7153682556083L123.53333333333333,155.72302184669593L124.66666666666666,155.7289839941527L125.80000000000001,155.7336285070212L126.93333333333334,155.73724658254557L128.06666666666666,155.74006506337892L129.2,155.74226065994804L130.33333333333334,155.74397102967535L131.46666666666667,155.7453034076929L132.6,155.74634133016855L133.73333333333332,155.74714987177705L134.86666666666667,155.7477797256901L136,155.74827038188835L137.13333333333333,155.74865260306677L138.26666666666665,155.7489503533648L139.39999999999998,155.74918230084694L140.53333333333336,155.7493629879355L141.66666666666669,155.7495037431775L142.8,155.74961339151105L143.93333333333334,155.74969880756285L145.06666666666666,155.74976534666723L146.2,155.74981718062952L147.33333333333331,155.74985755928614L148.46666666666664,155.74988901425968L149.60000000000002,155.74991351768404L150.73333333333335,155.74993260585163L151.86666666666667,155.74994747553416L153,155.74995905901687L154.13333333333333,155.7499680825499L155.26666666666665,155.74997511188212L156.39999999999998,155.74998058773193L157.53333333333336,155.74998485341894L158.66666666666669,155.7499881763891L159.8,155.74999076498287L160.93333333333334,155.7499927814974L162.06666666666666,155.74999435236225L163.2,155.74999557606594L164.33333333333331,155.74999652933113L165.46666666666664,155.7499972719247L166.60000000000002,155.7499978504051L167.73333333333335,155.74999830104133L168.86666666666667,155.74999865208696L170,155.7499989255515L171.13333333333333,155.74999913858036L172.26666666666665,155.74999930452987L173.39999999999998,155.7499994338045L174.53333333333336,155.74999953450947L175.66666666666669,155.42218301467986L176.8,155.49463054401136L177.93333333333334,155.5510671693606L179.06666666666666,155.59503130050766L180.2,155.62927935867123L181.33333333333331,155.65595859598065L182.46666666666664,155.67674172184468L183.60000000000002,155.69293177689275L184.73333333333335,155.7055438297752L185.86666666666667,155.71536861897064L187,155.7230221297539L188.13333333333333,155.72898421465405L189.26666666666665,155.73362867879126L190.39999999999998,155.73724671635415L191.53333333333336,155.74006516761563L192.66666666666669,155.74226074114833L193.8,155.7439710929303L194.93333333333334,155.74530345696846L196.06666666666666,155.7463413685542L197.2,155.74714990167948L198.33333333333331,155.74777974898407L199.46666666666664,155.74827040003433L200.60000000000002,155.7486526172025L201.73333333333335,155.7489503643765L202.86666666666667,155.74918230942507L204,155.74936299461788L205.13333333333333,155.7495037483831L206.26666666666665,155.74961339556617L207.39999999999998,155.7496988107218L208.53333333333336,155.74976534912804L209.66666666666669,155.7498171825465L210.8,155.74985756077947L211.93333333333334,155.74988901542298L213.06666666666666,155.74991351859023L214.2,155.74993260655756L215.33333333333331,155.7499474760841L216.46666666666664,155.74995905944527L217.60000000000002,155.7499680828836L218.73333333333335,155.7499751121421L219.86666666666667,155.42216398965567L221,155.4946157235175L222.13333333333333,155.5510556241959L223.26666666666665,155.59502230682438L224.39999999999998,155.62927235259193L225.53333333333336,155.65595313824488L226.66666666666669,155.6767374702685L227.8,155.69292846491493L228.93333333333334,155.7055412497445L230.06666666666666,155.7153666091267L231.2,155.72302056408546L232.33333333333331,155.72898299499832L233.46666666666664,155.73362772867947L234.60000000000002,155.73724597621705L235.73333333333335,155.74006459104885L236.86666666666667,155.7422602920028L238,155.74397074304594L239.13333333333333,155.74530318440856L240.26666666666665,155.74634115623002L241.39999999999998,155.74714973627894L242.53333333333336,155.74777962013704L243.66666666666669,155.74827029966252L244.8,155.74865253901285L245.93333333333334,155.74895030346676L247.06666666666666,155.74918226197636L248.2,155.74936295765536" style="fill: none;" fill="none"></path></g></g></g></g><g opacity="0.2"><g><g><g><path stroke="rgb(255, 112, 67)" stroke-width="2px" d="M22.666666666666664,155.74999988948306L23.799999999999997,155.74999988948306L24.93333333333333,157.23333346595368L26.06666666666667,154.2666668655972L27.200000000000003,158.7166667661319L28.333333333333336,157.23333346595368L29.46666666666667,157.23333346595368L30.6,149.81666613618535L31.733333333333334,152.78333328912657L32.86666666666667,143.88333404064178L34,139.43333386381468L35.13333333333334,136.466665605704L36.266666666666666,133.49999955793223L37.400000000000006,123.11666507522267L38.53333333333333,134.98333368698758L39.66666666666667,123.11666507522267L40.8,145.3666670645277L41.93333333333334,127.5666674623887L43.06666666666666,114.21666472156843L44.2,114.21666472156843L45.33333333333333,121.63333315650624L46.46666666666667,115.70000106096268L47.599999999999994,108.2833326260249L48.733333333333334,102.35000053048135L49.86666666666666,102.35000053048135L51,100.86666861176492L52.13333333333334,96.4166684349378L53.266666666666666,90.48333191871644L54.400000000000006,75.6500038901965L55.53333333333333,84.55000424385072L56.66666666666667,90.48333191871644L57.8,78.61666772762936L58.93333333333334,74.16666313012443L60.06666666666666,72.683331211408L61.2,80.0999996463458L62.33333333333333,66.75000353654228L63.46666666666667,65.2666627764702L64.6,66.75000353654228L65.73333333333333,51.916666666666686L66.86666666666666,48.950002829233824L68,50.433334747950255L69.13333333333333,63.78333085775377L70.26666666666668,47.466670910517394L71.4,68.23333545525871L72.53333333333333,48.950002829233824L73.66666666666666,38.56667055686319L74.80000000000001,50.433334747950255L75.93333333333334,44.49999823172891L77.06666666666666,45.98333015044534L78.19999999999999,43.01666631301248L79.33333333333334,56.36666242281598L80.46666666666667,37.083329796791105L81.6,51.916666666666686L82.73333333333332,34.116665959358244L83.86666666666667,37.083329796791105L85,28.18332944313687L86.13333333333333,40.05000247557962L87.26666666666668,35.599997878074674L88.4,34.116665959358244L89.53333333333333,37.083329796791105L90.66666666666666,32.63333404064181L91.80000000000001,29.66667020320895L92.93333333333334,29.66667020320895L94.06666666666666,41.53333439429605L95.19999999999999,28.18332944313687L96.33333333333334,28.18332944313687L97.46666666666667,34.116665959358244L98.6,29.66667020320895L99.73333333333332,35.599997878074674L100.86666666666667,26.69999752442044L102,35.599997878074674L103.13333333333333,25.21666560570401L104.26666666666668,29.66667020320895L105.4,28.18332944313687L106.53333333333333,32.63333404064181L107.66666666666666,40.05000247557962L108.80000000000001,22.250001768271147L109.93333333333334,25.21666560570401L111.06666666666666,31.150002121925382L112.19999999999999,29.66667020320895L113.33333333333334,26.69999752442044L114.46666666666667,34.116665959358244L115.6,29.66667020320895L116.73333333333332,29.66667020320895L117.86666666666667,26.69999752442044L119,22.250001768271147L120.13333333333333,31.150002121925382L121.26666666666668,17.799997170766204L122.4,29.66667020320895L123.53333333333333,20.766669849554717L124.66666666666666,26.69999752442044L125.80000000000001,28.18332944313687L126.93333333333334,32.63333404064181L128.06666666666666,34.116665959358244L129.2,22.250001768271147L130.33333333333334,26.69999752442044L131.46666666666667,31.150002121925382L132.6,26.69999752442044L133.73333333333332,29.66667020320895L134.86666666666667,26.69999752442044L136,22.250001768271147L137.13333333333333,26.69999752442044L138.26666666666665,22.250001768271147L139.39999999999998,22.250001768271147L140.53333333333336,31.150002121925382L141.66666666666669,29.66667020320895L142.8,35.599997878074674L143.93333333333334,28.18332944313687L145.06666666666666,32.63333404064181L146.2,26.69999752442044L147.33333333333331,22.250001768271147L148.46666666666664,26.69999752442044L149.60000000000002,28.18332944313687L150.73333333333335,29.66667020320895L151.86666666666667,28.18332944313687L153,20.766669849554717L154.13333333333333,19.283329089482635L155.26666666666665,22.250001768271147L156.39999999999998,25.21666560570401L157.53333333333336,31.150002121925382L158.66666666666669,20.766669849554717L159.8,20.766669849554717L160.93333333333334,17.799997170766204L162.06666666666666,29.66667020320895L163.2,25.21666560570401L164.33333333333331,28.18332944313687L165.46666666666664,25.21666560570401L166.60000000000002,28.18332944313687L167.73333333333335,26.69999752442044L168.86666666666667,31.150002121925382L170,29.66667020320895L171.13333333333333,23.733333686987578L172.26666666666665,28.18332944313687L173.39999999999998,31.150002121925382L174.53333333333336,28.18332944313687L175.66666666666669,25.21666560570401L176.8,25.21666560570401L177.93333333333334,25.21666560570401L179.06666666666666,26.69999752442044L180.2,22.250001768271147L181.33333333333331,20.766669849554717L182.46666666666664,26.69999752442044L183.60000000000002,25.21666560570401L184.73333333333335,22.250001768271147L185.86666666666667,26.69999752442044L187,28.18332944313687L188.13333333333333,20.766669849554717L189.26666666666665,35.599997878074674L190.39999999999998,26.69999752442044L191.53333333333336,20.766669849554717L192.66666666666669,17.799997170766204L193.8,31.150002121925382L194.93333333333334,25.21666560570401L196.06666666666666,26.69999752442044L197.2,29.66667020320895L198.33333333333331,25.21666560570401L199.46666666666664,22.250001768271147L200.60000000000002,22.250001768271147L201.73333333333335,31.150002121925382L202.86666666666667,26.69999752442044L204,26.69999752442044L205.13333333333333,28.18332944313687L206.26666666666665,28.18332944313687L207.39999999999998,22.250001768271147L208.53333333333336,22.250001768271147L209.66666666666669,23.733333686987578L210.8,31.150002121925382L211.93333333333334,26.69999752442044L213.06666666666666,22.250001768271147L214.2,23.733333686987578L215.33333333333331,17.799997170766204L216.46666666666664,23.733333686987578L217.60000000000002,25.21666560570401L218.73333333333335,23.733333686987578L219.86666666666667,22.250001768271147L221,22.250001768271147L222.13333333333333,22.250001768271147L223.26666666666665,17.799997170766204L224.39999999999998,23.733333686987578L225.53333333333336,17.799997170766204L226.66666666666669,28.18332944313687L227.8,22.250001768271147L228.93333333333334,29.66667020320895L230.06666666666666,23.733333686987578L231.2,28.18332944313687L232.33333333333331,22.250001768271147L233.46666666666664,29.66667020320895L234.60000000000002,28.18332944313687L235.73333333333335,22.250001768271147L236.86666666666667,23.733333686987578L238,23.733333686987578L239.13333333333333,22.250001768271147L240.26666666666665,23.733333686987578L241.39999999999998,23.733333686987578L242.53333333333336,20.766669849554717L243.66666666666669,22.250001768271147L244.8,17.799997170766204L245.93333333333334,20.766669849554717L247.06666666666666,22.250001768271147L248.2,16.316665252049773" style="fill: none;" fill="none"></path></g><g><path stroke="rgb(255, 112, 67)" stroke-width="2px" d="M22.666666666666664,152.78333328912657L23.799999999999997,151.30000026524067L24.93333333333333,146.85000008841357L26.06666666666667,132.0166676392158L27.200000000000003,133.49999955793223L28.333333333333336,130.53333351016045L29.46666666666667,118.66666489839554L30.6,106.80000070730847L31.733333333333334,117.18333297967911L32.86666666666667,105.31666878859204L34,97.90000035365424L35.13333333333334,90.48333191871644L36.266666666666666,77.13333580891293L37.400000000000006,72.683331211408L38.53333333333333,89.00000000000001L39.66666666666667,69.71666737397514L40.8,78.61666772762936L41.93333333333334,57.850003182888045L43.06666666666666,62.29999893903734L44.2,53.399998585383116L45.33333333333333,60.81666702032091L46.46666666666667,50.433334747950255L47.599999999999994,62.29999893903734L48.733333333333334,47.466670910517394L49.86666666666666,48.950002829233824L51,50.433334747950255L52.13333333333334,37.083329796791105L53.266666666666666,44.49999823172891L54.400000000000006,40.05000247557962L55.53333333333333,34.116665959358244L56.66666666666667,35.599997878074674L57.8,35.599997878074674L58.93333333333334,37.083329796791105L60.06666666666666,32.63333404064181L61.2,26.69999752442044L62.33333333333333,31.150002121925382L63.46666666666667,38.56667055686319L64.6,38.56667055686319L65.73333333333333,40.05000247557962L66.86666666666666,34.116665959358244L68,28.18332944313687L69.13333333333333,38.56667055686319L70.26666666666668,38.56667055686319L71.4,31.150002121925382L72.53333333333333,20.766669849554717L73.66666666666666,22.250001768271147L74.80000000000001,31.150002121925382L75.93333333333334,25.21666560570401L77.06666666666666,28.18332944313687L78.19999999999999,31.150002121925382L79.33333333333334,29.66667020320895L80.46666666666667,23.733333686987578L81.6,20.766669849554717L82.73333333333332,22.250001768271147L83.86666666666667,20.766669849554717L85,23.733333686987578L86.13333333333333,32.63333404064181L87.26666666666668,22.250001768271147L88.4,26.69999752442044L89.53333333333333,22.250001768271147L90.66666666666666,25.21666560570401L91.80000000000001,25.21666560570401L92.93333333333334,17.799997170766204L94.06666666666666,19.283329089482635L95.19999999999999,17.799997170766204L96.33333333333334,17.799997170766204L97.46666666666667,17.799997170766204L98.6,17.799997170766204L99.73333333333332,23.733333686987578L100.86666666666667,19.283329089482635L102,19.283329089482635L103.13333333333333,17.799997170766204L104.26666666666668,22.250001768271147L105.4,20.766669849554717L106.53333333333333,20.766669849554717L107.66666666666666,19.283329089482635L108.80000000000001,19.283329089482635L109.93333333333334,17.799997170766204L111.06666666666666,16.316665252049773L112.19999999999999,17.799997170766204L113.33333333333334,17.799997170766204L114.46666666666667,16.316665252049773L115.6,22.250001768271147L116.73333333333332,16.316665252049773L117.86666666666667,20.766669849554717L119,20.766669849554717L120.13333333333333,19.283329089482635L121.26666666666668,16.316665252049773L122.4,22.250001768271147L123.53333333333333,22.250001768271147L124.66666666666666,14.833333333333343L125.80000000000001,14.833333333333343L126.93333333333334,16.316665252049773L128.06666666666666,17.799997170766204L129.2,20.766669849554717L130.33333333333334,16.316665252049773L131.46666666666667,16.316665252049773L132.6,16.316665252049773L133.73333333333332,16.316665252049773L134.86666666666667,17.799997170766204L136,22.250001768271147L137.13333333333333,17.799997170766204L138.26666666666665,17.799997170766204L139.39999999999998,17.799997170766204L140.53333333333336,17.799997170766204L141.66666666666669,17.799997170766204L142.8,16.316665252049773L143.93333333333334,17.799997170766204L145.06666666666666,16.316665252049773L146.2,22.250001768271147L147.33333333333331,17.799997170766204L148.46666666666664,16.316665252049773L149.60000000000002,16.316665252049773L150.73333333333335,14.833333333333343L151.86666666666667,16.316665252049773L153,17.799997170766204L154.13333333333333,14.833333333333343L155.26666666666665,19.283329089482635L156.39999999999998,16.316665252049773L157.53333333333336,14.833333333333343L158.66666666666669,16.316665252049773L159.8,19.283329089482635L160.93333333333334,17.799997170766204L162.06666666666666,14.833333333333343L163.2,16.316665252049773L164.33333333333331,14.833333333333343L165.46666666666664,16.316665252049773L166.60000000000002,17.799997170766204L167.73333333333335,17.799997170766204L168.86666666666667,14.833333333333343L170,19.283329089482635L171.13333333333333,20.766669849554717L172.26666666666665,14.833333333333343L173.39999999999998,19.283329089482635L174.53333333333336,14.833333333333343L175.66666666666669,16.316665252049773L176.8,19.283329089482635L177.93333333333334,16.316665252049773L179.06666666666666,16.316665252049773L180.2,14.833333333333343L181.33333333333331,14.833333333333343L182.46666666666664,14.833333333333343L183.60000000000002,14.833333333333343L184.73333333333335,17.799997170766204L185.86666666666667,17.799997170766204L187,16.316665252049773L188.13333333333333,16.316665252049773L189.26666666666665,16.316665252049773L190.39999999999998,14.833333333333343L191.53333333333336,17.799997170766204L192.66666666666669,14.833333333333343L193.8,20.766669849554717L194.93333333333334,14.833333333333343L196.06666666666666,16.316665252049773L197.2,19.283329089482635L198.33333333333331,16.316665252049773L199.46666666666664,16.316665252049773L200.60000000000002,17.799997170766204L201.73333333333335,14.833333333333343L202.86666666666667,14.833333333333343L204,16.316665252049773L205.13333333333333,17.799997170766204L206.26666666666665,14.833333333333343L207.39999999999998,17.799997170766204L208.53333333333336,16.316665252049773L209.66666666666669,19.283329089482635L210.8,14.833333333333343L211.93333333333334,16.316665252049773L213.06666666666666,16.316665252049773L214.2,14.833333333333343L215.33333333333331,14.833333333333343L216.46666666666664,14.833333333333343L217.60000000000002,16.316665252049773L218.73333333333335,14.833333333333343L219.86666666666667,16.316665252049773L221,14.833333333333343L222.13333333333333,16.316665252049773L223.26666666666665,14.833333333333343L224.39999999999998,16.316665252049773L225.53333333333336,14.833333333333343L226.66666666666669,16.316665252049773L227.8,16.316665252049773L228.93333333333334,14.833333333333343L230.06666666666666,14.833333333333343L231.2,16.316665252049773L232.33333333333331,14.833333333333343L233.46666666666664,16.316665252049773L234.60000000000002,14.833333333333343L235.73333333333335,17.799997170766204L236.86666666666667,16.316665252049773L238,14.833333333333343L239.13333333333333,16.316665252049773L240.26666666666665,14.833333333333343L241.39999999999998,14.833333333333343L242.53333333333336,16.316665252049773L243.66666666666669,17.799997170766204L244.8,14.833333333333343L245.93333333333334,17.799997170766204L247.06666666666666,16.316665252049773L248.2,16.316665252049773" style="fill: none;" fill="none"></path></g><g><path stroke="rgb(187, 187, 187)" stroke-width="2px" d="M22.666666666666664,157.23333346595368L23.799999999999997,149.81666613618535L24.93333333333333,158.7166667661319L26.06666666666667,154.2666668655972L27.200000000000003,154.2666668655972L28.333333333333336,154.2666668655972L29.46666666666667,158.7166667661319L30.6,154.2666668655972L31.733333333333334,151.30000026524067L32.86666666666667,152.78333328912657L34,154.2666668655972L35.13333333333334,146.85000008841357L36.266666666666666,146.85000008841357L37.400000000000006,148.33333311229944L38.53333333333333,154.2666668655972L39.66666666666667,152.78333328912657L40.8,142.39999991158646L41.93333333333334,145.3666670645277L43.06666666666666,143.88333404064178L44.2,151.30000026524067L45.33333333333333,151.30000026524067L46.46666666666667,142.39999991158646L47.599999999999994,140.9166657825311L48.733333333333334,143.88333404064178L49.86666666666666,151.30000026524067L51,146.85000008841357L52.13333333333334,146.85000008841357L53.266666666666666,145.3666670645277L54.400000000000006,142.39999991158646L55.53333333333333,142.39999991158646L56.66666666666667,149.81666613618535L57.8,143.88333404064178L58.93333333333334,139.43333386381468L60.06666666666666,140.9166657825311L61.2,134.98333368698758L62.33333333333333,134.98333368698758L63.46666666666667,137.94999973475933L64.6,129.04999938110512L65.73333333333333,126.08333333333334L66.86666666666666,127.5666674623887L68,136.466665605704L69.13333333333333,127.5666674623887L70.26666666666668,127.5666674623887L71.4,121.63333315650624L72.53333333333333,140.9166657825311L73.66666666666666,133.49999955793223L74.80000000000001,133.49999955793223L75.93333333333334,123.11666507522267L77.06666666666666,112.733332802852L78.19999999999999,124.60000141461691L79.33333333333334,115.70000106096268L80.46666666666667,130.53333351016045L81.6,117.18333297967911L82.73333333333332,130.53333351016045L83.86666666666667,126.08333333333334L85,120.15000123778981L86.13333333333333,117.18333297967911L87.26666666666668,121.63333315650624L88.4,118.66666489839554L89.53333333333333,112.733332802852L90.66666666666666,130.53333351016045L91.80000000000001,121.63333315650624L92.93333333333334,126.08333333333334L94.06666666666666,124.60000141461691L95.19999999999999,118.66666489839554L96.33333333333334,102.35000053048135L97.46666666666667,127.5666674623887L98.6,121.63333315650624L99.73333333333332,112.733332802852L100.86666666666667,112.733332802852L102,123.11666507522267L103.13333333333333,114.21666472156843L104.26666666666668,120.15000123778981L105.4,117.18333297967911L106.53333333333333,124.60000141461691L107.66666666666666,120.15000123778981L108.80000000000001,117.18333297967911L109.93333333333334,114.21666472156843L111.06666666666666,127.5666674623887L112.19999999999999,121.63333315650624L113.33333333333334,102.35000053048135L114.46666666666667,112.733332802852L115.6,114.21666472156843L116.73333333333332,114.21666472156843L117.86666666666667,121.63333315650624L119,109.76666454474133L120.13333333333333,117.18333297967911L121.26666666666668,127.5666674623887L122.4,117.18333297967911L123.53333333333333,106.80000070730847L124.66666666666666,115.70000106096268L125.80000000000001,124.60000141461691L126.93333333333334,100.86666861176492L128.06666666666666,109.76666454474133L129.2,112.733332802852L130.33333333333334,103.83333244919778L131.46666666666667,105.31666878859204L132.6,112.733332802852L133.73333333333332,117.18333297967911L134.86666666666667,94.93333209554356L136,97.90000035365424L137.13333333333333,97.90000035365424L138.26666666666665,96.4166684349378L139.39999999999998,96.4166684349378L140.53333333333336,114.21666472156843L141.66666666666669,108.2833326260249L142.8,102.35000053048135L143.93333333333334,114.21666472156843L145.06666666666666,120.15000123778981L146.2,108.2833326260249L147.33333333333331,112.733332802852L148.46666666666664,106.80000070730847L149.60000000000002,109.76666454474133L150.73333333333335,96.4166684349378L151.86666666666667,115.70000106096268L153,96.4166684349378L154.13333333333333,109.76666454474133L155.26666666666665,103.83333244919778L156.39999999999998,109.76666454474133L157.53333333333336,111.25000088413557L158.66666666666669,123.11666507522267L159.8,108.2833326260249L160.93333333333334,103.83333244919778L162.06666666666666,120.15000123778981L163.2,97.90000035365424L164.33333333333331,105.31666878859204L165.46666666666664,121.63333315650624L166.60000000000002,109.76666454474133L167.73333333333335,111.25000088413557L168.86666666666667,109.76666454474133L170,103.83333244919778L171.13333333333333,105.31666878859204L172.26666666666665,115.70000106096268L173.39999999999998,102.35000053048135L174.53333333333336,117.18333297967911L175.66666666666669,109.76666454474133L176.8,103.83333244919778L177.93333333333334,112.733332802852L179.06666666666666,105.31666878859204L180.2,114.21666472156843L181.33333333333331,100.86666861176492L182.46666666666664,103.83333244919778L183.60000000000002,99.38333227237067L184.73333333333335,111.25000088413557L185.86666666666667,100.86666861176492L187,94.93333209554356L188.13333333333333,109.76666454474133L189.26666666666665,86.03333616256715L190.39999999999998,111.25000088413557L191.53333333333336,106.80000070730847L192.66666666666669,106.80000070730847L193.8,94.93333209554356L194.93333333333334,105.31666878859204L196.06666666666666,112.733332802852L197.2,100.86666861176492L198.33333333333331,106.80000070730847L199.46666666666664,94.93333209554356L200.60000000000002,103.83333244919778L201.73333333333335,109.76666454474133L202.86666666666667,97.90000035365424L204,100.86666861176492L205.13333333333333,102.35000053048135L206.26666666666665,102.35000053048135L207.39999999999998,97.90000035365424L208.53333333333336,103.83333244919778L209.66666666666669,100.86666861176492L210.8,103.83333244919778L211.93333333333334,90.48333191871644L213.06666666666666,105.31666878859204L214.2,115.70000106096268L215.33333333333331,112.733332802852L216.46666666666664,94.93333209554356L217.60000000000002,89.00000000000001L218.73333333333335,108.2833326260249L219.86666666666667,102.35000053048135L221,106.80000070730847L222.13333333333333,91.9666682581107L223.26666666666665,93.45000017682713L224.39999999999998,94.93333209554356L225.53333333333336,89.00000000000001L226.66666666666669,102.35000053048135L227.8,91.9666682581107L228.93333333333334,111.25000088413557L230.06666666666666,115.70000106096268L231.2,102.35000053048135L232.33333333333331,94.93333209554356L233.46666666666664,90.48333191871644L234.60000000000002,94.93333209554356L235.73333333333335,87.51666808128358L236.86666666666667,99.38333227237067L238,105.31666878859204L239.13333333333333,90.48333191871644L240.26666666666665,112.733332802852L241.39999999999998,105.31666878859204L242.53333333333336,100.86666861176492L243.66666666666669,102.35000053048135L244.8,97.90000035365424L245.93333333333334,109.76666454474133L247.06666666666666,93.45000017682713L248.2,90.48333191871644" style="fill: none;" fill="none"></path></g><g><path stroke="rgb(0, 153, 136)" stroke-width="2px" d="M22.666666666666664,155.74999988948306L23.799999999999997,155.74999988948306L24.93333333333333,155.74999988948306L26.06666666666667,157.23333346595368L27.200000000000003,155.74999988948306L28.333333333333336,154.2666668655972L29.46666666666667,151.30000026524067L30.6,154.2666668655972L31.733333333333334,158.7166667661319L32.86666666666667,152.78333328912657L34,154.2666668655972L35.13333333333334,154.2666668655972L36.266666666666666,155.74999988948306L37.400000000000006,155.74999988948306L38.53333333333333,155.74999988948306L39.66666666666667,155.74999988948306L40.8,149.81666613618535L41.93333333333334,155.74999988948306L43.06666666666666,155.74999988948306L44.2,151.30000026524067L45.33333333333333,155.74999988948306L46.46666666666667,154.2666668655972L47.599999999999994,154.2666668655972L48.733333333333334,145.3666670645277L49.86666666666666,142.39999991158646L51,137.94999973475933L52.13333333333334,140.9166657825311L53.266666666666666,142.39999991158646L54.400000000000006,142.39999991158646L55.53333333333333,133.49999955793223L56.66666666666667,145.3666670645277L57.8,127.5666674623887L58.93333333333334,137.94999973475933L60.06666666666666,142.39999991158646L61.2,137.94999973475933L62.33333333333333,133.49999955793223L63.46666666666667,133.49999955793223L64.6,145.3666670645277L65.73333333333333,126.08333333333334L66.86666666666666,140.9166657825311L68,129.04999938110512L69.13333333333333,137.94999973475933L70.26666666666668,133.49999955793223L71.4,139.43333386381468L72.53333333333333,133.49999955793223L73.66666666666666,134.98333368698758L74.80000000000001,130.53333351016045L75.93333333333334,134.98333368698758L77.06666666666666,139.43333386381468L78.19999999999999,133.49999955793223L79.33333333333334,133.49999955793223L80.46666666666667,134.98333368698758L81.6,143.88333404064178L82.73333333333332,140.9166657825311L83.86666666666667,136.466665605704L85,145.3666670645277L86.13333333333333,134.98333368698758L87.26666666666668,137.94999973475933L88.4,132.0166676392158L89.53333333333333,134.98333368698758L90.66666666666666,139.43333386381468L91.80000000000001,139.43333386381468L92.93333333333334,137.94999973475933L94.06666666666666,137.94999973475933L95.19999999999999,142.39999991158646L96.33333333333334,137.94999973475933L97.46666666666667,129.04999938110512L98.6,126.08333333333334L99.73333333333332,140.9166657825311L100.86666666666667,137.94999973475933L102,139.43333386381468L103.13333333333333,140.9166657825311L104.26666666666668,145.3666670645277L105.4,134.98333368698758L106.53333333333333,140.9166657825311L107.66666666666666,145.3666670645277L108.80000000000001,142.39999991158646L109.93333333333334,134.98333368698758L111.06666666666666,142.39999991158646L112.19999999999999,142.39999991158646L113.33333333333334,132.0166676392158L114.46666666666667,134.98333368698758L115.6,134.98333368698758L116.73333333333332,134.98333368698758L117.86666666666667,137.94999973475933L119,133.49999955793223L120.13333333333333,139.43333386381468L121.26666666666668,142.39999991158646L122.4,130.53333351016045L123.53333333333333,139.43333386381468L124.66666666666666,145.3666670645277L125.80000000000001,143.88333404064178L126.93333333333334,140.9166657825311L128.06666666666666,137.94999973475933L129.2,139.43333386381468L130.33333333333334,140.9166657825311L131.46666666666667,129.04999938110512L132.6,140.9166657825311L133.73333333333332,142.39999991158646L134.86666666666667,137.94999973475933L136,130.53333351016045L137.13333333333333,136.466665605704L138.26666666666665,139.43333386381468L139.39999999999998,143.88333404064178L140.53333333333336,137.94999973475933L141.66666666666669,137.94999973475933L142.8,136.466665605704L143.93333333333334,124.60000141461691L145.06666666666666,127.5666674623887L146.2,140.9166657825311L147.33333333333331,130.53333351016045L148.46666666666664,134.98333368698758L149.60000000000002,139.43333386381468L150.73333333333335,143.88333404064178L151.86666666666667,145.3666670645277L153,126.08333333333334L154.13333333333333,136.466665605704L155.26666666666665,140.9166657825311L156.39999999999998,148.33333311229944L157.53333333333336,137.94999973475933L158.66666666666669,132.0166676392158L159.8,132.0166676392158L160.93333333333334,142.39999991158646L162.06666666666666,134.98333368698758L163.2,137.94999973475933L164.33333333333331,139.43333386381468L165.46666666666664,139.43333386381468L166.60000000000002,142.39999991158646L167.73333333333335,136.466665605704L168.86666666666667,133.49999955793223L170,133.49999955793223L171.13333333333333,133.49999955793223L172.26666666666665,142.39999991158646L173.39999999999998,136.466665605704L174.53333333333336,139.43333386381468L175.66666666666669,133.49999955793223L176.8,124.60000141461691L177.93333333333334,146.85000008841357L179.06666666666666,136.466665605704L180.2,140.9166657825311L181.33333333333331,139.43333386381468L182.46666666666664,137.94999973475933L183.60000000000002,143.88333404064178L184.73333333333335,142.39999991158646L185.86666666666667,134.98333368698758L187,130.53333351016045L188.13333333333333,139.43333386381468L189.26666666666665,142.39999991158646L190.39999999999998,136.466665605704L191.53333333333336,130.53333351016045L192.66666666666669,142.39999991158646L193.8,136.466665605704L194.93333333333334,139.43333386381468L196.06666666666666,142.39999991158646L197.2,133.49999955793223L198.33333333333331,133.49999955793223L199.46666666666664,139.43333386381468L200.60000000000002,133.49999955793223L201.73333333333335,129.04999938110512L202.86666666666667,132.0166676392158L204,142.39999991158646L205.13333333333333,133.49999955793223L206.26666666666665,134.98333368698758L207.39999999999998,134.98333368698758L208.53333333333336,139.43333386381468L209.66666666666669,139.43333386381468L210.8,134.98333368698758L211.93333333333334,142.39999991158646L213.06666666666666,130.53333351016045L214.2,140.9166657825311L215.33333333333331,148.33333311229944L216.46666666666664,139.43333386381468L217.60000000000002,136.466665605704L218.73333333333335,124.60000141461691L219.86666666666667,137.94999973475933L221,139.43333386381468L222.13333333333333,143.88333404064178L223.26666666666665,143.88333404064178L224.39999999999998,136.466665605704L225.53333333333336,134.98333368698758L226.66666666666669,132.0166676392158L227.8,145.3666670645277L228.93333333333334,136.466665605704L230.06666666666666,132.0166676392158L231.2,137.94999973475933L232.33333333333331,139.43333386381468L233.46666666666664,136.466665605704L234.60000000000002,139.43333386381468L235.73333333333335,134.98333368698758L236.86666666666667,129.04999938110512L238,146.85000008841357L239.13333333333333,134.98333368698758L240.26666666666665,140.9166657825311L241.39999999999998,136.466665605704L242.53333333333336,133.49999955793223L243.66666666666669,143.88333404064178L244.8,146.85000008841357L245.93333333333334,151.30000026524067L247.06666666666666,136.466665605704L248.2,134.98333368698758" style="fill: none;" fill="none"></path></g><g><path stroke="rgb(238, 51, 119)" stroke-width="2px" d="M22.666666666666664,155.74999988948306L23.799999999999997,152.78333328912657L24.93333333333333,152.78333328912657L26.06666666666667,158.7166667661319L27.200000000000003,157.23333346595368L28.333333333333336,157.23333346595368L29.46666666666667,160.20000006631017L30.6,155.74999988948306L31.733333333333334,151.30000026524067L32.86666666666667,151.30000026524067L34,154.2666668655972L35.13333333333334,155.74999988948306L36.266666666666666,155.74999988948306L37.400000000000006,158.7166667661319L38.53333333333333,157.23333346595368L39.66666666666667,155.74999988948306L40.8,155.74999988948306L41.93333333333334,157.23333346595368L43.06666666666666,154.2666668655972L44.2,152.78333328912657L45.33333333333333,154.2666668655972L46.46666666666667,151.30000026524067L47.599999999999994,155.74999988948306L48.733333333333334,157.23333346595368L49.86666666666666,161.68333336648843L51,155.74999988948306L52.13333333333334,158.7166667661319L53.266666666666666,160.20000006631017L54.400000000000006,154.2666668655972L55.53333333333333,154.2666668655972L56.66666666666667,155.74999988948306L57.8,157.23333346595368L58.93333333333334,151.30000026524067L60.06666666666666,155.74999988948306L61.2,155.74999988948306L62.33333333333333,155.74999988948306L63.46666666666667,155.74999988948306L64.6,155.74999988948306L65.73333333333333,155.74999988948306L66.86666666666666,155.74999988948306L68,155.74999988948306L69.13333333333333,155.74999988948306L70.26666666666668,155.74999988948306L71.4,155.74999988948306L72.53333333333333,155.74999988948306L73.66666666666666,155.74999988948306L74.80000000000001,155.74999988948306L75.93333333333334,155.74999988948306L77.06666666666666,155.74999988948306L78.19999999999999,155.74999988948306L79.33333333333334,155.74999988948306L80.46666666666667,155.74999988948306L81.6,155.74999988948306L82.73333333333332,155.74999988948306L83.86666666666667,155.74999988948306L85,155.74999988948306L86.13333333333333,155.74999988948306L87.26666666666668,155.74999988948306L88.4,155.74999988948306L89.53333333333333,155.74999988948306L90.66666666666666,155.74999988948306L91.80000000000001,155.74999988948306L92.93333333333334,155.74999988948306L94.06666666666666,155.74999988948306L95.19999999999999,155.74999988948306L96.33333333333334,155.74999988948306L97.46666666666667,155.74999988948306L98.6,155.74999988948306L99.73333333333332,155.74999988948306L100.86666666666667,155.74999988948306L102,155.74999988948306L103.13333333333333,155.74999988948306L104.26666666666668,155.74999988948306L105.4,155.74999988948306L106.53333333333333,155.74999988948306L107.66666666666666,155.74999988948306L108.80000000000001,155.74999988948306L109.93333333333334,155.74999988948306L111.06666666666666,155.74999988948306L112.19999999999999,154.2666668655972L113.33333333333334,155.74999988948306L114.46666666666667,155.74999988948306L115.6,155.74999988948306L116.73333333333332,155.74999988948306L117.86666666666667,155.74999988948306L119,155.74999988948306L120.13333333333333,155.74999988948306L121.26666666666668,155.74999988948306L122.4,155.74999988948306L123.53333333333333,155.74999988948306L124.66666666666666,155.74999988948306L125.80000000000001,155.74999988948306L126.93333333333334,155.74999988948306L128.06666666666666,155.74999988948306L129.2,155.74999988948306L130.33333333333334,155.74999988948306L131.46666666666667,155.74999988948306L132.6,155.74999988948306L133.73333333333332,155.74999988948306L134.86666666666667,155.74999988948306L136,155.74999988948306L137.13333333333333,155.74999988948306L138.26666666666665,155.74999988948306L139.39999999999998,155.74999988948306L140.53333333333336,155.74999988948306L141.66666666666669,155.74999988948306L142.8,155.74999988948306L143.93333333333334,155.74999988948306L145.06666666666666,155.74999988948306L146.2,155.74999988948306L147.33333333333331,155.74999988948306L148.46666666666664,155.74999988948306L149.60000000000002,155.74999988948306L150.73333333333335,155.74999988948306L151.86666666666667,155.74999988948306L153,155.74999988948306L154.13333333333333,155.74999988948306L155.26666666666665,155.74999988948306L156.39999999999998,155.74999988948306L157.53333333333336,155.74999988948306L158.66666666666669,155.74999988948306L159.8,155.74999988948306L160.93333333333334,155.74999988948306L162.06666666666666,155.74999988948306L163.2,155.74999988948306L164.33333333333331,155.74999988948306L165.46666666666664,155.74999988948306L166.60000000000002,155.74999988948306L167.73333333333335,155.74999988948306L168.86666666666667,155.74999988948306L170,155.74999988948306L171.13333333333333,155.74999988948306L172.26666666666665,155.74999988948306L173.39999999999998,155.74999988948306L174.53333333333336,155.74999988948306L175.66666666666669,154.2666668655972L176.8,155.74999988948306L177.93333333333334,155.74999988948306L179.06666666666666,155.74999988948306L180.2,155.74999988948306L181.33333333333331,155.74999988948306L182.46666666666664,155.74999988948306L183.60000000000002,155.74999988948306L184.73333333333335,155.74999988948306L185.86666666666667,155.74999988948306L187,155.74999988948306L188.13333333333333,155.74999988948306L189.26666666666665,155.74999988948306L190.39999999999998,155.74999988948306L191.53333333333336,155.74999988948306L192.66666666666669,155.74999988948306L193.8,155.74999988948306L194.93333333333334,155.74999988948306L196.06666666666666,155.74999988948306L197.2,155.74999988948306L198.33333333333331,155.74999988948306L199.46666666666664,155.74999988948306L200.60000000000002,155.74999988948306L201.73333333333335,155.74999988948306L202.86666666666667,155.74999988948306L204,155.74999988948306L205.13333333333333,155.74999988948306L206.26666666666665,155.74999988948306L207.39999999999998,155.74999988948306L208.53333333333336,155.74999988948306L209.66666666666669,155.74999988948306L210.8,155.74999988948306L211.93333333333334,155.74999988948306L213.06666666666666,155.74999988948306L214.2,155.74999988948306L215.33333333333331,155.74999988948306L216.46666666666664,155.74999988948306L217.60000000000002,155.74999988948306L218.73333333333335,155.74999988948306L219.86666666666667,154.2666668655972L221,155.74999988948306L222.13333333333333,155.74999988948306L223.26666666666665,155.74999988948306L224.39999999999998,155.74999988948306L225.53333333333336,155.74999988948306L226.66666666666669,155.74999988948306L227.8,155.74999988948306L228.93333333333334,155.74999988948306L230.06666666666666,155.74999988948306L231.2,155.74999988948306L232.33333333333331,155.74999988948306L233.46666666666664,155.74999988948306L234.60000000000002,155.74999988948306L235.73333333333335,155.74999988948306L236.86666666666667,155.74999988948306L238,155.74999988948306L239.13333333333333,155.74999988948306L240.26666666666665,155.74999988948306L241.39999999999998,155.74999988948306L242.53333333333336,155.74999988948306L243.66666666666669,155.74999988948306L244.8,155.74999988948306L245.93333333333334,155.74999988948306L247.06666666666666,155.74999988948306L248.2,155.74999988948306" style="fill: none;" fill="none"></path></g></g></g></g></g></g><g transform="translate(58, 178)" clip-path="url(#clip_1)"><clipPath id="clip_1"><rect width="272" height="22"></rect></clipPath><g><g><line x1="0" y1="0" x2="0" y2="5" style="visibility: inherit;" fill="rgb(0, 0, 0)" stroke="rgb(204, 204, 204)" stroke-width="1px"></line><line x1="22.666666666666664" y1="0" x2="22.666666666666664" y2="5" style="visibility: inherit;" fill="rgb(0, 0, 0)" stroke="rgb(204, 204, 204)" stroke-width="1px"></line><line x1="45.33333333333333" y1="0" x2="45.33333333333333" y2="5" style="visibility: inherit;" fill="rgb(0, 0, 0)" stroke="rgb(204, 204, 204)" stroke-width="1px"></line><line x1="68" y1="0" x2="68" y2="5" style="visibility: inherit;" fill="rgb(0, 0, 0)" stroke="rgb(204, 204, 204)" stroke-width="1px"></line><line x1="90.66666666666666" y1="0" x2="90.66666666666666" y2="5" style="visibility: inherit;" fill="rgb(0, 0, 0)" stroke="rgb(204, 204, 204)" stroke-width="1px"></line><line x1="113.33333333333334" y1="0" x2="113.33333333333334" y2="5" style="visibility: inherit;" fill="rgb(0, 0, 0)" stroke="rgb(204, 204, 204)" stroke-width="1px"></line><line x1="136" y1="0" x2="136" y2="5" style="visibility: inherit;" fill="rgb(0, 0, 0)" stroke="rgb(204, 204, 204)" stroke-width="1px"></line><line x1="158.66666666666669" y1="0" x2="158.66666666666669" y2="5" style="visibility: inherit;" fill="rgb(0, 0, 0)" stroke="rgb(204, 204, 204)" stroke-width="1px"></line><line x1="181.33333333333331" y1="0" x2="181.33333333333331" y2="5" style="visibility: inherit;" fill="rgb(0, 0, 0)" stroke="rgb(204, 204, 204)" stroke-width="1px"></line><line x1="204" y1="0" x2="204" y2="5" style="visibility: inherit;" fill="rgb(0, 0, 0)" stroke="rgb(204, 204, 204)" stroke-width="1px"></line><line x1="226.66666666666669" y1="0" x2="226.66666666666669" y2="5" style="visibility: inherit;" fill="rgb(0, 0, 0)" stroke="rgb(204, 204, 204)" stroke-width="1px"></line><line x1="249.33333333333331" y1="0" x2="249.33333333333331" y2="5" style="visibility: inherit;" fill="rgb(0, 0, 0)" stroke="rgb(204, 204, 204)" stroke-width="1px"></line><line x1="272" y1="0" x2="272" y2="5" style="visibility: inherit;" fill="rgb(0, 0, 0)" stroke="rgb(204, 204, 204)" stroke-width="1px"></line></g><g transform="translate(0, 8)"><text x="0" y="0" dx="0em" dy="0.95em" style="text-anchor: middle; visibility: hidden; font-family: &quot;Helvetica Neue&quot;, sans-serif; font-size: 12px; font-weight: 200;" fill="rgb(50, 49, 63)" stroke="none" stroke-width="1px">-20</text><text x="22.666666666666664" y="0" dx="0em" dy="0.95em" style="text-anchor: middle; visibility: inherit; font-family: &quot;Helvetica Neue&quot;, sans-serif; font-size: 12px; font-weight: 200;" fill="rgb(50, 49, 63)" stroke="none" stroke-width="1px">0</text><text x="45.33333333333333" y="0" dx="0em" dy="0.95em" style="text-anchor: middle; visibility: hidden; font-family: &quot;Helvetica Neue&quot;, sans-serif; font-size: 12px; font-weight: 200;" fill="rgb(50, 49, 63)" stroke="none" stroke-width="1px">20</text><text x="68" y="0" dx="0em" dy="0.95em" style="text-anchor: middle; visibility: inherit; font-family: &quot;Helvetica Neue&quot;, sans-serif; font-size: 12px; font-weight: 200;" fill="rgb(50, 49, 63)" stroke="none" stroke-width="1px">40</text><text x="90.66666666666666" y="0" dx="0em" dy="0.95em" style="text-anchor: middle; visibility: hidden; font-family: &quot;Helvetica Neue&quot;, sans-serif; font-size: 12px; font-weight: 200;" fill="rgb(50, 49, 63)" stroke="none" stroke-width="1px">60</text><text x="113.33333333333334" y="0" dx="0em" dy="0.95em" style="text-anchor: middle; visibility: inherit; font-family: &quot;Helvetica Neue&quot;, sans-serif; font-size: 12px; font-weight: 200;" fill="rgb(50, 49, 63)" stroke="none" stroke-width="1px">80</text><text x="136" y="0" dx="0em" dy="0.95em" style="text-anchor: middle; visibility: hidden; font-family: &quot;Helvetica Neue&quot;, sans-serif; font-size: 12px; font-weight: 200;" fill="rgb(50, 49, 63)" stroke="none" stroke-width="1px">100</text><text x="158.66666666666669" y="0" dx="0em" dy="0.95em" style="text-anchor: middle; visibility: inherit; font-family: &quot;Helvetica Neue&quot;, sans-serif; font-size: 12px; font-weight: 200;" fill="rgb(50, 49, 63)" stroke="none" stroke-width="1px">120</text><text x="181.33333333333331" y="0" dx="0em" dy="0.95em" style="text-anchor: middle; visibility: hidden; font-family: &quot;Helvetica Neue&quot;, sans-serif; font-size: 12px; font-weight: 200;" fill="rgb(50, 49, 63)" stroke="none" stroke-width="1px">140</text><text x="204" y="0" dx="0em" dy="0.95em" style="text-anchor: middle; visibility: inherit; font-family: &quot;Helvetica Neue&quot;, sans-serif; font-size: 12px; font-weight: 200;" fill="rgb(50, 49, 63)" stroke="none" stroke-width="1px">160</text><text x="226.66666666666669" y="0" dx="0em" dy="0.95em" style="text-anchor: middle; visibility: hidden; font-family: &quot;Helvetica Neue&quot;, sans-serif; font-size: 12px; font-weight: 200;" fill="rgb(50, 49, 63)" stroke="none" stroke-width="1px">180</text><text x="249.33333333333331" y="0" dx="0em" dy="0.95em" style="text-anchor: middle; visibility: inherit; font-family: &quot;Helvetica Neue&quot;, sans-serif; font-size: 12px; font-weight: 200;" fill="rgb(50, 49, 63)" stroke="none" stroke-width="1px">200</text><text x="272" y="0" dx="0em" dy="0.95em" style="text-anchor: middle; visibility: hidden; font-family: &quot;Helvetica Neue&quot;, sans-serif; font-size: 12px; font-weight: 200;" fill="rgb(50, 49, 63)" stroke="none" stroke-width="1px">220</text></g><line x1="0" y1="0" x2="272" y2="0" fill="rgb(0, 0, 0)" stroke="rgb(204, 204, 204)" stroke-width="1px"></line></g></g></g></g></svg>